<?xml version="1.0" encoding="UTF-8" standalone="no"?>
<svg
   xmlns:dc="http://purl.org/dc/elements/1.1/"
   xmlns:cc="http://creativecommons.org/ns#"
   xmlns:rdf="http://www.w3.org/1999/02/22-rdf-syntax-ns#"
   xmlns:svg="http://www.w3.org/2000/svg"
   xmlns="http://www.w3.org/2000/svg"
   xmlns:sodipodi="http://sodipodi.sourceforge.net/DTD/sodipodi-0.dtd"
   xmlns:inkscape="http://www.inkscape.org/namespaces/inkscape"
   id="Capa_1"
   enable-background="new 0 0 511.999 511.999"
   height="512"
   viewBox="0 0 511.999 511.999"
   width="512"
   version="1.1"
   sodipodi:docname="drama.svg"
   inkscape:version="0.92.4 (5da689c313, 2019-01-14)">
  <metadata
     id="metadata19">
    <rdf:RDF>
      <cc:Work
         rdf:about="">
        <dc:format>image/svg+xml</dc:format>
        <dc:type
           rdf:resource="http://purl.org/dc/dcmitype/StillImage" />
      </cc:Work>
    </rdf:RDF>
  </metadata>
  <defs
     id="defs17" />
  <sodipodi:namedview
     pagecolor="#ffffff"
     bordercolor="#666666"
     borderopacity="1"
     objecttolerance="10"
     gridtolerance="10"
     guidetolerance="10"
     inkscape:pageopacity="0"
     inkscape:pageshadow="2"
     inkscape:window-width="1850"
     inkscape:window-height="1016"
     id="namedview15"
     showgrid="false"
     inkscape:zoom="1.3037281"
     inkscape:cx="243.96586"
     inkscape:cy="199.80352"
     inkscape:window-x="70"
     inkscape:window-y="27"
     inkscape:window-maximized="1"
     inkscape:current-layer="Capa_1" />
  <path
     d="m129.171 305.453c1.444 2.172 3.825 3.348 6.252 3.348 1.427 0 2.869-.407 4.146-1.256 3.449-2.293 4.386-6.949 2.092-10.398-8.209-12.345-20.741-19.425-34.381-19.425s-26.172 7.08-34.381 19.425c-2.294 3.449-1.357 8.104 2.092 10.398 3.448 2.294 8.104 1.357 10.398-2.092 5.38-8.09 13.359-12.73 21.891-12.73s16.51 4.639 21.891 12.73z"
     id="path2" />
  <path
     d="m223.844 358.111h-112.543c-2.633 0-5.073 1.381-6.429 3.638s-1.429 5.06-.192 7.385c14.934 28.072 37.857 44.172 62.893 44.172 25.035 0 47.958-16.1 62.893-44.172 1.237-2.325 1.164-5.127-.192-7.385-1.357-2.257-3.797-3.638-6.43-3.638zm-56.272 40.195c-15.976 0-31.124-9.038-42.812-25.195h85.623c-11.688 16.157-26.835 25.195-42.811 25.195z"
     id="path4" />
  <path
     d="m227.863 277.722c-13.641 0-26.172 7.08-34.381 19.425-2.294 3.449-1.357 8.104 2.092 10.398 3.448 2.294 8.104 1.357 10.398-2.092 5.38-8.09 13.359-12.73 21.891-12.73s16.511 4.64 21.891 12.73c1.444 2.172 3.825 3.348 6.252 3.348 1.427 0 2.869-.407 4.146-1.256 3.449-2.293 4.386-6.949 2.092-10.398-8.208-12.345-20.74-19.425-34.381-19.425z"
     id="path6" />
  <path
     d="m501.594 30.361c-7.043-4.687-15.828-5.302-23.499-1.647-31.438 14.978-81.407 23.919-133.667 23.919-52.269 0-102.243-8.944-133.681-23.925-7.672-3.656-16.458-3.043-23.5 1.642-6.885 4.579-10.76 12.24-10.365 20.494 2.29 47.861 9.822 92.308 22.387 132.107 1.247 3.95 5.459 6.144 9.41 4.894 3.95-1.247 6.141-5.46 4.894-9.41-12.176-38.568-19.479-81.738-21.708-128.309-.202-4.228 2.513-6.505 3.689-7.287 2.608-1.735 5.875-1.956 8.74-.59 33.854 16.132 84.931 25.384 140.134 25.384 55.195 0 106.266-9.25 140.118-25.377 2.864-1.364 6.131-1.142 8.739.594 1.182.786 3.907 3.073 3.704 7.318-3.659 76.35-21.609 145.446-50.545 194.561-27.806 47.196-64.036 73.188-102.016 73.188-8.593 0-17.165-1.33-25.542-3.941 7.438-28.67 12.545-59.76 15.083-92.291 3.442-.871 6.947-1.313 10.459-1.313 15.976 0 31.124 9.038 42.812 25.195h-30c-4.142 0-7.5 3.358-7.5 7.5s3.358 7.5 7.5 7.5h43.46c2.633 0 5.073-1.381 6.429-3.638s1.429-5.06.192-7.385c-14.934-28.072-37.857-44.172-62.893-44.172-3.166 0-6.323.265-9.45.788.044-.846.096-1.687.137-2.534.396-8.266-3.483-15.938-10.378-20.526-7.044-4.686-15.829-5.301-23.499-1.646-31.438 14.978-81.407 23.919-133.667 23.919s-102.229-8.941-133.667-23.919c-7.671-3.654-16.455-3.039-23.499 1.646-6.895 4.587-10.774 12.26-10.378 20.525 3.773 78.738 22.455 150.283 52.604 201.457 30.612 51.959 71.432 80.574 114.939 80.574 43.508 0 84.328-28.615 114.94-80.574 13.022-22.103 23.899-48.012 32.365-76.653 9.679 2.969 19.594 4.488 29.552 4.488 43.508 0 84.328-28.615 114.939-80.574 30.149-51.174 48.831-122.719 52.604-201.457.398-8.265-3.482-15.938-10.376-20.525zm-232.007 367.106c-27.806 47.196-64.036 73.188-102.016 73.188s-74.21-25.992-102.016-73.188c-28.936-49.114-46.887-118.21-50.545-194.561-.203-4.246 2.522-6.532 3.704-7.318 1.476-.981 3.162-1.479 4.867-1.479 1.309 0 2.628.293 3.872.886 33.852 16.127 84.923 25.377 140.118 25.377s106.267-9.25 140.119-25.377c2.862-1.365 6.129-1.142 8.738.593 1.181.786 3.908 3.073 3.704 7.319-3.658 76.35-21.609 145.446-50.545 194.56z"
     id="path8"
     style="fill:#212121;fill-opacity:1" />
  <path
     d="m404.719 164.1c13.641 0 26.172-7.08 34.381-19.425 2.294-3.449 1.357-8.104-2.092-10.398-3.448-2.294-8.104-1.357-10.398 2.092-5.38 8.091-13.359 12.731-21.891 12.731s-16.511-4.64-21.891-12.731c-2.293-3.449-6.949-4.385-10.398-2.092s-4.386 6.949-2.092 10.398c8.209 12.345 20.74 19.425 34.381 19.425z"
     id="path10" />
  <path
     d="m284.136 164.1c13.641 0 26.172-7.08 34.381-19.425 2.294-3.449 1.357-8.104-2.092-10.398-3.448-2.294-8.104-1.357-10.398 2.092-5.38 8.091-13.359 12.731-21.891 12.731s-16.511-4.64-21.891-12.731c-2.293-3.449-6.949-4.385-10.398-2.092s-4.386 6.949-2.092 10.398c8.209 12.345 20.74 19.425 34.381 19.425z"
     id="path12" />
</svg>
