<?xml version="1.0" encoding="UTF-8" standalone="no"?>
<svg
   xmlns:dc="http://purl.org/dc/elements/1.1/"
   xmlns:cc="http://creativecommons.org/ns#"
   xmlns:rdf="http://www.w3.org/1999/02/22-rdf-syntax-ns#"
   xmlns:svg="http://www.w3.org/2000/svg"
   xmlns="http://www.w3.org/2000/svg"
   xmlns:xlink="http://www.w3.org/1999/xlink"
   xmlns:sodipodi="http://sodipodi.sourceforge.net/DTD/sodipodi-0.dtd"
   xmlns:inkscape="http://www.inkscape.org/namespaces/inkscape"
   inkscape:version="1.0beta2 (2b71d25, 2019-12-03)"
   sodipodi:docname="easteregg.svg"
   xml:space="preserve"
   style="enable-background:new 0 0 512.001 512.001;"
   viewBox="0 0 512.001 512.001"
   y="0px"
   x="0px"
   id="Capa_1"
   version="1.1"><metadata
   id="metadata49"><rdf:RDF><cc:Work
       rdf:about=""><dc:format>image/svg+xml</dc:format><dc:type
         rdf:resource="http://purl.org/dc/dcmitype/StillImage" /></cc:Work></rdf:RDF></metadata><defs
   id="defs47"><pattern
     id="d"
     xlink:href="#g"
     patternTransform="translate(-14.574 12.738)" /><pattern
     id="g"
     width="30.06602"
     height="5.18058"
     patternUnits="userSpaceOnUse"><path
       d="m7.597.061c-2.518-.248-4.941.241-7.607,1.727v1.273c2.783-1.63 5.183-2.009 7.482-1.781s4.497,1.081 6.781,1.938c4.567,1.713 9.551,3.458 15.813-.157l-.004-1.273c-6.44,3.709-10.816,1.982-15.371.273-2.278-.854-4.576-1.75-7.094-2z"
       fill="#fff"
       id="path836" /></pattern></defs><sodipodi:namedview
   inkscape:document-rotation="0"
   showguides="false"
   inkscape:current-layer="Capa_1"
   inkscape:window-maximized="1"
   inkscape:window-y="23"
   inkscape:window-x="0"
   inkscape:cy="305.58954"
   inkscape:cx="325.8392"
   inkscape:zoom="1.1389595"
   showgrid="false"
   id="namedview45"
   inkscape:window-height="979"
   inkscape:window-width="1920"
   inkscape:pageshadow="2"
   inkscape:pageopacity="0"
   guidetolerance="10"
   gridtolerance="10"
   objecttolerance="10"
   borderopacity="1"
   bordercolor="#666666"
   pagecolor="#ffffff" />

<g
   id="g14">
</g>
<g
   id="g16">
</g>
<g
   id="g18">
</g>
<g
   id="g20">
</g>
<g
   id="g22">
</g>
<g
   id="g24">
</g>
<g
   id="g26">
</g>
<g
   id="g28">
</g>
<g
   id="g30">
</g>
<g
   id="g32">
</g>
<g
   id="g34">
</g>
<g
   id="g36">
</g>
<g
   id="g38">
</g>
<g
   id="g40">
</g>
<g
   id="g42">
</g>
<g
   transform="matrix(2.7454461,0,0,2.7454461,482.58619,-252.61209)"
   id="g1703"><g
     transform="matrix(1.1187601,-1.9173745,1.894697,1.1321427,-153.57668,48.543983)"
     id="g964"><path
       d="m -45.908,95.062 c -2.3545,-2.8e-4 -4.6963,-0.27458 -6.9617,-0.81534 -7.4727,-1.7875 -12.844,-6.1143 -16.034,-9.4288 -2.2882,-2.3777 -3.4469,-4.2322 -3.4584,-4.2513 -0.0765,-0.12455 -6.4863,-11.325 -3.7198,-23.982 1.6881,-7.723 7.4355,-18.249 25.238,-24.532 6.6434,-2.3459 12.904,-3.8826 18.606,-4.569 2.3522,-0.28357 4.654,-0.42695 6.8376,-0.42668 1.8072,2.2e-4 3.5773,0.09834 5.2628,0.29261 14.07,1.6249 19.134,9.3684 19.666,10.246 l 0.08805,0.1512 c 1.4443,2.5873 2.3013,5.4213 2.5484,8.4244 0.32195,3.9236 -0.39808,8.1657 -2.1421,12.61 -2.0498,5.2244 -5.4868,10.73 -10.215,16.363 -3.7806,4.5036 -7.0181,7.428 -7.1536,7.5491 l -0.1222,0.10657 c -9.6604,8.1379 -19.229,12.263 -28.439,12.262 z"
       fill="#20b2aa"
       id="path960"
       inkscape:connector-curvature="0" /><path
       d="m -45.418,95.395 c -2.3174,-0.02271 -4.6249,-0.31783 -6.8597,-0.87728 -7.3718,-1.8492 -12.699,-6.2043 -15.871,-9.5317 -2.2747,-2.387 -3.4328,-4.2426 -3.4444,-4.2618 -0.07648,-0.12462 -6.4918,-11.327 -3.8893,-23.891 1.5879,-7.6662 7.1446,-18.082 24.606,-24.163 6.5162,-2.2703 12.663,-3.7393 18.269,-4.3678 2.3124,-0.25969 4.5765,-0.3804 6.7257,-0.35936 1.7787,0.01737 3.5218,0.13187 5.1826,0.34114 13.864,1.7502 18.922,9.5011 19.453,10.379 l 0.0881,0.15124 c 1.4462,2.5874 2.3166,5.4146 2.5884,8.4042 0.35421,3.906 -0.31409,8.1188 -1.9883,12.524 -1.9677,5.1773 -5.2981,10.621 -9.8985,16.18 -3.6781,4.4438 -6.8367,7.322 -6.9689,7.4412 l -0.11926,0.10485 c -9.4305,8.0031 -18.809,12.015 -27.873,11.927 z"
       fill="url(#d)"
       opacity=".635"
       id="path962"
       inkscape:connector-curvature="0" /></g><g
     transform="matrix(2.7997,0,0,2.7997,-1193.0324,-1264.5713)"
     fill="none"
     stroke="#fca0f9"
     id="g984"><path
       transform="matrix(0.35718,0,0,0.35718,330.49,400.51)"
       d="m 116.33,354.9 c 45.961,14.548 91.381,18.274 135.82,2.2923"
       opacity=".96"
       stroke-width="3"
       id="path976"
       inkscape:connector-curvature="0" /><path
       d="m 393.33,531.67 c 0,0 -6.8824,0.20098 -9.0061,-4.6054 -1.696,-12.066 10.228,-3.9259 10.03,3.1726 z"
       stroke-width="1.0715"
       id="path978"
       inkscape:connector-curvature="0" /><path
       transform="matrix(0.35718,0,0,0.35718,330.49,400.51)"
       d="m 154.73,409.34 22.35,-42.98 c 3.1209,-16.514 22.384,-34.799 33.238,-14.9 -0.46456,17.301 -11.7,13.934 -33.238,14.9"
       stroke-width="3"
       id="path980"
       inkscape:connector-curvature="0" /><path
       transform="matrix(0.35718,0,0,0.35718,330.49,400.51)"
       d="M 199.43,409.34 178.227,365.214"
       stroke-width="3"
       id="path982"
       inkscape:connector-curvature="0" /></g></g></svg>
