<?xml version="1.0" encoding="UTF-8" standalone="no"?>
<svg
   xmlns:dc="http://purl.org/dc/elements/1.1/"
   xmlns:cc="http://creativecommons.org/ns#"
   xmlns:rdf="http://www.w3.org/1999/02/22-rdf-syntax-ns#"
   xmlns:svg="http://www.w3.org/2000/svg"
   xmlns="http://www.w3.org/2000/svg"
   xmlns:xlink="http://www.w3.org/1999/xlink"
   xmlns:sodipodi="http://sodipodi.sourceforge.net/DTD/sodipodi-0.dtd"
   xmlns:inkscape="http://www.inkscape.org/namespaces/inkscape"
   version="1.1"
   id="Capa_1"
   x="0px"
   y="0px"
   viewBox="0 0 512.001 512.001"
   style="enable-background:new 0 0 512.001 512.001;"
   xml:space="preserve"
   sodipodi:docname="easteregg.svg"
   inkscape:version="1.0beta2 (2b71d25, 2019-12-03)"><metadata
   id="metadata49"><rdf:RDF><cc:Work
       rdf:about=""><dc:format>image/svg+xml</dc:format><dc:type
         rdf:resource="http://purl.org/dc/dcmitype/StillImage" /></cc:Work></rdf:RDF></metadata><defs
   id="defs47"><pattern
     patternTransform="translate(-14.574 12.738)"
     xlink:href="#g"
     id="d" /><pattern
     patternUnits="userSpaceOnUse"
     height="5.18058"
     width="30.06602"
     id="g"><path
       id="path836"
       fill="#fff"
       d="m7.597.061c-2.518-.248-4.941.241-7.607,1.727v1.273c2.783-1.63 5.183-2.009 7.482-1.781s4.497,1.081 6.781,1.938c4.567,1.713 9.551,3.458 15.813-.157l-.004-1.273c-6.44,3.709-10.816,1.982-15.371.273-2.278-.854-4.576-1.75-7.094-2z" /></pattern></defs><sodipodi:namedview
   inkscape:guide-bbox="true"
   pagecolor="#ffffff"
   bordercolor="#666666"
   borderopacity="1"
   objecttolerance="10"
   gridtolerance="10"
   guidetolerance="10"
   inkscape:pageopacity="0"
   inkscape:pageshadow="2"
   inkscape:window-width="1920"
   inkscape:window-height="979"
   id="namedview45"
   showgrid="false"
   inkscape:zoom="1.7741774"
   inkscape:cx="277.43609"
   inkscape:cy="66.505567"
   inkscape:window-x="0"
   inkscape:window-y="23"
   inkscape:window-maximized="1"
   inkscape:current-layer="Capa_1"
   showguides="true"
   inkscape:document-rotation="0" />

<g
   transform="matrix(3.0714956,-5.2640483,5.2017885,3.1082368,60.949693,-119.3372)"
   id="g964"
   style="fill:#ae4c25;fill-opacity:1"><path
     d="m -45.908,95.062 c -2.3545,-2.8e-4 -4.6963,-0.27458 -6.9617,-0.81534 -7.4727,-1.7875 -12.844,-6.1143 -16.034,-9.4288 -2.2882,-2.3777 -3.4469,-4.2322 -3.4584,-4.2513 -0.0765,-0.12455 -6.4863,-11.325 -3.7198,-23.982 1.6881,-7.723 7.4355,-18.249 25.238,-24.532 6.6434,-2.3459 12.904,-3.8826 18.606,-4.569 2.3522,-0.28357 4.654,-0.42695 6.8376,-0.42668 1.8072,2.2e-4 3.5773,0.09834 5.2628,0.29261 14.07,1.6249 19.134,9.3684 19.666,10.246 l 0.08805,0.1512 c 1.4443,2.5873 2.3013,5.4213 2.5484,8.4244 0.32195,3.9236 -0.39808,8.1657 -2.1421,12.61 -2.0498,5.2244 -5.4868,10.73 -10.215,16.363 -3.7806,4.5036 -7.0181,7.428 -7.1536,7.5491 l -0.1222,0.10657 c -9.6604,8.1379 -19.229,12.263 -28.439,12.262 z"
     fill="#20b2aa"
     id="path960"
     inkscape:connector-curvature="0"
     style="fill:#ae4c25;fill-opacity:1" /></g><g
   id="g14">
</g>
<g
   id="g16">
</g>
<g
   id="g18">
</g>
<g
   id="g20">
</g>
<g
   id="g22">
</g>
<g
   id="g24">
</g>
<g
   id="g26">
</g>
<g
   id="g28">
</g>
<g
   id="g30">
</g>
<g
   id="g32">
</g>
<g
   id="g34">
</g>
<g
   id="g36">
</g>
<g
   id="g38">
</g>
<g
   id="g40">
</g>
<g
   id="g42">
</g>
<path
   sodipodi:nodetypes="cc"
   style="fill:none;fill-opacity:1;stroke:#bfa76f;stroke-width:12;stroke-linecap:butt;stroke-linejoin:miter;stroke-miterlimit:4;stroke-dasharray:none;stroke-opacity:1"
   d="M 256.66073,5.0411576 255.34024,100.22831"
   id="path2880-3"
   inkscape:connector-curvature="0" /><path
   inkscape:connector-curvature="0"
   id="path2880-9-9"
   d="M 138.75384,7.1700526 405.9361,7.3204646"
   style="fill:none;fill-opacity:1;stroke:#bfa76f;stroke-width:12;stroke-linecap:butt;stroke-linejoin:miter;stroke-miterlimit:4;stroke-dasharray:none;stroke-opacity:1"
   sodipodi:nodetypes="cc" /><path
   inkscape:connector-curvature="0"
   id="path2880-3-2"
   d="m 370.48035,97.623427 -1.32049,95.187153"
   style="fill:none;fill-opacity:1;stroke:#bfa76f;stroke-width:12;stroke-linecap:butt;stroke-linejoin:miter;stroke-miterlimit:4;stroke-dasharray:none;stroke-opacity:1"
   sodipodi:nodetypes="cc" /><path
   inkscape:connector-curvature="0"
   id="path2880-3-3"
   d="m 256.66073,191.27735 -1.32049,95.18715"
   style="fill:none;fill-opacity:1;stroke:#bfa76f;stroke-width:12;stroke-linecap:butt;stroke-linejoin:miter;stroke-miterlimit:4;stroke-dasharray:none;stroke-opacity:1"
   sodipodi:nodetypes="cc" /><path
   inkscape:connector-curvature="0"
   id="path2880-9-6"
   d="M 22.325372,194.82951 492.24611,196.15"
   style="fill:none;fill-opacity:1;stroke:#bfa76f;stroke-width:12;stroke-linecap:butt;stroke-linejoin:miter;stroke-miterlimit:4;stroke-dasharray:none;stroke-opacity:1"
   sodipodi:nodetypes="cc" /><path
   sodipodi:nodetypes="cc"
   style="fill:none;fill-opacity:1;stroke:#bfa76f;stroke-width:12;stroke-linecap:butt;stroke-linejoin:miter;stroke-miterlimit:4;stroke-dasharray:none;stroke-opacity:1"
   d="m 152.21973,96.278103 -1.32049,95.187147"
   id="path2880-3-2-5"
   inkscape:connector-curvature="0" /><path
   inkscape:connector-curvature="0"
   id="path2880-9-5"
   d="m 29.517336,286.43952 453.957984,1.32049"
   style="fill:none;fill-opacity:1;stroke:#bfa76f;stroke-width:12;stroke-linecap:butt;stroke-linejoin:miter;stroke-miterlimit:4;stroke-dasharray:none;stroke-opacity:1"
   sodipodi:nodetypes="cc" /><path
   sodipodi:nodetypes="cc"
   style="fill:none;fill-opacity:1;stroke:#bfa76f;stroke-width:12;stroke-linecap:butt;stroke-linejoin:miter;stroke-miterlimit:4;stroke-dasharray:none;stroke-opacity:1"
   d="m 370.97619,287.33528 -1.32049,95.18716"
   id="path2880-3-2-8"
   inkscape:connector-curvature="0" /><path
   sodipodi:nodetypes="cc"
   style="fill:none;fill-opacity:1;stroke:#bfa76f;stroke-width:12;stroke-linecap:butt;stroke-linejoin:miter;stroke-miterlimit:4;stroke-dasharray:none;stroke-opacity:1"
   d="m 257.15657,380.98921 -1.32049,95.18715"
   id="path2880-3-3-1"
   inkscape:connector-curvature="0" /><path
   sodipodi:nodetypes="cc"
   style="fill:none;fill-opacity:1;stroke:#bfa76f;stroke-width:12;stroke-linecap:butt;stroke-linejoin:miter;stroke-miterlimit:4;stroke-dasharray:none;stroke-opacity:1"
   d="m 22.821208,384.54137 453.957982,1.32049"
   id="path2880-9-6-4"
   inkscape:connector-curvature="0" /><path
   inkscape:connector-curvature="0"
   id="path2880-3-2-5-7"
   d="m 152.71557,285.98995 -1.32049,95.18716"
   style="fill:none;fill-opacity:1;stroke:#bfa76f;stroke-width:12;stroke-linecap:butt;stroke-linejoin:miter;stroke-miterlimit:4;stroke-dasharray:none;stroke-opacity:1"
   sodipodi:nodetypes="cc" /><path
   sodipodi:nodetypes="cc"
   style="fill:none;fill-opacity:1;stroke:#bfa76f;stroke-width:12;stroke-linecap:butt;stroke-linejoin:round;stroke-miterlimit:4;stroke-dasharray:none;stroke-opacity:1"
   d="m 36.559791,96.727669 435.993559,1.32049"
   id="path2880-9"
   inkscape:connector-curvature="0" /><path
   sodipodi:nodetypes="cc"
   style="fill:none;fill-opacity:1;stroke:#bfa76f;stroke-width:12;stroke-linecap:butt;stroke-linejoin:miter;stroke-miterlimit:4;stroke-dasharray:none;stroke-opacity:1"
   d="m 26.867988,479.34967 453.957982,1.32049"
   id="path2880-9-5-4"
   inkscape:connector-curvature="0" /><g
   transform="matrix(7.6864254,0,0,7.6864254,-2792.82,-3724.4244)"
   fill="none"
   stroke="#fca0f9"
   id="g984"
   style="fill:#ae4c25;fill-opacity:1"><path
     transform="matrix(0.35718,0,0,0.35718,330.49,400.51)"
     d="m 112.48222,352.97611 c 45.961,14.548 100.03851,17.79302 144.47751,1.81132"
     opacity=".96"
     stroke-width="3"
     id="path976"
     inkscape:connector-curvature="0"
     style="fill:#000000;fill-opacity:0;stroke:#ffffff;stroke-width:9.6366;stroke-miterlimit:4;stroke-dasharray:none;stroke-opacity:1"
     sodipodi:nodetypes="cc" /><path
     d="m 393.33,531.67 c 0,0 -6.8824,0.20098 -9.0061,-4.6054 -1.696,-12.066 10.228,-3.9259 10.03,3.1726 z"
     stroke-width="1.0715"
     id="path978"
     inkscape:connector-curvature="0"
     style="fill:#000000;fill-opacity:0;stroke:#ffffff;stroke-width:3.442;stroke-miterlimit:4;stroke-dasharray:none;stroke-opacity:1"
     sodipodi:nodetypes="cccc" /><path
     transform="matrix(0.35718,0,0,0.35718,330.49,400.51)"
     d="m 154.73,409.34 22.35,-42.98 c 3.1209,-16.514 22.384,-34.799 33.238,-14.9 -0.46456,17.301 -11.7,13.934 -33.238,14.9"
     stroke-width="3"
     id="path980"
     inkscape:connector-curvature="0"
     style="fill:#000000;fill-opacity:0;stroke:#ffffff;stroke-width:9.6366;stroke-miterlimit:4;stroke-dasharray:none;stroke-opacity:1"
     sodipodi:nodetypes="cccc" /><path
     transform="matrix(0.35718,0,0,0.35718,330.49,400.51)"
     d="M 199.43,409.34 178.227,365.214"
     stroke-width="3"
     id="path982"
     inkscape:connector-curvature="0"
     style="fill:#000000;fill-opacity:0;stroke:#ffffff;stroke-width:7.26738;stroke-miterlimit:4;stroke-dasharray:none;stroke-opacity:1"
     sodipodi:nodetypes="cc" /></g><path
   sodipodi:nodetypes="ccccccccccccccccccccccccc"
   inkscape:connector-curvature="0"
   d="M 1.9887698,4.1249508e-4 1.102485,512.00041 l 256.300405,0 c -0.8828,0.0156 -78.8341,-1.05504 -136.1758,-54.95898 -34.988502,-32.89115 -72.089302,-95.86319 -50.091802,-209.10547 8.2023,-42.26279 19.4396,-79.99544 33.382802,-112.14454 5.7497,-13.2635 12.073,-25.82657 18.7813,-37.320308 5.552,-9.5125 11.4999,-18.5262 17.6875,-26.79492 C 192.65519,2.6616025 248.48879,0.0730925 254.68799,4.1249508e-4 Z m 252.6992202,0 1.0567,0.006000005 c 17.8948,0.43907 35.2679,4.73789 51.6484,12.7714795 21.3986,10.50072 41.254,27.47617 59.0156,50.47071 20.8802,27.02892 38.9632,62.234638 53.7422,104.632808 11.8147,33.89952 17.0831,60.0314 17.2969,61.12109 l 0.1777,0.97461 c 12.6597,76.14733 4.7293,139.33763 -23.5644,187.81641 l -0.002,0.008 c -7.2333,12.39333 -15.8539,23.86696 -25.625,34.11133 -32.2505,33.78068 -71.2555,48.60759 -98.2949,55.09765 -19.3965,4.65473 -32.6016,4.98907 -32.7363,4.99024 h 252.5976 V 4.1249508e-4 Z"
   style="opacity:1;fill:#ffffff;fill-opacity:1;stroke:none;stroke-width:12.4185;stroke-linecap:butt;stroke-linejoin:round;stroke-miterlimit:4;stroke-dasharray:none;stroke-opacity:1"
   id="rect3784" /></svg>
