<?xml version="1.0" encoding="UTF-8" standalone="no"?>
<!-- Generator: Adobe Illustrator 18.1.1, SVG Export Plug-In . SVG Version: 6.00 Build 0)  -->

<svg
   xmlns:dc="http://purl.org/dc/elements/1.1/"
   xmlns:cc="http://creativecommons.org/ns#"
   xmlns:rdf="http://www.w3.org/1999/02/22-rdf-syntax-ns#"
   xmlns:svg="http://www.w3.org/2000/svg"
   xmlns="http://www.w3.org/2000/svg"
   xmlns:sodipodi="http://sodipodi.sourceforge.net/DTD/sodipodi-0.dtd"
   xmlns:inkscape="http://www.inkscape.org/namespaces/inkscape"
   version="1.1"
   id="Capa_1"
   x="0px"
   y="0px"
   viewBox="0 0 270.125 270.125"
   style="enable-background:new 0 0 270.125 270.125;"
   xml:space="preserve"
   sodipodi:docname="geschiedenis.svg"
   inkscape:version="0.92.4 (5da689c313, 2019-01-14)"><metadata
   id="metadata39"><rdf:RDF><cc:Work
       rdf:about=""><dc:format>image/svg+xml</dc:format><dc:type
         rdf:resource="http://purl.org/dc/dcmitype/StillImage" /></cc:Work></rdf:RDF></metadata><defs
   id="defs37" /><sodipodi:namedview
   pagecolor="#ffffff"
   bordercolor="#666666"
   borderopacity="1"
   objecttolerance="10"
   gridtolerance="10"
   guidetolerance="10"
   inkscape:pageopacity="0"
   inkscape:pageshadow="2"
   inkscape:window-width="1850"
   inkscape:window-height="1016"
   id="namedview35"
   showgrid="false"
   inkscape:zoom="2.4711108"
   inkscape:cx="231.27964"
   inkscape:cy="108.69066"
   inkscape:window-x="70"
   inkscape:window-y="27"
   inkscape:window-maximized="1"
   inkscape:current-layer="Capa_1" />
<path
   d="M 33.891,51.088 C 14.354,52.643 -1.687,69.757 0.141,89.859 1.71,107.114 16.964,121.273 34.817,119.378 49.787,117.79 62.068,104.384 60.081,88.774 58.466,76.093 46.882,65.67 33.503,67.799 23.116,69.452 14.527,79.272 16.897,90.442 c 0.859,4.047 3.183,7.559 6.492,9.941 3.309,2.382 7.922,3.55 12.416,2.119 2.944,-0.937 5.294,-2.818 6.887,-5.521 1.593,-2.704 2.11,-6.917 -0.02,-10.262 -1.717,-2.698 -3.293,-3.232 -5.766,-3.648 -1.236,-0.208 -2.965,-0.285 -4.805,0.912 -1.84,1.197 -2.815,3.672 -2.815,5.422 -0.017,1.336 0.5,2.623 1.438,3.574 -0.491,-0.141 -0.978,-0.339 -1.494,-0.711 -1.205,-0.868 -2.243,-2.443 -2.553,-3.902 -1.059,-4.992 3.23,-9.867 8.395,-10.69 7.348,-1.17 14.144,4.951 15.088,12.359 1.231,9.671 -6.743,18.372 -16.4,19.396 -11.975,1.271 -22.577,-8.57 -23.66,-20.48 -1.298,-14.267 10.416,-26.767 24.584,-27.894 0.126,-0.01 0.253,-0.016 0.379,-0.023 h 200 c 0.126,0.01 0.252,0.014 0.377,0.023 14.168,1.127 25.882,13.627 24.584,27.896 -1.083,11.911 -11.685,21.751 -23.66,20.48 -9.658,-1.025 -17.632,-9.726 -16.4,-19.396 0.943,-7.409 7.739,-13.529 15.088,-12.359 5.165,0.822 9.454,5.697 8.394,10.69 -0.31,1.459 -1.348,3.035 -2.553,3.902 -0.516,0.371 -1,0.57 -1.49,0.711 0.936,-0.952 1.452,-2.239 1.434,-3.574 0,-1.75 -0.973,-4.225 -2.812,-5.422 -1.84,-1.197 -3.568,-1.12 -4.805,-0.912 -2.473,0.416 -4.05,0.951 -5.768,3.648 -2.129,3.344 -1.611,7.558 -0.018,10.262 1.593,2.704 3.943,4.585 6.887,5.521 4.494,1.43 9.105,0.263 12.414,-2.119 3.309,-2.382 5.633,-5.894 6.492,-9.941 2.37,-11.169 -6.219,-20.989 -16.605,-22.643 -13.379,-2.129 -24.964,8.294 -26.578,20.975 -1.988,15.61 10.296,29.015 25.266,30.604 17.852,1.894 33.105,-12.264 34.674,-29.52 1.828,-20.102 -14.213,-37.217 -33.75,-38.771 -0.406,-0.062 -0.781,-0.037 -1.17,-0.045 h -200 c -0.389,-0.024 -0.8,0.021 -1.172,0.047 z M 15.062,1.0629997 c -2.761,0 -5,2.239 -5,5.0000002 V 16.063 c 0,1.326 0.527,2.598 1.465,3.535 l 20,20 c 0.938,0.938 2.209,1.465 3.535,1.465 h 200 c 1.326,0 2.598,-0.527 3.535,-1.465 l 20,-20 c 0.938,-0.938 1.465,-2.209 1.465,-3.535 V 6.0629999 c 0,-2.7610002 -2.239,-5.0000002 -5,-5.0000002 z m 5,10.0000003 h 230 v 2.928 L 232.99,31.063 H 37.132 L 20.062,13.991 Z m 55,70 c -2.761,0 -5,2.239 -5,5 v 178 c 0,2.762 2.24,5 5.002,4.999 0.987,0 1.951,-0.292 2.772,-0.839 l 28.441,-18.963 c 1.366,-0.91 2.198,-2.433 2.227,-4.074 l 1.557,-129.039 v -0.084 c 0,-3.28 10.058,-3.373 10,-0.09 v 0.09 118 c 10e-4,2.762 2.24,5 5.002,4.999 0.987,0 1.951,-0.292 2.772,-0.839 l 30,-20 c 1.391,-0.927 2.226,-2.488 2.227,-4.16 v -98 c 0,-3.339 10,-3.339 10,0 v 88 c 0,2.762 2.241,5 5.003,4.998 0.775,0 1.54,-0.181 2.234,-0.528 l 20,-10 c 1.6932,-0.8466 2.763,-2.577 2.764,-4.471 v -108 c 0,-2.761 -2.239,-5 -5,-5 h -120 -0.001 z m 5,10 h 110 v 99.908 l -10,5 v -79.908 c 0,-16.668 -30,-16.668 -30,0 v 95.324 l -20,13.334 v -108.658 0.088 c 0.297,-16.724 -29.998,-16.815 -29.998,-0.088 v -0.086 L 98.552,242.395 80.064,254.721 V 91.063 Z"
   id="path2"
   style="color-interpolation:sRGB;fill:#212121;fill-opacity:1;color-rendering:auto;image-rendering:auto;shape-rendering:auto"
   inkscape:connector-curvature="0"
   sodipodi:nodetypes="ccccccsccccscccccccccccccccccccccccscsccccccccccssscssscssssscccccccccsccccccscccccccssccsccsscccccccssccccccccc" />
<g
   id="g4">
</g>
<g
   id="g6">
</g>
<g
   id="g8">
</g>
<g
   id="g10">
</g>
<g
   id="g12">
</g>
<g
   id="g14">
</g>
<g
   id="g16">
</g>
<g
   id="g18">
</g>
<g
   id="g20">
</g>
<g
   id="g22">
</g>
<g
   id="g24">
</g>
<g
   id="g26">
</g>
<g
   id="g28">
</g>
<g
   id="g30">
</g>
<g
   id="g32">
</g>
</svg>