<?xml version="1.0" encoding="UTF-8" standalone="no"?>
<svg
   xmlns:dc="http://purl.org/dc/elements/1.1/"
   xmlns:cc="http://creativecommons.org/ns#"
   xmlns:rdf="http://www.w3.org/1999/02/22-rdf-syntax-ns#"
   xmlns:svg="http://www.w3.org/2000/svg"
   xmlns="http://www.w3.org/2000/svg"
   xmlns:sodipodi="http://sodipodi.sourceforge.net/DTD/sodipodi-0.dtd"
   xmlns:inkscape="http://www.inkscape.org/namespaces/inkscape"
   viewBox="0 0 64 64"
   width="512"
   height="512"
   version="1.1"
   id="svg5"
   sodipodi:docname="rekenen-wiskunde.svg"
   inkscape:version="0.92.4 (5da689c313, 2019-01-14)">
  <metadata
     id="metadata11">
    <rdf:RDF>
      <cc:Work
         rdf:about="">
        <dc:format>image/svg+xml</dc:format>
        <dc:type
           rdf:resource="http://purl.org/dc/dcmitype/StillImage" />
      </cc:Work>
    </rdf:RDF>
  </metadata>
  <defs
     id="defs9" />
  <sodipodi:namedview
     pagecolor="#ffffff"
     bordercolor="#666666"
     borderopacity="1"
     objecttolerance="10"
     gridtolerance="10"
     guidetolerance="10"
     inkscape:pageopacity="0"
     inkscape:pageshadow="2"
     inkscape:window-width="851"
     inkscape:window-height="480"
     id="namedview7"
     showgrid="false"
     inkscape:zoom="0.32593203"
     inkscape:cx="229.04102"
     inkscape:cy="138.2791"
     inkscape:window-x="70"
     inkscape:window-y="27"
     inkscape:window-maximized="0"
     inkscape:current-layer="svg5" />
  <g
     id="Abacus"
     style="fill:#212121;fill-opacity:1">
    <path
       d="M61,55H59V6.41a3.5,3.5,0,0,0-7,0V13H50V12a4,4,0,0,0-8,0v1H32V12a4,4,0,0,0-8,0v1H22V12a4,4,0,0,0-8,0v1H12V6.41a3.5,3.5,0,0,0-7,0V55H3a1,1,0,0,0-1,1v6a1,1,0,0,0,1,1H61a1,1,0,0,0,1-1V56A1,1,0,0,0,61,55ZM54,6.41a1.5,1.5,0,0,1,3,0V55H54ZM44,12a2,2,0,0,1,4,0v4a2,2,0,0,1-4,0ZM26,12a2,2,0,0,1,4,0v4a2,2,0,0,1-4,0ZM16,12a2,2,0,0,1,4,0v4a2,2,0,0,1-4,0Zm-4,3h2v1a4,4,0,0,0,8,0V15h2v1a4,4,0,0,0,8,0V15H42v1a4,4,0,0,0,8,0V15h2V29H50V28a4,4,0,0,0-8,0v1H40V28a4,4,0,0,0-8,0v1H22V28a4,4,0,0,0-8,0v1H12ZM48,28v4a2,2,0,0,1-4,0V28a2,2,0,0,1,4,0ZM38,28v4a2,2,0,0,1-4,0V28a2,2,0,0,1,4,0ZM20,28v4a2,2,0,0,1-4,0V28a2,2,0,0,1,4,0Zm-8,3h2v1a4,4,0,0,0,8,0V31H32v1a4,4,0,0,0,8,0V31h2v1a4,4,0,0,0,8,0V31h2V45H50V44a4,4,0,0,0-8,0v1l-2-.01V44a4,4,0,0,0-8,0v1H23V44a4,4,0,0,0-8,0v1H12ZM48,44v4a2,2,0,0,1-4,0V44a2,2,0,0,1,4,0ZM38,44v4a2,2,0,0,1-4,0V44a2,2,0,0,1,4,0ZM21,44v4a2,2,0,0,1-4,0V44a2,2,0,0,1,4,0Zm-9,3h3v1a4,4,0,0,0,8,0V47h9v1a4,4,0,0,0,8,0V46.99L42,47v1a4,4,0,0,0,8,0V47h2v8H12ZM7,6.41A1.455,1.455,0,0,1,8.5,5,1.455,1.455,0,0,1,10,6.41V55H7ZM60,61H4V57H60Z"
       id="path2"
       style="fill:#212121;fill-opacity:1" />
  </g>
</svg>
