<?xml version="1.0" encoding="UTF-8" standalone="no"?>
<svg
   xmlns:dc="http://purl.org/dc/elements/1.1/"
   xmlns:cc="http://creativecommons.org/ns#"
   xmlns:rdf="http://www.w3.org/1999/02/22-rdf-syntax-ns#"
   xmlns:svg="http://www.w3.org/2000/svg"
   xmlns="http://www.w3.org/2000/svg"
   xmlns:sodipodi="http://sodipodi.sourceforge.net/DTD/sodipodi-0.dtd"
   xmlns:inkscape="http://www.inkscape.org/namespaces/inkscape"
   inkscape:version="1.0beta2 (2b71d25, 2019-12-03)"
   sodipodi:docname="coding.svg"
   xml:space="preserve"
   style="enable-background:new 0 0 511.997 511.997;"
   viewBox="0 0 511.997 511.997"
   y="0px"
   x="0px"
   id="Capa_1"
   version="1.1"><metadata
   id="metadata886"><rdf:RDF><cc:Work
       rdf:about=""><dc:format>image/svg+xml</dc:format><dc:type
         rdf:resource="http://purl.org/dc/dcmitype/StillImage" /></cc:Work></rdf:RDF></metadata><defs
   id="defs884" /><sodipodi:namedview
   inkscape:current-layer="Capa_1"
   inkscape:window-maximized="0"
   inkscape:window-y="23"
   inkscape:window-x="0"
   inkscape:cy="255.9985"
   inkscape:cx="255.9985"
   inkscape:zoom="1.6972755"
   showgrid="false"
   id="namedview882"
   inkscape:window-height="1035"
   inkscape:window-width="1920"
   inkscape:pageshadow="2"
   inkscape:pageopacity="0"
   guidetolerance="10"
   gridtolerance="10"
   objecttolerance="10"
   borderopacity="1"
   inkscape:document-rotation="0"
   bordercolor="#666666"
   pagecolor="#ffffff" />
<g
   style="fill:#212121;fill-opacity:1"
   id="g837">
	<g
   style="fill:#212121;fill-opacity:1"
   id="g835">
		<path
   style="fill:#212121;fill-opacity:1"
   id="path833"
   d="M506.76,242.828l-118.4-125.44c-7.277-7.718-19.424-8.07-27.142-0.787c-7.706,7.277-8.064,19.43-0.781,27.142    l105.965,112.256L360.437,368.268c-7.283,7.712-6.925,19.859,0.781,27.142c3.712,3.501,8.454,5.235,13.178,5.235    c5.101,0,10.195-2.022,13.965-6.01l118.4-125.446C513.742,261.785,513.742,250.226,506.76,242.828z" />
	</g>
</g>
<g
   style="fill:#212121;fill-opacity:1"
   id="g843">
	<g
   style="fill:#212121;fill-opacity:1"
   id="g841">
		<path
   style="fill:#212121;fill-opacity:1"
   id="path839"
   d="M151.566,368.262L45.608,255.999l105.958-112.262c7.277-7.712,6.925-19.866-0.787-27.142    c-7.706-7.277-19.866-6.925-27.142,0.787l-118.4,125.44c-6.982,7.398-6.982,18.963,0,26.362L123.643,394.63    c3.776,4,8.864,6.016,13.965,6.016c4.723,0,9.466-1.741,13.171-5.242C158.498,388.127,158.843,375.974,151.566,368.262z" />
	</g>
</g>
<g
   style="fill:#212121;fill-opacity:1"
   id="g849">
	<g
   style="fill:#212121;fill-opacity:1"
   id="g847">
		<path
   style="fill:#212121;fill-opacity:1"
   id="path845"
   d="M287.061,52.697c-10.477-1.587-20.282,5.606-21.882,16.083l-56.32,368.64c-1.6,10.483,5.6,20.282,16.083,21.882    c0.986,0.147,1.958,0.218,2.925,0.218c9.325,0,17.504-6.803,18.957-16.301l56.32-368.64    C304.744,64.095,297.544,54.297,287.061,52.697z" />
	</g>
</g>
<g
   id="g851">
</g>
<g
   id="g853">
</g>
<g
   id="g855">
</g>
<g
   id="g857">
</g>
<g
   id="g859">
</g>
<g
   id="g861">
</g>
<g
   id="g863">
</g>
<g
   id="g865">
</g>
<g
   id="g867">
</g>
<g
   id="g869">
</g>
<g
   id="g871">
</g>
<g
   id="g873">
</g>
<g
   id="g875">
</g>
<g
   id="g877">
</g>
<g
   id="g879">
</g>
</svg>
