<?xml version="1.0" encoding="UTF-8" standalone="no"?>
<svg
   xmlns:dc="http://purl.org/dc/elements/1.1/"
   xmlns:cc="http://creativecommons.org/ns#"
   xmlns:rdf="http://www.w3.org/1999/02/22-rdf-syntax-ns#"
   xmlns:svg="http://www.w3.org/2000/svg"
   xmlns="http://www.w3.org/2000/svg"
   xmlns:sodipodi="http://sodipodi.sourceforge.net/DTD/sodipodi-0.dtd"
   xmlns:inkscape="http://www.inkscape.org/namespaces/inkscape"
   inkscape:version="1.0beta2 (2b71d25, 2019-12-03)"
   sodipodi:docname="data.svg"
   id="svg1534"
   version="1.1"
   width="496pt"
   viewBox="0 0 496 496"
   height="496pt">
  <metadata
     id="metadata1540">
    <rdf:RDF>
      <cc:Work
         rdf:about="">
        <dc:format>image/svg+xml</dc:format>
        <dc:type
           rdf:resource="http://purl.org/dc/dcmitype/StillImage" />
      </cc:Work>
    </rdf:RDF>
  </metadata>
  <defs
     id="defs1538" />
  <sodipodi:namedview
     inkscape:current-layer="svg1534"
     inkscape:window-maximized="1"
     inkscape:window-y="23"
     inkscape:window-x="0"
     inkscape:cy="330.66667"
     inkscape:cx="102.14862"
     inkscape:zoom="0.47479839"
     showgrid="false"
     id="namedview1536"
     inkscape:window-height="1035"
     inkscape:window-width="1920"
     inkscape:pageshadow="2"
     inkscape:pageopacity="0"
     guidetolerance="10"
     gridtolerance="10"
     objecttolerance="10"
     borderopacity="1"
     inkscape:document-rotation="0"
     bordercolor="#666666"
     pagecolor="#ffffff" />
  <path
     style="fill:#212121;opacity:1;fill-opacity:1"
     id="path1522"
     d="m48 160h32v16h-32zm0 0" />
  <path
     style="fill:#212121;opacity:1;fill-opacity:1"
     id="path1524"
     d="m472 128c13.230469 0 24-10.769531 24-24v-80c0-13.230469-10.769531-24-24-24h-112c-13.230469 0-24 10.769531-24 24v80c0 13.230469 10.769531 24 24 24h24v16h-16v16h40v80h-33.015625c-6.382813-6.230469-14.242187-11-23.039063-13.625.039063-.808594.054688-1.589844.054688-2.375 0-35.289062-28.710938-64-64-64-21.894531 0-42.246094 11.390625-53.902344 29.609375-8.210937-3.6875-17.089844-5.609375-26.097656-5.609375-26.550781 0-50.457031 16.734375-59.808594 41.28125-6.078125 1.304688-11.742187 3.640625-16.886718 6.71875h-59.304688v-24h32c13.230469 0 24-10.769531 24-24v-160c0-13.230469-10.769531-24-24-24h-80c-13.230469 0-24 10.769531-24 24v160c0 13.230469 10.769531 24 24 24h32v40h58.289062c-3.402343 4.855469-6.042968 10.214844-7.777343 16h-34.511719v88h-32c-13.230469 0-24 10.769531-24 24v72h-16v24c0 13.230469 10.769531 24 24 24h128c13.230469 0 24-10.769531 24-24v-24h-16v-72c0-13.230469-10.769531-24-24-24h-48v-72h16c0 30.871094 25.128906 56 56 56h176c28.152344 0 51.457031-20.910156 55.359375-48h32.640625v64h-56v144h128v-144h-56v-80h-48.671875c-.832031-5.632812-2.558594-10.992188-4.976563-16h37.648438v-96h40v-16h-16v-16zm-360 0h-96v-80h96zm-88-112h80c4.414062 0 8 3.585938 8 8v8h-96v-8c0-4.414062 3.585938-8 8-8zm-8 168v-40h96v40c0 4.414062-3.585938 8-8 8h-80c-4.414062 0-8-3.585938-8-8zm144 288c0 4.414062-3.585938 8-8 8h-128c-4.414062 0-8-3.585938-8-8v-8h144zm-16-96v72h-112v-72c0-4.414062 3.585938-8 8-8h96c4.414062 0 8 3.585938 8 8zm240 104v-48h96v48zm96-64h-96v-48h96zm-144-96h-176c-22.054688 0-40-17.945312-40-40 0-20.222656 15.136719-37.28125 35.199219-39.679688l5.25-.632812 1.480469-5.078125c5.917968-20.378906 24.871093-34.609375 46.070312-34.609375 8.832031 0 17.503906 2.480469 25.105469 7.160156l7.636719 4.710938 3.808593-8.136719c7.875-16.855469 24.929688-27.734375 43.449219-27.734375 26.472656 0 48 21.527344 48 48 0 2.207031-.199219 4.558594-.632812 7.398438l-1.207032 7.914062 7.910156 1.199219c19.34375 2.953125 33.929688 19.929687 33.929688 39.488281 0 22.054688-17.945312 40-40 40zm24-304h112c4.414062 0 8 3.585938 8 8v56h-128v-56c0-4.414062 3.585938-8 8-8zm-8 88v-8h128v8c0 4.414062-3.585938 8-8 8h-112c-4.414062 0-8-3.585938-8-8zm80 40h-32v-16h32zm0 0" />
  <path
     style="fill:#212121;opacity:1;fill-opacity:1"
     id="path1526"
     d="m400 384h16v16h-16zm0 0" />
  <path
     style="fill:#212121;opacity:1;fill-opacity:1"
     id="path1528"
     d="m448 448h16v16h-16zm0 0" />
  <path
     style="fill:#212121;opacity:1;fill-opacity:1"
     id="path1530"
     d="m432 384h32v16h-32zm0 0" />
  <path
     style="fill:#212121;opacity:1;fill-opacity:1"
     id="path1532"
     d="m400 448h32v16h-32zm0 0" />
</svg>
