<?xml version="1.0" encoding="UTF-8" standalone="no"?>
<svg
   xmlns:dc="http://purl.org/dc/elements/1.1/"
   xmlns:cc="http://creativecommons.org/ns#"
   xmlns:rdf="http://www.w3.org/1999/02/22-rdf-syntax-ns#"
   xmlns:svg="http://www.w3.org/2000/svg"
   xmlns="http://www.w3.org/2000/svg"
   xmlns:sodipodi="http://sodipodi.sourceforge.net/DTD/sodipodi-0.dtd"
   xmlns:inkscape="http://www.inkscape.org/namespaces/inkscape"
   inkscape:version="1.0beta2 (2b71d25, 2019-12-03)"
   sodipodi:docname="profession.svg"
   id="svg2153"
   version="1.1"
   width="480pt"
   viewBox="0 0 480 480"
   height="480pt">
  <metadata
     id="metadata2159">
    <rdf:RDF>
      <cc:Work
         rdf:about="">
        <dc:format>image/svg+xml</dc:format>
        <dc:type
           rdf:resource="http://purl.org/dc/dcmitype/StillImage" />
      </cc:Work>
    </rdf:RDF>
  </metadata>
  <defs
     id="defs2157" />
  <sodipodi:namedview
     inkscape:current-layer="svg2153"
     inkscape:window-maximized="0"
     inkscape:window-y="23"
     inkscape:window-x="0"
     inkscape:cy="320"
     inkscape:cx="98.853503"
     inkscape:zoom="0.490625"
     showgrid="false"
     id="namedview2155"
     inkscape:window-height="1035"
     inkscape:window-width="1920"
     inkscape:pageshadow="2"
     inkscape:pageopacity="0"
     guidetolerance="10"
     gridtolerance="10"
     objecttolerance="10"
     borderopacity="1"
     inkscape:document-rotation="0"
     bordercolor="#666666"
     pagecolor="#ffffff" />
  <path
     style="fill:#212121;fill-opacity:1;opacity:1"
     id="path2127"
     d="m152 320h-80c-39.746094.042969-71.9570312 32.253906-72 72v80c0 4.417969 3.582031 8 8 8h208c4.417969 0 8-3.582031 8-8v-80c-.042969-39.746094-32.253906-71.957031-72-72zm-1.472656 54.3125-23.449219-3.914062 19.546875-23.460938zm-15.617188-38.3125-22.910156 27.496094-22.910156-27.496094zm-57.535156 10.945312 19.546875 23.453126-23.449219 3.90625zm-61.375 45.054688c.050781-27.292969 19.75-50.578125 46.65625-55.152344l-6.578125 46.015625c-.359375 2.527344.503906 5.070313 2.328125 6.855469 1.824219 1.78125 4.390625 2.585938 6.90625 2.167969l38.6875-6.445313v78.558594h-48v-72h-16v72h-24zm192 72h-24v-72h-16v72h-48v-78.558594l38.6875 6.445313c2.515625.417969 5.082031-.386719 6.90625-2.167969 1.824219-1.785156 2.6875-4.328125 2.328125-6.855469l-6.578125-46.015625c26.90625 4.570313 46.609375 27.859375 46.65625 55.152344zm0 0" />
  <path
     style="fill:#212121;fill-opacity:1;opacity:1"
     id="path2129"
     d="m168 264v-24c4.417969 0 8-3.582031 8-8 0-35.347656-28.652344-64-64-64s-64 28.652344-64 64c0 4.417969 3.582031 8 8 8v24c0 30.929688 25.070312 56 56 56s56-25.070312 56-56zm-56-80c22.867188.03125 42.550781 16.160156 47.070312 38.574219-9.820312-3.8125-18.3125-10.421875-24.414062-19.015625-1.328125-1.992188-3.480469-3.28125-5.863281-3.519532-.273438 0-.535157 0-.800781 0-2.121094 0-4.15625.84375-5.65625 2.34375-8.734376 8.707032-36.558594 16.175782-57.375 20.015626 4.589843-22.332032 24.238281-38.371094 47.039062-38.398438zm0 120c-22.082031-.027344-39.972656-17.917969-40-40l-.054688-26.632812c19.097657-3.117188 37.574219-9.285157 54.71875-18.261719 6.929688 7.855469 15.605469 13.972656 25.335938 17.855469v27.039062c-.027344 22.082031-17.917969 39.972656-40 40zm0 0" />
  <path
     style="fill:#212121;fill-opacity:1;opacity:1"
     id="path2131"
     d="m400 240h-16c-.09375 79.492188-64.507812 143.90625-144 144v16c88.324219-.101562 159.898438-71.675781 160-160zm0 0" />
  <path
     style="fill:#212121;fill-opacity:1;opacity:1"
     id="path2133"
     d="m240 80c-52.003906.054688-100.75 25.320312-130.769531 67.785156l13.066406 9.230469c27.019531-38.21875 70.898437-60.960937 117.703125-61.015625zm0 0" />
  <path
     style="fill:#212121;fill-opacity:1;opacity:1"
     id="path2135"
     d="m240 416v16c105.988281-.125 191.875-86.011719 192-192h-16c-.109375 97.15625-78.84375 175.890625-176 176zm0 0" />
  <path
     style="fill:#212121;fill-opacity:1;opacity:1"
     id="path2137"
     d="m240 64v-16c-73.652344.265625-140.746094 42.386719-172.992188 108.609375l14.398438 6.949219c29.5625-60.707032 91.070312-99.320313 158.59375-99.558594zm0 0" />
  <path
     style="fill:#212121;fill-opacity:1;opacity:1"
     id="path2139"
     d="m288 24h16v16h-16zm0 0" />
  <path
     style="fill:#212121;fill-opacity:1;opacity:1"
     id="path2141"
     d="m312 24h16v16h-16zm0 0" />
  <path
     style="fill:#212121;fill-opacity:1;opacity:1"
     id="path2143"
     d="m336 24h16v16h-16zm0 0" />
  <path
     style="fill:#212121;fill-opacity:1;opacity:1"
     id="path2145"
     d="m456 0h-176c-13.253906 0-24 10.746094-24 24v176c0 13.253906 10.746094 24 24 24h176c13.253906 0 24-10.746094 24-24v-176c0-13.253906-10.746094-24-24-24zm-176 16h176c4.417969 0 8 3.582031 8 8v24h-192v-24c0-4.417969 3.582031-8 8-8zm176 192h-176c-4.417969 0-8-3.582031-8-8v-136h192v136c0 4.417969-3.582031 8-8 8zm0 0" />
  <path
     style="fill:#212121;fill-opacity:1;opacity:1"
     id="path2147"
     d="m330.34375 98.34375-24 24c-3.121094 3.125-3.121094 8.1875 0 11.3125l24 24 11.3125-11.3125-18.34375-18.34375 18.34375-18.34375zm0 0" />
  <path
     style="fill:#212121;fill-opacity:1;opacity:1"
     id="path2149"
     d="m405.65625 98.34375-11.3125 11.3125 18.34375 18.34375-18.34375 18.34375 11.3125 11.3125 24-24c3.121094-3.125 3.121094-8.1875 0-11.3125zm0 0" />
  <path
     style="fill:#212121;fill-opacity:1;opacity:1"
     id="path2151"
     d="m344.585938 165.035156 31.96875-80.007812 14.859374 5.933594-31.972656 80.011718zm0 0" />
</svg>
