<?xml version="1.0" encoding="UTF-8" standalone="no"?>
<!-- Generator: Adobe Illustrator 19.0.0, SVG Export Plug-In . SVG Version: 6.00 Build 0)  -->

<svg
   xmlns:dc="http://purl.org/dc/elements/1.1/"
   xmlns:cc="http://creativecommons.org/ns#"
   xmlns:rdf="http://www.w3.org/1999/02/22-rdf-syntax-ns#"
   xmlns:svg="http://www.w3.org/2000/svg"
   xmlns="http://www.w3.org/2000/svg"
   xmlns:sodipodi="http://sodipodi.sourceforge.net/DTD/sodipodi-0.dtd"
   xmlns:inkscape="http://www.inkscape.org/namespaces/inkscape"
   version="1.1"
   id="Layer_1"
   x="0px"
   y="0px"
   viewBox="0 0 512.015 512.015"
   style="enable-background:new 0 0 512.015 512.015;"
   xml:space="preserve"
   sodipodi:docname="didactische-werkvormen.svg"
   inkscape:version="0.92.4 (5da689c313, 2019-01-14)"><metadata
   id="metadata55"><rdf:RDF><cc:Work
       rdf:about=""><dc:format>image/svg+xml</dc:format><dc:type
         rdf:resource="http://purl.org/dc/dcmitype/StillImage" /></cc:Work></rdf:RDF></metadata><defs
   id="defs53" /><sodipodi:namedview
   pagecolor="#ffffff"
   bordercolor="#666666"
   borderopacity="1"
   objecttolerance="10"
   gridtolerance="10"
   guidetolerance="10"
   inkscape:pageopacity="0"
   inkscape:pageshadow="2"
   inkscape:window-width="1850"
   inkscape:window-height="1016"
   id="namedview51"
   showgrid="false"
   inkscape:zoom="0.16296124"
   inkscape:cx="2704.9507"
   inkscape:cy="797.5177"
   inkscape:window-x="70"
   inkscape:window-y="27"
   inkscape:window-maximized="1"
   inkscape:current-layer="Layer_1" />
<g
   id="g6"
   style="fill:#212121;fill-opacity:1">
	<g
   id="g4"
   style="fill:#212121;fill-opacity:1">
		<path
   d="m 102.409,0 c -42.351,0.009 -76.8,34.458 -76.8,76.809 0,42.351 34.449,76.792 76.8,76.792 42.351,0 76.8,-34.449 76.8,-76.8 C 179.209,34.449 144.76,0 102.409,0 Z m 0,138.009 c -30.196634,0 -61.2,-24.09988 -61.2,-61.2 0,-34.031902 26.017518,-61.2 61.2,-61.2 34.0319,0 61.2,26.784571 61.2,61.2 0,30.58016 -27.93415,61.2 -61.2,61.2 z"
   id="path2"
   style="fill:#212121;fill-opacity:1"
   inkscape:connector-curvature="0"
   sodipodi:nodetypes="cssscsssss" />
	</g>
</g>
<g
   id="g12"
   style="fill:#212121;fill-opacity:1">
	<g
   id="g10"
   style="fill:#212121;fill-opacity:1">
		<path
   d="m 486.409,128 h -256 c -14.14,0 -25.6,11.46 -25.6,25.6 v 19.55 l 15.6,12.8 V 143.6 h 276 v 224.791 h -276 v -40.43 l -15.6,-6.391 v 36.821 c 0,14.14 11.46,25.6 25.6,25.6 h 105.404 l 45.2,-0.016 h 105.395 c 14.14,0 25.6,-11.46 25.6,-25.6 V 153.6 C 512.009,139.46 500.549,128 486.409,128 Z"
   id="path8"
   style="fill:#212121;fill-opacity:1"
   inkscape:connector-curvature="0"
   sodipodi:nodetypes="sssccccccccssccsscs" />
	</g>
</g>
<g
   id="g18"
   style="fill:#212121;fill-opacity:1">
	<g
   id="g16"
   style="fill:#212121;fill-opacity:1">
		<path
   d="m 445.506,197.276 c -1.929,-6.801 -7.003,-6.803 -13.821,-4.772 l -157.961,45.133 c -1.843,-1.783 -3.908,-3.345 -6.263,-4.531 l -102.4,-51.2 c -3.558,-1.775 -7.475,-2.705 -11.452,-2.705 h -102.4 c -12.373,0 -22.972,8.849 -25.19,21.018 L 0.419,341.01 c -1.357,7.467 0.666,15.155 5.53,20.983 4.864,5.828 15.190353,7.199 19.661,7.199 h 16.358 l 9.327,119.222 c 1.058,13.312 12.16,23.569 25.515,23.569 h 51.2 c 13.047,0 24.004,-9.805 25.446,-22.767 l 22.366,-201.276 73.984,16.492 c 2.048,0.512 4.13,0.759 6.204,0.759 5.649,0 9.204,0.131 13.753,-3.419 6.212,-4.847 7.04671,-12.33772 7.847,-20.181 V 255.99 l 161.124,-46.894 c 6.801,-1.928 8.726,-5.028 6.772,-11.82 z M 262.009,291.6 161.609,268 l -25.6,230.392 h -69.2 L 55.613,355.592 H 13.609 l 29.6,-158.791 h 38.4 l 15.6,-10e-4 h 56.4 l 110.4,51.2 z"
   id="path14"
   style="fill:#212121;fill-opacity:1"
   inkscape:connector-curvature="0"
   sodipodi:nodetypes="cccccssccssccsscccscsccccccccccccccc" />
	</g>
</g>
<g
   id="g20">
</g>
<g
   id="g22">
</g>
<g
   id="g24">
</g>
<g
   id="g26">
</g>
<g
   id="g28">
</g>
<g
   id="g30">
</g>
<g
   id="g32">
</g>
<g
   id="g34">
</g>
<g
   id="g36">
</g>
<g
   id="g38">
</g>
<g
   id="g40">
</g>
<g
   id="g42">
</g>
<g
   id="g44">
</g>
<g
   id="g46">
</g>
<g
   id="g48">
</g>
</svg>