<?xml version="1.0" encoding="UTF-8" standalone="no"?>
<svg
   xmlns:dc="http://purl.org/dc/elements/1.1/"
   xmlns:cc="http://creativecommons.org/ns#"
   xmlns:rdf="http://www.w3.org/1999/02/22-rdf-syntax-ns#"
   xmlns:svg="http://www.w3.org/2000/svg"
   xmlns="http://www.w3.org/2000/svg"
   xmlns:sodipodi="http://sodipodi.sourceforge.net/DTD/sodipodi-0.dtd"
   xmlns:inkscape="http://www.inkscape.org/namespaces/inkscape"
   inkscape:version="1.0beta2 (2b71d25, 2019-12-03)"
   sodipodi:docname="conversation.svg"
   xml:space="preserve"
   style="enable-background:new 0 0 512.003 512.003;"
   viewBox="0 0 512.003 512.003"
   y="0px"
   x="0px"
   id="Layer_1"
   version="1.1"><metadata
   id="metadata882"><rdf:RDF><cc:Work
       rdf:about=""><dc:format>image/svg+xml</dc:format><dc:type
         rdf:resource="http://purl.org/dc/dcmitype/StillImage" /></cc:Work></rdf:RDF></metadata><defs
   id="defs880" /><sodipodi:namedview
   inkscape:current-layer="Layer_1"
   inkscape:window-maximized="0"
   inkscape:window-y="23"
   inkscape:window-x="1440"
   inkscape:cy="256.0015"
   inkscape:cx="256.0015"
   inkscape:zoom="1.3456953"
   showgrid="false"
   id="namedview878"
   inkscape:window-height="1035"
   inkscape:window-width="1920"
   inkscape:pageshadow="2"
   inkscape:pageopacity="0"
   guidetolerance="10"
   gridtolerance="10"
   objecttolerance="10"
   borderopacity="1"
   inkscape:document-rotation="0"
   bordercolor="#666666"
   pagecolor="#ffffff" />
<g
   style="fill:#212121;fill-opacity:1"
   id="g845">
	<g
   style="fill:#212121;fill-opacity:1"
   id="g843">
		<g
   style="fill:#212121;fill-opacity:1"
   id="g841">
			<path
   style="fill:#212121;fill-opacity:1"
   id="path833"
   d="M337.07,0.002c-96.461,0-174.933,70.758-174.933,157.722c0,8.53,0.783,16.979,2.272,25.29     c-8.371-2.441-17.136-3.725-26.25-3.812c-44.595,0.427-76.049,30.234-87.433,59.588c-5,12.868-7.927,27.887-8.96,45.918     c-2.79,48.93-23.586,88.337-34.756,109.517l-1.869,3.55c-1.809,3.456-2.193,7.595-1.169,12.672     c3.302,16.247,18.671,24.755,32.154,24.755H72.69c-10.377,13.406-24.747,30.49-33.818,36.045     c-1.835,1.126-3.849,2.313-5.948,3.55c-10.351,6.101-23.236,13.705-31.019,23.296c-2.074,2.56-2.492,6.076-1.075,9.045     c1.417,2.97,4.412,4.864,7.706,4.864h256c3.294,0,6.289-1.894,7.706-4.864c1.417-2.97,0.998-6.485-1.075-9.045     c-8.917-10.991-21.965-19.738-33.562-26.846c-9.062-5.555-23.433-22.647-33.801-36.045h36.557     c13.483,0,28.851-8.508,32.154-24.755c1.024-5.077,0.649-9.225-1.161-12.655l-1.784-3.388     c-8.903-16.894-23.444-44.464-30.712-79.163c9.604-3.633,19.246-7.927,28.169-12.972c22.144,8.738,45.687,13.167,70.042,13.167     c96.461,0,174.933-70.75,174.933-157.713S433.531,0.002,337.07,0.002z M254.476,402.365l1.519,2.688     c0,0.009,0.077,0.589-0.205,1.997c-1.468,7.202-9.037,11.085-15.428,11.085h-53.538c-3.191,0-6.118,1.775-7.586,4.617     c-1.459,2.825-1.229,6.238,0.614,8.849c3.098,4.378,30.822,43.162,48.836,54.195c4.548,2.79,9.327,5.837,13.875,9.139H32.566     c3.072-1.929,6.161-3.738,9.028-5.436c2.193-1.289,4.284-2.526,6.204-3.703c18.005-11.034,45.73-49.818,48.836-54.195     c1.843-2.611,2.082-6.016,0.614-8.849c-1.468-2.842-4.395-4.617-7.578-4.617H36.125c-6.391,0-13.961-3.883-15.428-11.085     c-0.213-1.067-0.29-1.562-0.307-1.604l1.715-3.26c11.776-22.323,33.707-63.872,36.702-116.497     c0.93-16.222,3.482-29.542,7.825-40.721c9.301-23.987,35.081-48.35,71.526-48.7c11.078,0.107,21.602,2.388,31.341,6.771     c4.579,13.773,11.241,26.971,19.91,39.249c-3.396,36.335-12.16,63.181-24.772,75.802c-2.594,2.594-3.243,6.554-1.604,9.839     c1.459,2.918,4.437,4.727,7.637,4.727c0.393,0,0.785-0.026,1.186-0.085c1.501-0.209,24.23-3.482,50.751-11.747     C230.475,356.836,245.308,384.987,254.476,402.365z M337.07,298.37c-17.682,0-34.877-2.554-51.318-7.613     c19.73-12.471,19.747-13.739,19.718-18.272c-0.017-2.978-1.621-5.794-4.181-7.322c-3.755-2.253-8.525-1.28-11.128,2.082     c-3.507,2.679-16.896,11.247-28.279,18.27c-0.006,0.004-0.011,0.008-0.016,0.011c-10.718,6.462-23.018,11.715-35.075,15.917     c-0.312,0.087-0.614,0.193-0.909,0.312c-13.282,4.575-26.212,7.879-36.336,10.114c10.743-21.103,15.275-48.998,17.152-71.279     c0.171-2.057-0.41-4.113-1.638-5.777c-8.997-12.197-15.714-25.456-20.053-39.329c-0.129-0.726-0.348-1.431-0.658-2.099     c-3.398-11.558-5.145-23.527-5.145-35.662c0-77.56,70.818-140.655,157.867-140.655s157.867,63.095,157.867,140.655     C494.936,235.274,424.118,298.37,337.07,298.37z" />
			<path
   style="fill:#212121;fill-opacity:1"
   id="path835"
   d="M273.07,128.002h-17.067c-9.412,0-17.067,7.654-17.067,17.067v17.067c0,9.412,7.654,17.067,17.067,17.067h17.067     c9.412,0,17.067-7.654,17.067-17.067v-17.067C290.137,135.656,282.482,128.002,273.07,128.002z M256.003,162.135v-17.067h17.067     l0.009,17.067H256.003z" />
			<path
   style="fill:#212121;fill-opacity:1"
   id="path837"
   d="M341.336,128.002H324.27c-9.412,0-17.067,7.654-17.067,17.067v17.067c0,9.412,7.654,17.067,17.067,17.067h17.067     c9.412,0,17.067-7.654,17.067-17.067v-17.067C358.403,135.656,350.749,128.002,341.336,128.002z M324.27,162.135v-17.067h17.067     l0.009,17.067H324.27z" />
			<path
   style="fill:#212121;fill-opacity:1"
   id="path839"
   d="M409.603,128.002h-17.067c-9.412,0-17.067,7.654-17.067,17.067v17.067c0,9.412,7.654,17.067,17.067,17.067h17.067     c9.412,0,17.067-7.654,17.067-17.067v-17.067C426.67,135.656,419.015,128.002,409.603,128.002z M392.536,162.135v-17.067h17.067     l0.008,17.067H392.536z" />
		</g>
	</g>
</g>
<g
   id="g847">
</g>
<g
   id="g849">
</g>
<g
   id="g851">
</g>
<g
   id="g853">
</g>
<g
   id="g855">
</g>
<g
   id="g857">
</g>
<g
   id="g859">
</g>
<g
   id="g861">
</g>
<g
   id="g863">
</g>
<g
   id="g865">
</g>
<g
   id="g867">
</g>
<g
   id="g869">
</g>
<g
   id="g871">
</g>
<g
   id="g873">
</g>
<g
   id="g875">
</g>
</svg>
