<?xml version="1.0" encoding="UTF-8" standalone="no"?>
<svg
   xmlns:dc="http://purl.org/dc/elements/1.1/"
   xmlns:cc="http://creativecommons.org/ns#"
   xmlns:rdf="http://www.w3.org/1999/02/22-rdf-syntax-ns#"
   xmlns:svg="http://www.w3.org/2000/svg"
   xmlns="http://www.w3.org/2000/svg"
   xmlns:sodipodi="http://sodipodi.sourceforge.net/DTD/sodipodi-0.dtd"
   xmlns:inkscape="http://www.inkscape.org/namespaces/inkscape"
   inkscape:version="1.0beta2 (2b71d25, 2019-12-03)"
   sodipodi:docname="english.svg"
   xml:space="preserve"
   style="enable-background:new 0 0 496 496;"
   viewBox="0 0 496 496"
   y="0px"
   x="0px"
   id="Capa_1"
   version="1.1"><metadata
   id="metadata1589"><rdf:RDF><cc:Work
       rdf:about=""><dc:format>image/svg+xml</dc:format><dc:type
         rdf:resource="http://purl.org/dc/dcmitype/StillImage" /></cc:Work></rdf:RDF></metadata><defs
   id="defs1587" /><sodipodi:namedview
   inkscape:current-layer="Capa_1"
   inkscape:window-maximized="1"
   inkscape:window-y="23"
   inkscape:window-x="1440"
   inkscape:cy="248"
   inkscape:cx="76.611465"
   inkscape:zoom="0.63306452"
   showgrid="false"
   id="namedview1585"
   inkscape:window-height="1035"
   inkscape:window-width="1920"
   inkscape:pageshadow="2"
   inkscape:pageopacity="0"
   guidetolerance="10"
   gridtolerance="10"
   objecttolerance="10"
   borderopacity="1"
   inkscape:document-rotation="0"
   bordercolor="#666666"
   pagecolor="#ffffff" />
<g
   style="fill:#212121;fill-opacity:1"
   id="g1492">
	<g
   style="fill:#212121;fill-opacity:1"
   id="g1490">
		<path
   style="fill:#212121;fill-opacity:1"
   id="path1488"
   d="M217.528,96h-14.4L183.44,32h-27.824l-19.688,64h-14.4v16h9.48l-9.128,29.648l15.288,4.704L147.744,112h43.568    l10.568,34.352l15.288-4.704L208.048,112h9.48V96z M152.664,96l14.776-48h4.176l14.768,48H152.664z" />
	</g>
</g>
<g
   style="fill:#212121;fill-opacity:1"
   id="g1498">
	<g
   style="fill:#212121;fill-opacity:1"
   id="g1496">
		<path
   style="fill:#212121;fill-opacity:1"
   id="path1494"
   d="M294.672,88c6.656-5.864,10.856-14.456,10.856-24c0-17.648-14.352-32-32-32h-32v112h32c17.648,0,32-14.352,32-32    C305.528,102.456,301.328,93.864,294.672,88z M273.528,128h-16V96h16c8.824,0,16,7.176,16,16S282.352,128,273.528,128z     M273.528,80h-16V48h16c8.824,0,16,7.176,16,16S282.352,80,273.528,80z" />
	</g>
</g>
<g
   style="fill:#212121;fill-opacity:1"
   id="g1504">
	<g
   style="fill:#212121;fill-opacity:1"
   id="g1502">
		<path
   style="fill:#212121;fill-opacity:1"
   id="path1500"
   d="M377.528,48V32c-30.88,0-56,25.12-56,56s25.12,56,56,56v-16c-22.056,0-40-17.944-40-40    C337.528,65.944,355.472,48,377.528,48z" />
	</g>
</g>
<g
   style="fill:#212121;fill-opacity:1"
   id="g1510">
	<g
   style="fill:#212121;fill-opacity:1"
   id="g1508">
		<path
   style="fill:#212121;fill-opacity:1"
   id="path1506"
   d="M97.528,160v144h304V160H97.528z M385.528,288h-272V176h272V288z" />
	</g>
</g>
<g
   style="fill:#212121;fill-opacity:1"
   id="g1516">
	<g
   style="fill:#212121;fill-opacity:1"
   id="g1514">
		<rect
   style="fill:#212121;fill-opacity:1"
   id="rect1512"
   height="16"
   width="288"
   y="320"
   x="105.528" />
	</g>
</g>
<g
   style="fill:#212121;fill-opacity:1"
   id="g1522">
	<g
   style="fill:#212121;fill-opacity:1"
   id="g1520">
		<rect
   style="fill:#212121;fill-opacity:1"
   id="rect1518"
   height="16"
   width="288"
   y="352"
   x="105.528" />
	</g>
</g>
<g
   style="fill:#212121;fill-opacity:1"
   id="g1528">
	<g
   style="fill:#212121;fill-opacity:1"
   id="g1526">
		<rect
   style="fill:#212121;fill-opacity:1"
   id="rect1524"
   height="16"
   width="16"
   y="384"
   x="377.528" />
	</g>
</g>
<g
   style="fill:#212121;fill-opacity:1"
   id="g1534">
	<g
   style="fill:#212121;fill-opacity:1"
   id="g1532">
		<rect
   style="fill:#212121;fill-opacity:1"
   id="rect1530"
   height="16"
   width="256"
   y="384"
   x="105.528" />
	</g>
</g>
<g
   style="fill:#212121;fill-opacity:1"
   id="g1540">
	<g
   style="fill:#212121;fill-opacity:1"
   id="g1538">
		<path
   style="fill:#212121;fill-opacity:1"
   id="path1536"
   d="M494.472,32h-60.944V0h-392c-22.056,0-40,17.944-40,40v416c0,22.056,17.944,40,40,40h368h24v-16h-24    c-13.232,0-24-10.768-24-24s10.768-24,24-24h16h8V112h60.944l-20-40L494.472,32z M377.736,480H41.528c-13.232,0-24-10.768-24-24    s10.768-24,24-24h336.208c-5.08,6.704-8.208,14.96-8.208,24C369.528,465.04,372.656,473.296,377.736,480z M417.528,416h-8h-328    v-32h-16v32h-24c-9,0-17.312,2.992-24,8.016V40c0-13.232,10.768-24,24-24h24v352h16V16h336V416z M468.584,96h-35.056V48h35.056    l-12,24L468.584,96z" />
	</g>
</g>
<g
   style="fill:#212121;fill-opacity:1"
   id="g1546">
	<g
   style="fill:#212121;fill-opacity:1"
   id="g1544">
		<rect
   style="fill:#212121;fill-opacity:1"
   id="rect1542"
   height="16"
   width="288"
   y="448"
   x="65.528" />
	</g>
</g>
<g
   style="fill:#212121;fill-opacity:1"
   id="g1552">
	<g
   style="fill:#212121;fill-opacity:1"
   id="g1550">
		<rect
   style="fill:#212121;fill-opacity:1"
   id="rect1548"
   height="16"
   width="16"
   y="448"
   x="33.528" />
	</g>
</g>
<g
   id="g1554">
</g>
<g
   id="g1556">
</g>
<g
   id="g1558">
</g>
<g
   id="g1560">
</g>
<g
   id="g1562">
</g>
<g
   id="g1564">
</g>
<g
   id="g1566">
</g>
<g
   id="g1568">
</g>
<g
   id="g1570">
</g>
<g
   id="g1572">
</g>
<g
   id="g1574">
</g>
<g
   id="g1576">
</g>
<g
   id="g1578">
</g>
<g
   id="g1580">
</g>
<g
   id="g1582">
</g>
</svg>
