<?xml version="1.0" encoding="UTF-8" standalone="no"?>
<!-- Generator: Adobe Illustrator 19.0.0, SVG Export Plug-In . SVG Version: 6.00 Build 0)  -->

<svg
   xmlns:dc="http://purl.org/dc/elements/1.1/"
   xmlns:cc="http://creativecommons.org/ns#"
   xmlns:rdf="http://www.w3.org/1999/02/22-rdf-syntax-ns#"
   xmlns:svg="http://www.w3.org/2000/svg"
   xmlns="http://www.w3.org/2000/svg"
   xmlns:sodipodi="http://sodipodi.sourceforge.net/DTD/sodipodi-0.dtd"
   xmlns:inkscape="http://www.inkscape.org/namespaces/inkscape"
   version="1.1"
   id="Layer_1"
   x="0px"
   y="0px"
   viewBox="0 0 492 492"
   style="enable-background:new 0 0 492 492;"
   xml:space="preserve"
   sodipodi:docname="breuken.svg"
   inkscape:version="0.92.4 (5da689c313, 2019-01-14)"><metadata
   id="metadata73"><rdf:RDF><cc:Work
       rdf:about=""><dc:format>image/svg+xml</dc:format><dc:type
         rdf:resource="http://purl.org/dc/dcmitype/StillImage" /></cc:Work></rdf:RDF></metadata><defs
   id="defs71" /><sodipodi:namedview
   pagecolor="#ffffff"
   bordercolor="#666666"
   borderopacity="1"
   objecttolerance="10"
   gridtolerance="10"
   guidetolerance="10"
   inkscape:pageopacity="0"
   inkscape:pageshadow="2"
   inkscape:window-width="1850"
   inkscape:window-height="1016"
   id="namedview69"
   showgrid="false"
   inkscape:zoom="0.4796748"
   inkscape:cx="222.77425"
   inkscape:cy="63.481104"
   inkscape:window-x="70"
   inkscape:window-y="27"
   inkscape:window-maximized="1"
   inkscape:current-layer="Layer_1" />
<g
   id="g36"
   style="fill:#212121;fill-opacity:1">
	<g
   id="g34"
   style="fill:#212121;fill-opacity:1">
		<g
   id="XMLID_1292_"
   style="fill:#212121;fill-opacity:1">
			<path
   id="XMLID_1296_"
   style="fill:none;fill-opacity:1"
   d="M292.9,10.5v190H317h39.2H483c0-48.2-18-92.3-47.6-125.8     C400.5,35.3,349.6,10.5,292.9,10.5z" />
		</g>
		<path
   d="M492,200.5c0-48.6-17.7-95.4-49.9-131.8C404.4,26,350,1.4,292.9,1.4c-5,0-9.1,4.1-9.1,9.1v190c0,5,4.1,9.1,9.1,9.1h190    C488,209.6,492,205.5,492,200.5z M302,191.5V19.8c48.5,2.4,94.2,24.3,126.6,61c27.2,30.8,43,69.8,45.1,110.7H302z"
   id="path4"
   style="fill:#212121;fill-opacity:1" />
		<path
   d="M436.9,272.1c0-5-4.1-9.1-9.1-9.1s-9.1,4.1-9.1,9.1c0,110.5-89.9,200.3-200.3,200.3c-110.5,0-200.3-89.9-200.3-200.3    S108,71.8,218.4,71.8c5,0,9.1-4.1,9.1-9.1s-4.1-9.1-9.1-9.1C98,53.7,0,151.7,0,272.1s98,218.5,218.5,218.5    S436.9,392.6,436.9,272.1z"
   id="path6"
   style="fill:#212121;fill-opacity:1" />
		<path
   d="M218.4,143.4c-5,0-9.1,4-9.1,9.1c0,5,4.1,9.1,9.1,9.1s9.1-4.1,9.1-9.1C227.5,147.4,223.5,143.4,218.4,143.4z"
   id="path8"
   style="fill:#212121;fill-opacity:1" />
		<path
   d="M218.4,83.6c-5,0-9.1,4-9.1,9.1c0,5,4.1,9,9.1,9s9.1-4.1,9.1-9C227.5,87.6,223.5,83.6,218.4,83.6z"
   id="path10"
   style="fill:#212121;fill-opacity:1" />
		<path
   d="M218.4,173.3c-5,0-9.1,4.1-9.1,9.1s4.1,9.1,9.1,9.1s9.1-4,9.1-9.1C227.5,177.4,223.5,173.3,218.4,173.3z"
   id="path12"
   style="fill:#212121;fill-opacity:1" />
		<path
   d="M218.4,113.5c-5,0-9.1,4.1-9.1,9.1s4.1,9.1,9.1,9.1s9.1-4.1,9.1-9.1C227.5,117.5,223.5,113.5,218.4,113.5z"
   id="path14"
   style="fill:#212121;fill-opacity:1" />
		<path
   d="M218.4,233.1c-5,0-9.1,4.1-9.1,9.1s4.1,9.1,9.1,9.1s9.1-4,9.1-9.1C227.5,237.2,223.5,233.1,218.4,233.1z"
   id="path16"
   style="fill:#212121;fill-opacity:1" />
		<path
   d="M218.4,203.2c-5,0-9.1,4-9.1,9.1c0,5,4.1,9.1,9.1,9.1s9.1-4.1,9.1-9.1S223.5,203.2,218.4,203.2z"
   id="path18"
   style="fill:#212121;fill-opacity:1" />
		<path
   d="M218.4,263c-2.4,0-4.7,1-6.4,2.7s-2.7,4-2.7,6.4s1,4.7,2.7,6.4c1.7,1.7,4,2.6,6.4,2.6s4.7-1,6.4-2.6    c1.7-1.7,2.7-4,2.7-6.4s-1-4.7-2.7-6.4C223.2,264,220.8,263,218.4,263z"
   id="path20"
   style="fill:#212121;fill-opacity:1" />
		<path
   d="M407,272.1c0-5-4-9.1-9.1-9.1c-5,0-9.1,4.1-9.1,9.1s4.1,9.1,9.1,9.1S407,277.1,407,272.1z"
   id="path22"
   style="fill:#212121;fill-opacity:1" />
		<path
   d="M287.3,272.1c0-5-4.1-9.1-9.1-9.1s-9.1,4.1-9.1,9.1s4,9.1,9.1,9.1S287.3,277.1,287.3,272.1z"
   id="path24"
   style="fill:#212121;fill-opacity:1" />
		<path
   d="M317.3,272.1c0-5-4.1-9.1-9.1-9.1s-9.1,4.1-9.1,9.1s4,9.1,9.1,9.1C313.2,281.2,317.3,277.1,317.3,272.1z"
   id="path26"
   style="fill:#212121;fill-opacity:1" />
		<path
   d="M347.2,272.1c0-5-4.1-9.1-9.1-9.1s-9.1,4.1-9.1,9.1s4,9.1,9.1,9.1C343.1,281.2,347.2,277.1,347.2,272.1z"
   id="path28"
   style="fill:#212121;fill-opacity:1" />
		<path
   d="M368,281.2c5,0,9.1-4,9.1-9.1c0-5-4.1-9.1-9.1-9.1s-9.1,4.1-9.1,9.1C359,277.1,363,281.2,368,281.2z"
   id="path30"
   style="fill:#212121;fill-opacity:1" />
		<path
   d="M257.4,272.1c0-5-4-9.1-9.1-9.1c-5,0-9.1,4.1-9.1,9.1s4.1,9.1,9.1,9.1C253.4,281.2,257.4,277.1,257.4,272.1z"
   id="path32"
   style="fill:#212121;fill-opacity:1" />
	</g>
</g>
<g
   id="g38">
</g>
<g
   id="g40">
</g>
<g
   id="g42">
</g>
<g
   id="g44">
</g>
<g
   id="g46">
</g>
<g
   id="g48">
</g>
<g
   id="g50">
</g>
<g
   id="g52">
</g>
<g
   id="g54">
</g>
<g
   id="g56">
</g>
<g
   id="g58">
</g>
<g
   id="g60">
</g>
<g
   id="g62">
</g>
<g
   id="g64">
</g>
<g
   id="g66">
</g>
</svg>