<?xml version="1.0" encoding="UTF-8" standalone="no"?>
<svg
   xmlns:dc="http://purl.org/dc/elements/1.1/"
   xmlns:cc="http://creativecommons.org/ns#"
   xmlns:rdf="http://www.w3.org/1999/02/22-rdf-syntax-ns#"
   xmlns:svg="http://www.w3.org/2000/svg"
   xmlns="http://www.w3.org/2000/svg"
   xmlns:sodipodi="http://sodipodi.sourceforge.net/DTD/sodipodi-0.dtd"
   xmlns:inkscape="http://www.inkscape.org/namespaces/inkscape"
   viewBox="0 0 511.99932 511"
   version="1.1"
   id="svg12"
   sodipodi:docname="meten-meetkunde.svg"
   inkscape:version="0.92.4 (5da689c313, 2019-01-14)">
  <metadata
     id="metadata18">
    <rdf:RDF>
      <cc:Work
         rdf:about="">
        <dc:format>image/svg+xml</dc:format>
        <dc:type
           rdf:resource="http://purl.org/dc/dcmitype/StillImage" />
      </cc:Work>
    </rdf:RDF>
  </metadata>
  <defs
     id="defs16" />
  <sodipodi:namedview
     pagecolor="#ffffff"
     bordercolor="#666666"
     borderopacity="1"
     objecttolerance="10"
     gridtolerance="10"
     guidetolerance="10"
     inkscape:pageopacity="0"
     inkscape:pageshadow="2"
     inkscape:window-width="925"
     inkscape:window-height="1016"
     id="namedview14"
     showgrid="false"
     inkscape:zoom="0.46183953"
     inkscape:cx="255.99966"
     inkscape:cy="255.5"
     inkscape:window-x="995"
     inkscape:window-y="27"
     inkscape:window-maximized="0"
     inkscape:current-layer="svg12" />
  <path
     d="m355.640625 234.929688c3.910156-3.902344 3.910156-10.242188 0-14.140626-3.902344-3.910156-10.230469-3.910156-14.140625 0-3.902344 3.898438-3.902344 10.238282 0 14.140626 3.910156 3.910156 10.238281 3.910156 14.140625 0zm0 0"
     id="path2"
     style="fill:#212121;stroke:none;stroke-opacity:1;fill-opacity:1" />
  <path
     d="m10 512.496094h492c4.042969 0 7.691406-2.433594 9.238281-6.171875s.691407-8.039063-2.167969-10.898438l-492-491.996093c-2.859374-2.863282-7.160156-3.714844-10.898437-2.167969-3.734375 1.546875-6.171875 5.191406-6.171875 9.238281v491.996094c0 5.523437 4.476562 10 10 10zm10-477.855469 80.4375 80.4375-21.21875 21.207031c-3.90625 3.90625-3.90625 10.238282 0 14.144532 3.898438 3.902343 10.234375 3.910156 14.140625 0l21.21875-21.210938 42.425781 42.429688-21.214844 21.207031c-3.90625 3.90625-3.90625 10.238281-.003906 14.144531 3.902344 3.902344 10.238282 3.910156 14.144532 0l21.21875-21.210938 42.421874 42.425782-21.210937 21.214844c-3.90625 3.902343-3.90625 10.234374 0 14.140624s10.234375 3.90625 14.140625 0l21.214844-21.214843 42.425781 42.429687-21.210937 21.214844c-3.90625 3.902344-3.90625 10.234375 0 14.140625s10.234374 3.90625 14.140624 0l21.214844-21.210937 42.425782 42.421874-21.210938 21.21875c-3.90625 3.90625-3.90625 10.238282 0 14.144532 3.90625 3.902344 10.238281 3.902344 14.144531-.003906l21.207031-21.214844 42.425782 42.425781-21.210938 21.21875c-3.902344 3.90625-3.902344 10.238281.003906 14.140625 3.902344 3.90625 10.238282 3.90625 14.144532 0l21.207031-21.21875 80.433594 80.433594h-457.855469zm0 0"
     id="path4"
     style="fill:#212121;stroke:none;stroke-opacity:1;fill-opacity:1" />
  <path
     d="m103.070312 208.417969c-2.859374-2.859375-7.160156-3.714844-10.898437-2.167969-3.734375 1.546875-6.171875 5.195312-6.171875 9.238281v201.007813c0 5.523437 4.476562 10 10 10h201.007812c4.046876 0 7.691407-2.433594 9.242188-6.171875 1.546875-3.734375.6875-8.039063-2.167969-10.898438zm2.929688 198.082031v-166.867188l166.867188 166.867188zm0 0"
     id="path6"
     style="fill:#212121;stroke:none;stroke-opacity:1;fill-opacity:1" />
  <path
     d="m313.21875 206.648438c3.90625 3.90625 10.234375 3.90625 14.144531 0 3.902344-3.902344 3.902344-10.234376 0-14.140626l-42.433593-42.429687c-3.902344-3.90625-10.234376-3.90625-14.140626 0-3.90625 3.902344-3.90625 10.234375 0 14.140625zm0 0"
     id="path8"
     style="fill:#212121;stroke:none;stroke-opacity:1;fill-opacity:1" />
  <path
     d="m151.796875 102.417969 280.703125 280.699219c11.71875 11.726562 30.703125 11.726562 42.429688 0l28.28125-28.277344c11.691406-11.691406 11.691406-30.726563 0-42.433594l-280.699219-280.699219c-1.097657-1.097656-2.4375-1.925781-3.910157-2.414062l-84.851562-28.28125c-3.589844-1.195313-7.554688-.261719-10.230469 2.417969-2.679687 2.675781-3.613281 6.636718-2.417969 10.230468l28.28125 84.851563c.492188 1.472656 1.316407 2.808593 2.414063 3.90625zm337.265625 224.128906c3.902344 3.902344 3.902344 10.253906.003906 14.148437l-28.277344 28.28125c-3.90625 3.90625-10.238281 3.910157-14.148437 0l-21.667969-21.667968 42.425782-42.429688zm-35.804688-35.808594-42.429687 42.429688-14.140625-14.144531 42.429688-42.421876zm-231.199218-231.199219 202.914062 202.914063-42.425781 42.429687-202.917969-202.917968zm-15.207032-13.082031-40.304687 40.300781-20.148437-60.449218zm0 0"
     id="path10"
     style="fill:#212121;stroke:none;stroke-opacity:1;fill-opacity:1" />
</svg>
