<?xml version="1.0" encoding="UTF-8" standalone="no"?>
<svg
   xmlns:dc="http://purl.org/dc/elements/1.1/"
   xmlns:cc="http://creativecommons.org/ns#"
   xmlns:rdf="http://www.w3.org/1999/02/22-rdf-syntax-ns#"
   xmlns:svg="http://www.w3.org/2000/svg"
   xmlns="http://www.w3.org/2000/svg"
   xmlns:sodipodi="http://sodipodi.sourceforge.net/DTD/sodipodi-0.dtd"
   xmlns:inkscape="http://www.inkscape.org/namespaces/inkscape"
   height="512pt"
   viewBox="0 -68 512.00003 512"
   width="512pt"
   version="1.1"
   id="svg20"
   sodipodi:docname="verhoudingen.svg"
   inkscape:version="0.92.4 (5da689c313, 2019-01-14)">
  <metadata
     id="metadata26">
    <rdf:RDF>
      <cc:Work
         rdf:about="">
        <dc:format>image/svg+xml</dc:format>
        <dc:type
           rdf:resource="http://purl.org/dc/dcmitype/StillImage" />
      </cc:Work>
    </rdf:RDF>
  </metadata>
  <defs
     id="defs24" />
  <sodipodi:namedview
     pagecolor="#ffffff"
     bordercolor="#666666"
     borderopacity="1"
     objecttolerance="10"
     gridtolerance="10"
     guidetolerance="10"
     inkscape:pageopacity="0"
     inkscape:pageshadow="2"
     inkscape:window-width="1850"
     inkscape:window-height="1016"
     id="namedview22"
     showgrid="false"
     inkscape:zoom="0.9777961"
     inkscape:cx="278.26604"
     inkscape:cy="255.8142"
     inkscape:window-x="70"
     inkscape:window-y="27"
     inkscape:window-maximized="1"
     inkscape:current-layer="svg20" />
  <path
     d="m469.332031 0h-426.664062c-23.554688.0273438-42.6406252 19.113281-42.667969 42.667969v290.132812c.0273438 23.550781 19.113281 42.636719 42.667969 42.664063h426.664062c23.554688-.027344 42.640625-19.113282 42.667969-42.664063v-290.132812c-.027344-23.554688-19.113281-42.6406252-42.667969-42.667969zm25.601563 332.800781c0 14.136719-11.460938 25.597657-25.601563 25.597657h-426.664062c-14.140625 0-25.601563-11.460938-25.601563-25.597657v-290.132812c0-14.140625 11.460938-25.601563 25.601563-25.601563h426.664062c14.140625 0 25.601563 11.460938 25.601563 25.601563zm0 0"
     id="path2"
     style="fill:#212121;fill-opacity:1" />
  <path
     d="m102.398438 34.132812h-42.664063c-1.734375.003907-3.464844.175782-5.164063.519532-1.644531.339844-3.253906.84375-4.804687 1.496094-4.558594 1.933593-8.460937 5.148437-11.238281 9.25-.933594 1.371093-1.730469 2.832031-2.378906 4.359374-.648438 1.542969-1.144532 3.140626-1.484376 4.777344-.355468 1.710938-.53125 3.453125-.53125 5.199219v42.664063c0 4.714843 3.820313 8.535156 8.535157 8.535156 4.710937 0 8.53125-3.820313 8.53125-8.535156v-42.664063c0-.589844.0625-1.175781.179687-1.75.109375-.535156.273438-1.058594.488282-1.5625.21875-.519531.492187-1.015625.808593-1.484375.308594-.457031.664063-.882812 1.058594-1.269531.382813-.378907.800781-.722657 1.246094-1.027344.460937-.304687.949219-.566406 1.460937-.785156.492188-.207031 1.007813-.367188 1.535156-.476563.578126-.121094 1.167969-.179687 1.757813-.179687h42.664063c4.714843 0 8.535156-3.820313 8.535156-8.53125 0-4.714844-3.820313-8.535157-8.535156-8.535157zm0 0"
     id="path4"
     style="fill:#212121;fill-opacity:1" />
  <path
     d="m469.332031 264.535156c-4.710937 0-8.53125 3.820313-8.53125 8.53125v42.667969c-.003906.574219-.066406 1.144531-.179687 1.707031-.109375.535156-.273438 1.058594-.488282 1.558594-.21875.523438-.492187 1.019531-.808593 1.488281-.308594.457031-.664063.882813-1.058594 1.269531-.382813.378907-.800781.71875-1.246094 1.023438-.460937.308594-.949219.570312-1.460937.785156-.492188.210938-1.007813.371094-1.535156.476563-.574219.136719-1.164063.210937-1.757813.222656h-42.664063c-4.714843 0-8.535156 3.820313-8.535156 8.535156 0 4.710938 3.820313 8.53125 8.535156 8.53125h42.664063c1.71875-.003906 3.4375-.175781 5.121094-.519531 1.644531-.339844 3.253906-.839844 4.804687-1.492188 4.558594-1.9375 8.460938-5.148437 11.238282-9.25.933593-1.375 1.730468-2.835937 2.378906-4.363281.648437-1.539062 1.144531-3.140625 1.488281-4.777343.367187-1.707032.558594-3.449219.570313-5.195313v-42.667969c0-4.710937-3.820313-8.53125-8.535157-8.53125zm0 0"
     id="path8"
     style="fill:#212121;fill-opacity:1" />
</svg>
