<?xml version="1.0" encoding="UTF-8" standalone="no"?>
<svg
   xmlns:dc="http://purl.org/dc/elements/1.1/"
   xmlns:cc="http://creativecommons.org/ns#"
   xmlns:rdf="http://www.w3.org/1999/02/22-rdf-syntax-ns#"
   xmlns:svg="http://www.w3.org/2000/svg"
   xmlns="http://www.w3.org/2000/svg"
   xmlns:sodipodi="http://sodipodi.sourceforge.net/DTD/sodipodi-0.dtd"
   xmlns:inkscape="http://www.inkscape.org/namespaces/inkscape"
   height="480pt"
   viewBox="-80 0 480 480.00006"
   width="480pt"
   version="1.1"
   id="svg10"
   sodipodi:docname="buddha-statue.svg"
   inkscape:version="0.92.4 (5da689c313, 2019-01-14)">
  <metadata
     id="metadata16">
    <rdf:RDF>
      <cc:Work
         rdf:about="">
        <dc:format>image/svg+xml</dc:format>
        <dc:type
           rdf:resource="http://purl.org/dc/dcmitype/StillImage" />
      </cc:Work>
    </rdf:RDF>
  </metadata>
  <defs
     id="defs14" />
  <sodipodi:namedview
     pagecolor="#ffffff"
     bordercolor="#666666"
     borderopacity="1"
     objecttolerance="10"
     gridtolerance="10"
     guidetolerance="10"
     inkscape:pageopacity="0"
     inkscape:pageshadow="2"
     inkscape:window-width="849"
     inkscape:window-height="480"
     id="namedview12"
     showgrid="false"
     inkscape:zoom="0.184375"
     inkscape:cx="488.18562"
     inkscape:cy="61.181107"
     inkscape:window-x="70"
     inkscape:window-y="27"
     inkscape:window-maximized="0"
     inkscape:current-layer="svg10" />
  <path
     d="m272 377.28125v-57.28125c-.007812-10.359375-4.054688-20.304688-11.28125-27.726562 7.003906-4.363282 11.265625-12.023438 11.28125-20.273438v-72c0-13.253906-10.746094-24-24-24-2.730469.027344-5.4375.523438-8 1.472656v-73.472656c0-2.121094-.84375-4.15625-2.34375-5.65625l-5.921875-5.917969c-1.046875-6.953125-5.089844-13.089843-11.0625-16.800781-5.96875-3.710938-13.265625-4.617188-19.960937-2.480469-10.800782-12.875-16.71875-29.140625-16.710938-45.945312v-3.199219c0-13.253906-10.746094-24-24-24s-24 10.746094-24 24v3.199219c.007812 16.804687-5.910156 33.070312-16.710938 45.945312-6.695312-2.136719-13.992187-1.230469-19.960937 2.480469-5.972656 3.710938-10.015625 9.847656-11.0625 16.800781l-5.921875 5.917969c-1.5 1.5-2.34375 3.535156-2.34375 5.65625v73.472656c-2.5625-.949218-5.269531-1.445312-8-1.472656-13.253906 0-24 10.746094-24 24v72c.015625 8.25 4.277344 15.910156 11.28125 20.273438-7.226562 7.421874-11.273438 17.367187-11.28125 27.726562v57.28125c-28.761719 10.152344-47.99609375 37.335938-48 67.839844v34.878906h16v-34.878906c-.003906-21.484375 12.296875-41.074219 31.648438-50.402344-.050782.359375-.125.714844-.214844 1.066406-.085938.292969-.1875.585938-.304688.871094-.425781.972656-1.015625 1.863281-1.753906 2.632812l-6.0625 6.0625c-7.035156 7.003907-9.242188 17.511719-5.617188 26.75 3.625 9.242188 12.386719 15.449219 22.304688 15.800782v32.097656h27.535156c35.628906.035156 69.425782-15.800781 92.199219-43.199219l44.851563-53.832031 3.414062.640625v5.445313c-.050781 19.367187 7.644531 37.945312 21.375 51.601562.824219.773438 1.703125 1.492188 2.625 2.144531v37.199219h16v-32.097656c9.910156-.359375 18.660156-6.5625 22.28125-15.792969s1.425781-19.730469-5.59375-26.734375l-6.0625-6.0625c-.738281-.765625-1.328125-1.660156-1.753906-2.632812-.117188-.285157-.21875-.574219-.304688-.871094-.089844-.351563-.164062-.707032-.214844-1.066406 19.34375 9.328124 31.644532 28.902343 31.648438 50.378906v34.878906h16v-34.878906c-.003906-30.503906-19.238281-57.6875-48-67.839844zm-120-350.082031v-3.199219c0-4.417969 3.582031-8 8-8s8 3.582031 8 8v3.199219c-.03125 20.3125 7.019531 40.003906 19.9375 55.679687-.066406.097656-.097656.210938-.152344.304688-.578125.957031-1.089844 1.949218-1.527344 2.976562-.226562.488282-.515624.945313-.707031 1.449219-.589843 1.550781-1.019531 3.160156-1.277343 4.796875l-.273438.28125-.265625-.261719c-1.757813-11.753906-11.851563-20.453125-23.734375-20.453125s-21.976562 8.699219-23.734375 20.453125l-.265625.261719-.273438-.273438c-.257812-1.636718-.6875-3.246093-1.277343-4.796874-.191407-.503907-.480469-.960938-.707031-1.449219-.4375-1.027344-.949219-2.019531-1.527344-2.976563-.054688-.09375-.085938-.207031-.152344-.304687 12.921875-15.679688 19.96875-35.371094 19.9375-55.6875zm24 80.113281v36.6875h-32v-36.6875l5.65625-5.65625c1.5-1.5 2.34375-3.535156 2.34375-5.65625 0-4.417969 3.582031-8 8-8s8 3.582031 8 8c0 2.121094.84375 4.15625 2.34375 5.65625zm-80 4.6875v-4.6875l5.65625-5.65625c1.5-1.5 2.34375-3.535156 2.34375-5.65625-.015625-2.996094 1.652344-5.746094 4.316406-7.117188 2.664063-1.371093 5.871094-1.132812 8.300782.621094 2.121093 1.480469 3.382812 3.90625 3.382812 6.496094 0 2.121094.84375 4.15625 2.34375 5.65625l5.65625 5.65625v36.6875h-32zm0 191.792969c8.289062 11.109375 19.316406 19.886719 32 25.480469v12.175781c-.003906 11.546875-8.226562 21.453125-19.574219 23.582031l-12.425781 2.328125zm85.039062 57.007812-21.328124 26.070313-20.800782-25.992188c3.332032-5.933594 5.085938-12.625 5.089844-19.429687v-5.449219h32v5.449219c.003906 6.773437 1.742188 13.433593 5.039062 19.351562zm-31.695312 38.734375-1.925781 2.402344c-1.890625 2.308594-3.9375 4.429688-5.992188 6.550781l-24.378906-29.289062c4.039063-1.398438 7.820313-3.445313 11.199219-6.054688zm-53.34375-10.445312v-5.449219l3.417969-.640625 30.03125 36.039062c-15.625 11.773438-34.265625 18.875-53.761719 20.472657 13.0625-13.53125 20.347656-31.617188 20.3125-50.421875zm-32-189.089844c0-4.417969 3.582031-8 8-8s8 3.582031 8 8v72c0 4.417969-3.582031 8-8 8s-8-3.582031-8-8zm-7.03125 232c-3.628906.003906-6.902344-2.183594-8.292969-5.535156-1.386719-3.351563-.617187-7.210938 1.949219-9.777344l6.0625-6.0625c4.667969-4.695312 7.292969-11.039062 7.3125-17.65625v-72.96875c.011719-10.167969 6.417969-19.230469 16-22.632812v91.722656c.039062 15.117187-5.96875 29.625-16.6875 40.285156-1.6875 1.675781-3.96875 2.621094-6.34375 2.625zm106.472656-5.425781c-19.738281 23.746093-49.027344 37.464843-79.90625 37.425781h-11.535156v-8.113281c34.203125-1.378907 66.175781-17.355469 87.808594-43.886719l31.863281-38.953125c3.402344 2.644531 7.210937 4.714844 11.28125 6.128906zm60.558594-59.214844-12.425781-2.328125c-11.347657-2.128906-19.570313-12.035156-19.574219-23.582031v-12.175781c12.6875-5.59375 23.710938-14.371094 32-25.480469zm0-111.359375c0 35.347656-28.652344 64-64 64s-64-28.652344-64-64v-32h32c4.417969 0 8 3.582031 8 8v16c0 13.253906 10.746094 24 24 24s24-10.746094 24-24v-16c0-4.417969 3.582031-8 8-8h32zm0-56v8h-32c-13.253906 0-24 10.746094-24 24v16c0 4.417969-3.582031 8-8 8s-8-3.582031-8-8v-16c0-13.253906-10.746094-24-24-24h-32v-16h128zm0-24h-128v-16h128zm0-64v32h-32v-36.6875l5.65625-5.65625c1.5-1.5 2.34375-3.535156 2.34375-5.65625 0-2.589844 1.261719-5.015625 3.382812-6.496094 2.429688-1.753906 5.636719-1.992187 8.300782-.621094 2.664062 1.371094 4.332031 4.121094 4.316406 7.117188 0 2.121094.84375 4.15625 2.34375 5.65625l5.65625 5.65625zm16 144v-56c0-4.417969 3.582031-8 8-8s8 3.582031 8 8v72c0 4.417969-3.582031 8-8 8s-8-3.582031-8-8zm23.03125 176c-2.375-.003906-4.65625-.949219-6.34375-2.625-10.71875-10.660156-16.726562-25.167969-16.6875-40.285156v-91.722656c9.582031 3.402343 15.988281 12.464843 16 22.632812v72.96875c.019531 6.617188 2.644531 12.960938 7.3125 17.65625l6.0625 6.0625c2.566406 2.566406 3.335938 6.425781 1.949219 9.777344-1.390625 3.351562-4.664063 5.539062-8.292969 5.535156zm0 0"
     id="path2"
     style="fill:#212121;fill-opacity:1" />
  <path
     d="m128 240c0 4.417969-3.582031 8-8 8s-8-3.582031-8-8 3.582031-8 8-8 8 3.582031 8 8zm0 0"
     id="path4"
     style="fill:#212121;fill-opacity:1" />
  <path
     d="m208 240c0 4.417969-3.582031 8-8 8s-8-3.582031-8-8 3.582031-8 8-8 8 3.582031 8 8zm0 0"
     id="path6"
     style="fill:#212121;fill-opacity:1" />
  <path
     d="m160 288c-4.417969 0-8-3.582031-8-8h-16c0 13.253906 10.746094 24 24 24s24-10.746094 24-24h-16c0 4.417969-3.582031 8-8 8zm0 0"
     id="path8"
     style="fill:#212121;fill-opacity:1" />
</svg>
