<?xml version="1.0" encoding="UTF-8" standalone="no"?>
<!-- Generator: Adobe Illustrator 19.0.0, SVG Export Plug-In . SVG Version: 6.00 Build 0)  -->

<svg
   xmlns:dc="http://purl.org/dc/elements/1.1/"
   xmlns:cc="http://creativecommons.org/ns#"
   xmlns:rdf="http://www.w3.org/1999/02/22-rdf-syntax-ns#"
   xmlns:svg="http://www.w3.org/2000/svg"
   xmlns="http://www.w3.org/2000/svg"
   xmlns:sodipodi="http://sodipodi.sourceforge.net/DTD/sodipodi-0.dtd"
   xmlns:inkscape="http://www.inkscape.org/namespaces/inkscape"
   version="1.1"
   id="Capa_1"
   x="0px"
   y="0px"
   viewBox="0 0 512 512"
   style="enable-background:new 0 0 512 512;"
   xml:space="preserve"
   sodipodi:docname="kaart-atlas.svg"
   inkscape:version="0.92.4 (5da689c313, 2019-01-14)"><metadata
   id="metadata55"><rdf:RDF><cc:Work
       rdf:about=""><dc:format>image/svg+xml</dc:format><dc:type
         rdf:resource="http://purl.org/dc/dcmitype/StillImage" /></cc:Work></rdf:RDF></metadata><defs
   id="defs53" /><sodipodi:namedview
   pagecolor="#ffffff"
   bordercolor="#666666"
   borderopacity="1"
   objecttolerance="10"
   gridtolerance="10"
   guidetolerance="10"
   inkscape:pageopacity="0"
   inkscape:pageshadow="2"
   inkscape:window-width="849"
   inkscape:window-height="480"
   id="namedview51"
   showgrid="false"
   inkscape:zoom="0.4609375"
   inkscape:cx="256"
   inkscape:cy="256"
   inkscape:window-x="70"
   inkscape:window-y="27"
   inkscape:window-maximized="0"
   inkscape:current-layer="Capa_1" />
<g
   id="g6"
   style="fill:#212121;fill-opacity:1">
	<g
   id="g4"
   style="fill:#212121;fill-opacity:1">
		<path
   d="M281.893,77.005c-0.107-0.002-0.215-0.01-0.322-0.008c-0.043,0-0.086,0.002-0.129,0.003c-0.076,0-0.153-0.003-0.23-0.003    c-66.082,0-119.843,53.761-119.843,119.843s53.761,119.843,119.843,119.843c0.105,0,0.21-0.004,0.315-0.004    c0.046,0.001,0.092,0.006,0.139,0.006c0.001,0,0.003,0,0.004,0c0.001,0,0.003,0,0.004,0c0.073,0,0.148-0.009,0.221-0.011    c65.768-0.369,119.16-53.981,119.16-119.835S347.661,77.374,281.893,77.005z M281.723,98.572    c7.636,5.693,17.115,19.696,23.905,41.643c1.332,4.309,5.301,7.075,9.587,7.075c0.983,0,1.983-0.146,2.971-0.451    c5.296-1.638,8.261-7.261,6.623-12.558c-3.949-12.765-8.877-23.86-14.482-32.867c37.766,11.545,66.084,44.942,70.145,85.387    h-46.781c-0.261-5.827-0.723-11.64-1.434-17.372c-0.682-5.503-5.701-9.41-11.197-8.729c-5.502,0.682-9.411,5.695-8.728,11.198    c0.609,4.917,1.016,9.904,1.262,14.903h-64.543C251.277,141.783,268.085,108.656,281.723,98.572z M253.16,101.095    c-13.377,20.933-22.625,52.377-24.195,85.705h-47.016C186.047,145.976,214.86,112.335,253.16,101.095z M181.949,206.878h47.011    c1.543,33.453,10.667,64.788,23.898,85.615C214.71,281.166,186.036,247.596,181.949,206.878z M281.499,295.111    c-13.563-9.744-30.267-42.709-32.453-88.233h64.553c-1.05,20.582-5.284,40.83-12.199,57.909    C294.836,281.001,287.372,290.625,281.499,295.111z M309.985,292.368c13.117-20.931,22.181-52.275,23.724-85.49h46.765    C376.4,247.446,347.923,280.919,309.985,292.368z"
   id="path2"
   style="fill:#212121;fill-opacity:1" />
	</g>
</g>
<g
   id="g12"
   style="fill:#212121;fill-opacity:1">
	<g
   id="g10"
   style="fill:#212121;fill-opacity:1">
		<path
   d="M451.547,0H121.082C82.115,0,50.414,31.702,50.414,70.668v376.077c0,0.49,0.047,0.968,0.114,1.44    C52.519,483.708,82.041,512,118.054,512h333.493c5.544,0,10.039-4.495,10.039-10.039V10.039C461.586,4.495,457.092,0,451.547,0z     M441.508,416.628H270.841c-5.544,0-10.039,4.495-10.039,10.039s4.496,10.039,10.039,10.039h170.667v20.078h-130.51    c-5.544,0-10.039,4.495-10.039,10.039s4.496,10.039,10.039,10.039h130.51v15.059H118.054c-26.227,0-47.562-21.336-47.562-47.562    c0-26.226,21.336-47.562,47.562-47.562h323.454V416.628z M441.509,376.719H120.471V105.412c0-5.545-4.495-10.039-10.039-10.039    c-5.545,0-10.039,4.495-10.039,10.039v273.661c-11.45,3.101-21.705,9.132-29.901,17.246V70.668    c0.001-27.896,22.696-50.59,50.591-50.59h320.427V376.719z"
   id="path8"
   style="fill:#212121;fill-opacity:1" />
	</g>
</g>
<g
   id="g18">
	<g
   id="g16">
		<path
   d="M238.483,416.628h-0.201c-5.545,0-10.039,4.495-10.039,10.039s4.495,10.039,10.039,10.039h0.201    c5.545,0,10.039-4.495,10.039-10.039S244.026,416.628,238.483,416.628z"
   id="path14" />
	</g>
</g>
<g
   id="g20">
</g>
<g
   id="g22">
</g>
<g
   id="g24">
</g>
<g
   id="g26">
</g>
<g
   id="g28">
</g>
<g
   id="g30">
</g>
<g
   id="g32">
</g>
<g
   id="g34">
</g>
<g
   id="g36">
</g>
<g
   id="g38">
</g>
<g
   id="g40">
</g>
<g
   id="g42">
</g>
<g
   id="g44">
</g>
<g
   id="g46">
</g>
<g
   id="g48">
</g>
</svg>