<?xml version="1.0" encoding="UTF-8" standalone="no"?>
<svg
   xmlns:dc="http://purl.org/dc/elements/1.1/"
   xmlns:cc="http://creativecommons.org/ns#"
   xmlns:rdf="http://www.w3.org/1999/02/22-rdf-syntax-ns#"
   xmlns:svg="http://www.w3.org/2000/svg"
   xmlns="http://www.w3.org/2000/svg"
   xmlns:sodipodi="http://sodipodi.sourceforge.net/DTD/sodipodi-0.dtd"
   xmlns:inkscape="http://www.inkscape.org/namespaces/inkscape"
   id="Capa_1"
   enable-background="new 0 0 512 512"
   height="512"
   viewBox="0 0 512 512"
   width="512"
   version="1.1"
   sodipodi:docname="lesvoorbereiding.svg"
   inkscape:version="0.92.4 (5da689c313, 2019-01-14)">
  <metadata
     id="metadata23">
    <rdf:RDF>
      <cc:Work
         rdf:about="">
        <dc:format>image/svg+xml</dc:format>
        <dc:type
           rdf:resource="http://purl.org/dc/dcmitype/StillImage" />
      </cc:Work>
    </rdf:RDF>
  </metadata>
  <defs
     id="defs21" />
  <sodipodi:namedview
     pagecolor="#ffffff"
     bordercolor="#666666"
     borderopacity="1"
     objecttolerance="10"
     gridtolerance="10"
     guidetolerance="10"
     inkscape:pageopacity="0"
     inkscape:pageshadow="2"
     inkscape:window-width="851"
     inkscape:window-height="480"
     id="namedview19"
     showgrid="false"
     inkscape:zoom="0.32593203"
     inkscape:cx="273.69048"
     inkscape:cy="335.07969"
     inkscape:window-x="70"
     inkscape:window-y="27"
     inkscape:window-maximized="0"
     inkscape:current-layer="Capa_1" />
  <g
     id="g16"
     style="fill:#212121;stroke:none;stroke-opacity:1;fill-opacity:1">
    <path
       d="m426.874 0h-312.52c-34.806 0-63.142 28.196-63.388 62.945h-1.796c-15.137 0-27.452 12.315-27.452 27.452s12.315 27.452 27.452 27.452h1.784v27.898h-1.784c-15.137 0-27.452 12.315-27.452 27.452s12.315 27.452 27.452 27.452h1.784v27.898h-1.784c-15.137 0-27.452 12.315-27.452 27.452s12.315 27.452 27.452 27.452h1.784v27.898h-1.784c-15.137 0-27.452 12.315-27.452 27.452s12.315 27.452 27.452 27.452h1.784v27.902h-1.788c-7.336 0-14.23 2.854-19.414 8.037-5.183 5.183-8.036 12.077-8.036 19.413 0 15.136 12.314 27.45 27.45 27.45h1.8c.249 34.75 28.584 62.943 63.388 62.943h312.52c34.965 0 63.41-28.441 63.41-63.4v-385.2c0-34.959-28.445-63.4-63.41-63.4zm-390.156 90.397c0-6.866 5.586-12.452 12.452-12.452h50.547c6.866 0 12.452 5.586 12.452 12.452s-5.586 12.452-12.452 12.452h-50.547c-6.866 0-12.452-5.586-12.452-12.452zm0 82.803c0-6.866 5.586-12.452 12.452-12.452h50.547c6.866 0 12.452 5.586 12.452 12.452s-5.586 12.452-12.452 12.452h-50.547c-6.866 0-12.452-5.586-12.452-12.452zm0 82.802c0-6.866 5.586-12.452 12.452-12.452h50.547c6.866 0 12.452 5.586 12.452 12.452s-5.586 12.452-12.452 12.452h-50.547c-6.866.001-12.452-5.585-12.452-12.452zm0 82.803c0-6.866 5.586-12.452 12.452-12.452h50.547c6.866 0 12.452 5.586 12.452 12.452s-5.586 12.452-12.452 12.452h-50.547c-6.866.001-12.452-5.586-12.452-12.452zm438.566 109.795c0 26.688-21.717 48.4-48.41 48.4h-312.52c-26.534 0-48.14-21.464-48.389-47.94h16.97c4.143 0 7.5-3.358 7.5-7.5s-3.357-7.5-7.5-7.5h-33.77c-6.865 0-12.45-5.585-12.45-12.45 0-3.329 1.294-6.457 3.643-8.807 2.351-2.35 5.478-3.644 8.808-3.644h50.55c6.865 0 12.45 5.585 12.45 12.45 0 2.954-1.042 5.806-2.935 8.033-2.683 3.156-2.299 7.889.857 10.572 3.157 2.683 7.891 2.298 10.572-.858 4.194-4.936 6.505-11.238 6.505-17.747 0-15.136-12.314-27.45-27.45-27.45h-33.761v-27.902h33.763c15.137 0 27.452-12.315 27.452-27.452s-12.315-27.452-27.452-27.452h-33.763v-27.898h33.763c15.137 0 27.452-12.315 27.452-27.452s-12.315-27.452-27.452-27.452h-33.763v-27.898h33.763c15.137 0 27.452-12.315 27.452-27.452s-12.315-27.452-27.452-27.452h-33.763v-27.898h33.763c15.137 0 27.452-12.315 27.452-27.452s-12.315-27.452-27.452-27.452h-33.751c.246-26.48 21.853-47.947 48.388-47.947h312.52c26.693 0 48.41 21.712 48.41 48.4z"
       id="path2"
       style="fill:#212121;stroke:none;stroke-opacity:1;fill-opacity:1" />
    <path
       d="m425.646 78.239h-65.75c-4.143 0-7.5 3.358-7.5 7.5s3.357 7.5 7.5 7.5h65.75c4.143 0 7.5-3.358 7.5-7.5s-3.357-7.5-7.5-7.5z"
       id="path4"
       style="fill:#212121;stroke:none;stroke-opacity:1;fill-opacity:1" />
    <path
       d="m158.283 93.239h171.613c4.143 0 7.5-3.358 7.5-7.5s-3.357-7.5-7.5-7.5h-171.613c-4.143 0-7.5 3.358-7.5 7.5s3.358 7.5 7.5 7.5z"
       id="path6"
       style="fill:#212121;stroke:none;stroke-opacity:1;fill-opacity:1" />
    <path
       d="m425.646 163.369h-267.363c-4.143 0-7.5 3.358-7.5 7.5s3.357 7.5 7.5 7.5h267.363c4.143 0 7.5-3.358 7.5-7.5s-3.357-7.5-7.5-7.5z"
       id="path8"
       style="fill:#212121;stroke:none;stroke-opacity:1;fill-opacity:1" />
    <path
       d="m425.646 248.5h-267.363c-4.143 0-7.5 3.358-7.5 7.5s3.357 7.5 7.5 7.5h267.363c4.143 0 7.5-3.358 7.5-7.5s-3.357-7.5-7.5-7.5z"
       id="path10"
       style="fill:#212121;stroke:none;stroke-opacity:1;fill-opacity:1" />
    <path
       d="m425.646 333.631h-267.363c-4.143 0-7.5 3.358-7.5 7.5s3.357 7.5 7.5 7.5h267.363c4.143 0 7.5-3.358 7.5-7.5s-3.357-7.5-7.5-7.5z"
       id="path12"
       style="fill:#212121;stroke:none;stroke-opacity:1;fill-opacity:1" />
    <path
       d="m425.646 418.761h-267.363c-4.143 0-7.5 3.358-7.5 7.5s3.357 7.5 7.5 7.5h267.363c4.143 0 7.5-3.358 7.5-7.5s-3.357-7.5-7.5-7.5z"
       id="path14"
       style="fill:#212121;stroke:none;stroke-opacity:1;fill-opacity:1" />
  </g>
</svg>
