<?xml version="1.0" encoding="UTF-8" standalone="no"?>
<!-- Generator: Adobe Illustrator 19.0.0, SVG Export Plug-In . SVG Version: 6.00 Build 0)  -->

<svg
   xmlns:dc="http://purl.org/dc/elements/1.1/"
   xmlns:cc="http://creativecommons.org/ns#"
   xmlns:rdf="http://www.w3.org/1999/02/22-rdf-syntax-ns#"
   xmlns:svg="http://www.w3.org/2000/svg"
   xmlns="http://www.w3.org/2000/svg"
   xmlns:sodipodi="http://sodipodi.sourceforge.net/DTD/sodipodi-0.dtd"
   xmlns:inkscape="http://www.inkscape.org/namespaces/inkscape"
   version="1.1"
   id="Capa_1"
   x="0px"
   y="0px"
   viewBox="0 0 512 512"
   style="enable-background:new 0 0 512 512;"
   xml:space="preserve"
   sodipodi:docname="multiperspectiviteit.svg"
   inkscape:version="0.92.4 (5da689c313, 2019-01-14)"><metadata
   id="metadata65"><rdf:RDF><cc:Work
       rdf:about=""><dc:format>image/svg+xml</dc:format><dc:type
         rdf:resource="http://purl.org/dc/dcmitype/StillImage" /></cc:Work></rdf:RDF></metadata><defs
   id="defs63" /><sodipodi:namedview
   pagecolor="#ffffff"
   bordercolor="#666666"
   borderopacity="1"
   objecttolerance="10"
   gridtolerance="10"
   guidetolerance="10"
   inkscape:pageopacity="0"
   inkscape:pageshadow="2"
   inkscape:window-width="1850"
   inkscape:window-height="1016"
   id="namedview61"
   showgrid="false"
   inkscape:zoom="0.4609375"
   inkscape:cx="56.356762"
   inkscape:cy="80.750783"
   inkscape:window-x="70"
   inkscape:window-y="27"
   inkscape:window-maximized="1"
   inkscape:current-layer="Capa_1" />





<path
   d="M256,168.339c-54.614,0-106.272,26.191-138.186,70.061c-7.419,10.198-7.419,25.002,0,35.2  c31.913,43.87,83.571,70.061,138.186,70.061S362.272,317.47,394.186,273.6c7.419-10.198,7.419-25.002,0-35.2  C362.272,194.53,310.614,168.339,256,168.339z M382.056,264.776c-29.1,40.003-76.224,63.885-126.056,63.885  s-96.956-23.882-126.056-63.885c-3.64-5.003-3.64-12.549,0-17.552c29.1-40.003,76.224-63.885,126.056-63.885  s96.956,23.882,126.056,63.885C385.695,252.227,385.695,259.773,382.056,264.776z"
   id="path16"
   style="fill:#212121;fill-opacity:1" />
<path
   d="M256,200.403c-30.656,0-55.597,24.94-55.597,55.597s24.94,55.597,55.597,55.597s55.597-24.94,55.597-55.597  S286.656,200.403,256,200.403z M256,296.597c-22.385,0-40.597-18.211-40.597-40.597s18.211-40.597,40.597-40.597  s40.597,18.211,40.597,40.597S278.385,296.597,256,296.597z"
   id="path18"
   style="fill:#212121;fill-opacity:1" />
<path
   d="M273.644,257.525c-3.586-2.074-8.173-0.85-10.248,2.735c-1.524,2.635-4.358,4.271-7.396,4.271  c-4.705,0-8.532-3.828-8.532-8.532c0-3.036,1.636-5.869,4.269-7.393c3.584-2.076,4.808-6.664,2.732-10.249  c-2.076-3.584-6.665-4.807-10.249-2.732c-7.249,4.198-11.752,12.004-11.752,20.375c0,12.976,10.557,23.532,23.532,23.532  c8.373,0,16.182-4.506,20.379-11.759C278.453,264.188,277.229,259.6,273.644,257.525z"
   id="path20"
   style="fill:#212121;fill-opacity:1" />
<path
   d="M87.661,248.5H30l14.064-10.548c3.313-2.485,3.985-7.187,1.5-10.5c-2.486-3.314-7.186-3.985-10.5-1.5L3,250  c-1.889,1.417-3,3.639-3,6s1.111,4.583,3,6l32.064,24.048c1.349,1.012,2.928,1.5,4.494,1.5c2.28,0,4.533-1.036,6.006-3  c2.485-3.313,1.813-8.015-1.5-10.5L30,263.5h57.661c4.142,0,7.5-3.358,7.5-7.5S91.803,248.5,87.661,248.5z"
   id="path22"
   style="fill:#212121;fill-opacity:1" />
<path
   d="M509,250l-32.064-24.048c-3.313-2.484-8.015-1.813-10.5,1.5s-1.813,8.015,1.5,10.5L482,248.5h-57.661  c-4.142,0-7.5,3.358-7.5,7.5s3.358,7.5,7.5,7.5H482l-14.064,10.548c-3.313,2.485-3.985,7.187-1.5,10.5c1.474,1.965,3.726,3,6.006,3  c1.566,0,3.145-0.489,4.494-1.5L509,262c1.889-1.417,3-3.639,3-6S510.889,251.417,509,250z"
   id="path24"
   style="fill:#212121;fill-opacity:1" />
<path
   d="M227.452,101.677c3.314,2.485,8.015,1.813,10.5-1.5L248.5,86.113v57.662c0,4.142,3.358,7.5,7.5,7.5s7.5-3.358,7.5-7.5  V86.113l10.548,14.064c1.474,1.965,3.726,3,6.006,3c1.566,0,3.145-0.489,4.494-1.5c3.313-2.485,3.985-7.187,1.5-10.5L262,59.113  c-1.417-1.889-3.639-3-6-3s-4.583,1.111-6,3l-24.048,32.064C223.466,94.491,224.138,99.192,227.452,101.677z"
   id="path26"
   style="fill:#212121;fill-opacity:1" />
<path
   d="M284.548,410.323c-3.313-2.484-8.015-1.813-10.5,1.5L263.5,425.887v-57.662c0-4.142-3.358-7.5-7.5-7.5s-7.5,3.358-7.5,7.5  v57.662l-10.548-14.064c-2.485-3.314-7.187-3.985-10.5-1.5s-3.985,7.187-1.5,10.5L250,452.887c1.417,1.889,3.639,3,6,3  s4.583-1.111,6-3l24.048-32.064C288.534,417.509,287.862,412.808,284.548,410.323z"
   id="path28"
   style="fill:#212121;fill-opacity:1" />
<g
   id="g30">
</g>
<g
   id="g32">
</g>
<g
   id="g34">
</g>
<g
   id="g36">
</g>
<g
   id="g38">
</g>
<g
   id="g40">
</g>
<g
   id="g42">
</g>
<g
   id="g44">
</g>
<g
   id="g46">
</g>
<g
   id="g48">
</g>
<g
   id="g50">
</g>
<g
   id="g52">
</g>
<g
   id="g54">
</g>
<g
   id="g56">
</g>
<g
   id="g58">
</g>
</svg>