<?xml version="1.0" encoding="UTF-8" standalone="no"?>
<!-- Generator: Adobe Illustrator 19.0.0, SVG Export Plug-In . SVG Version: 6.00 Build 0)  -->

<svg
   xmlns:dc="http://purl.org/dc/elements/1.1/"
   xmlns:cc="http://creativecommons.org/ns#"
   xmlns:rdf="http://www.w3.org/1999/02/22-rdf-syntax-ns#"
   xmlns:svg="http://www.w3.org/2000/svg"
   xmlns="http://www.w3.org/2000/svg"
   xmlns:sodipodi="http://sodipodi.sourceforge.net/DTD/sodipodi-0.dtd"
   xmlns:inkscape="http://www.inkscape.org/namespaces/inkscape"
   version="1.1"
   id="Capa_1"
   x="0px"
   y="0px"
   viewBox="0 0 294.465 294.465"
   style="enable-background:new 0 0 294.465 294.465;"
   xml:space="preserve"
   sodipodi:docname="nederland-en-het-water.svg"
   inkscape:version="0.92.4 (5da689c313, 2019-01-14)"><metadata
   id="metadata49"><rdf:RDF><cc:Work
       rdf:about=""><dc:format>image/svg+xml</dc:format><dc:type
         rdf:resource="http://purl.org/dc/dcmitype/StillImage" /></cc:Work></rdf:RDF></metadata><defs
   id="defs47" /><sodipodi:namedview
   pagecolor="#ffffff"
   bordercolor="#666666"
   borderopacity="1"
   objecttolerance="10"
   gridtolerance="10"
   guidetolerance="10"
   inkscape:pageopacity="0"
   inkscape:pageshadow="2"
   inkscape:window-width="849"
   inkscape:window-height="480"
   id="namedview45"
   showgrid="false"
   inkscape:zoom="2.2668528"
   inkscape:cx="116.66921"
   inkscape:cy="77.921233"
   inkscape:window-x="1182"
   inkscape:window-y="238"
   inkscape:window-maximized="0"
   inkscape:current-layer="Capa_1" />
<g
   id="g6"
   style="fill:#212121;fill-opacity:1">
	<g
   id="g4"
   style="fill:#212121;fill-opacity:1">
		<path
   d="m 174.432,32.465 c -6.8,-10 -12.8,-19.2 -18.4,-27.6 -0.8,-1.2 -2,-2.4 -3.2,-3.2 -4.8,-3.2 -11.2,-1.6 -14.4,3.2 -5.2,8.4 -11.2,17.2 -18.4,27.6 -31.6,46.4 -78.8,116.4 -78.8,156.4 0,29.2 12,55.6 31.2,74.8 19.2,18.8 45.6,30.8 74.8,30.8 29.2,0 55.6,-12 74.8,-31.2 19.2,-19.2 31.2,-45.6 31.2,-74.8 0,-40 -47.2,-109.6 -78.8,-156 z m 37.2,220.4 c -15.6,15.6 -40.8,28.8 -64.4,28.8 -23.6,0 -48.8,-13.6 -64.4,-28.8 -15.6,-15.6 -28.8,-40.8 -28.8,-64.4 0,-33.6 49.2,-104.4 79.2,-148.8 3.6,-5.2 10.8,-14.4 14,-18.8 3.2,4.4 10.4,13.6 14,18.8 30,44.8 79.2,115.2 79.2,148.8 0,23.6 -13.6,48.8 -28.8,64.4 z"
   id="path2"
   style="fill:#212121;fill-opacity:1"
   inkscape:connector-curvature="0"
   sodipodi:nodetypes="cssccscsssccscscccsc" />
	</g>
</g>
<g
   id="g12"
   style="fill:#212121;fill-opacity:1">
	<g
   id="g10"
   style="fill:#212121;fill-opacity:1">
		<path
   d="m 209.232,181.265 c -5.6,-0.4 -6.4,4 -6.8,9.6 -0.4,8.8 -3.2,21.2 -7.6,28.4 -4.4,7.2 -14.8,13.6 -22.4,17.6 -4.8,2.8 -6.8,5.2 -4,10 3.2,5.6 7.6,5.2 12.4,2.4 10.8,-6 21.6,-12.8 27.6,-22.8 6.4,-10 6,-22 6.4,-34.4 0.4,-5.6 0,-10.4 -5.6,-10.8 z"
   id="path8"
   style="fill:#212121;fill-opacity:1"
   inkscape:connector-curvature="0"
   sodipodi:nodetypes="scscccccs" />
	</g>
</g>
<g
   id="g14">
</g>
<g
   id="g16">
</g>
<g
   id="g18">
</g>
<g
   id="g20">
</g>
<g
   id="g22">
</g>
<g
   id="g24">
</g>
<g
   id="g26">
</g>
<g
   id="g28">
</g>
<g
   id="g30">
</g>
<g
   id="g32">
</g>
<g
   id="g34">
</g>
<g
   id="g36">
</g>
<g
   id="g38">
</g>
<g
   id="g40">
</g>
<g
   id="g42">
</g>
</svg>