<?xml version="1.0" encoding="UTF-8" standalone="no"?>
<!-- Generator: Adobe Illustrator 19.0.0, SVG Export Plug-In . SVG Version: 6.00 Build 0)  -->

<svg
   xmlns:dc="http://purl.org/dc/elements/1.1/"
   xmlns:cc="http://creativecommons.org/ns#"
   xmlns:rdf="http://www.w3.org/1999/02/22-rdf-syntax-ns#"
   xmlns:svg="http://www.w3.org/2000/svg"
   xmlns="http://www.w3.org/2000/svg"
   xmlns:sodipodi="http://sodipodi.sourceforge.net/DTD/sodipodi-0.dtd"
   xmlns:inkscape="http://www.inkscape.org/namespaces/inkscape"
   version="1.1"
   id="Layer_1"
   x="0px"
   y="0px"
   viewBox="0 0 512.004 512.004"
   style="enable-background:new 0 0 512.004 512.004;"
   xml:space="preserve"
   sodipodi:docname="schaalniveaus.svg"
   inkscape:version="0.92.4 (5da689c313, 2019-01-14)"><metadata
   id="metadata85"><rdf:RDF><cc:Work
       rdf:about=""><dc:format>image/svg+xml</dc:format><dc:type
         rdf:resource="http://purl.org/dc/dcmitype/StillImage" /></cc:Work></rdf:RDF></metadata><defs
   id="defs83" /><sodipodi:namedview
   pagecolor="#ffffff"
   bordercolor="#666666"
   borderopacity="1"
   objecttolerance="10"
   gridtolerance="10"
   guidetolerance="10"
   inkscape:pageopacity="0"
   inkscape:pageshadow="2"
   inkscape:window-width="851"
   inkscape:window-height="480"
   id="namedview81"
   showgrid="false"
   inkscape:zoom="0.23046694"
   inkscape:cx="84.992142"
   inkscape:cy="18.906969"
   inkscape:window-x="70"
   inkscape:window-y="27"
   inkscape:window-maximized="0"
   inkscape:current-layer="Layer_1" />
<g
   id="g48"
   style="fill:#212121;fill-opacity:1">
	<g
   id="g46"
   style="fill:#212121;fill-opacity:1">
		<g
   id="g44"
   style="fill:#212121;fill-opacity:1">
			<path
   d="M310.46,196.924c-1.041-0.435-2.15-0.657-3.26-0.657h-25.6c-4.719,0-8.533,3.814-8.533,8.533s3.814,8.533,8.533,8.533h5     l-22.067,22.067l-2.5-2.5c-3.328-3.337-8.73-3.337-12.066,0c-3.328,3.328-3.328,8.73,0,12.066l2.5,2.5L230.4,269.534v-5.001     c0-4.719-3.814-8.533-8.533-8.533s-8.533,3.814-8.533,8.533v25.6c0,1.109,0.23,2.219,0.657,3.26     c0.87,2.091,2.526,3.746,4.617,4.617c1.041,0.427,2.15,0.657,3.26,0.657h25.6c4.719,0,8.533-3.814,8.533-8.533     s-3.814-8.533-8.533-8.533h-5.001l22.067-22.067l2.5,2.5c1.664,1.664,3.849,2.5,6.033,2.5c2.185,0,4.369-0.836,6.033-2.5     c3.336-3.337,3.336-8.738,0-12.066l-2.5-2.5l22.067-22.067v5.001c0,4.719,3.814,8.533,8.533,8.533s8.533-3.814,8.533-8.533v-25.6     c0-1.109-0.222-2.219-0.657-3.26C314.206,199.45,312.551,197.794,310.46,196.924z"
   id="path2"
   style="fill:#212121;fill-opacity:1" />
			<path
   d="M152.702,226.582c-2.901-5.786-12.365-5.786-15.266,0L0.902,499.649c-1.323,2.645-1.186,5.786,0.375,8.303     c1.562,2.517,4.301,4.045,7.253,4.045h273.067c2.961,0,5.7-1.527,7.262-4.045c1.562-2.517,1.698-5.658,0.375-8.303     L152.702,226.582z"
   id="path4"
   style="fill:#212121;fill-opacity:1" />
			<path
   d="M175.86,168.816c1.229,0.606,2.526,0.896,3.806,0.896c3.132,0,6.144-1.724,7.646-4.71l7.629-15.266     c2.108-4.215,0.401-9.344-3.814-11.452c-4.215-2.099-9.344-0.401-11.452,3.814l-7.629,15.266     C169.938,161.58,171.645,166.708,175.86,168.816z"
   id="path6"
   style="fill:#212121;fill-opacity:1" />
			<path
   d="M198.761,123.024c1.229,0.606,2.526,0.896,3.806,0.896c3.132,0,6.144-1.724,7.646-4.71l7.629-15.266     c2.108-4.215,0.401-9.344-3.814-11.452c-4.215-2.091-9.335-0.401-11.452,3.814l-7.629,15.266     C192.838,115.788,194.545,120.917,198.761,123.024z"
   id="path8"
   style="fill:#212121;fill-opacity:1" />
			<path
   d="M152.96,214.608c1.229,0.606,2.526,0.896,3.806,0.896c3.132,0,6.144-1.724,7.646-4.71l7.629-15.266     c2.108-4.216,0.401-9.344-3.814-11.452c-4.215-2.091-9.335-0.401-11.452,3.814l-7.629,15.266     C147.038,207.371,148.745,212.5,152.96,214.608z"
   id="path10"
   style="fill:#212121;fill-opacity:1" />
			<path
   d="M445.635,406.882l7.637,15.266c1.493,2.995,4.506,4.719,7.637,4.719c1.28,0,2.586-0.29,3.806-0.905     c4.216-2.108,5.931-7.228,3.823-11.443l-7.637-15.275c-2.116-4.215-7.228-5.905-11.452-3.814     C445.234,397.538,443.527,402.667,445.635,406.882z"
   id="path12"
   style="fill:#212121;fill-opacity:1" />
			<path
   d="M285.352,86.324l7.637,15.266c1.493,2.995,4.506,4.719,7.637,4.719c1.28,0,2.586-0.29,3.806-0.905     c4.215-2.108,5.931-7.228,3.823-11.443l-7.637-15.275c-2.116-4.215-7.236-5.914-11.452-3.814     C284.951,76.98,283.244,82.109,285.352,86.324z"
   id="path14"
   style="fill:#212121;fill-opacity:1" />
			<path
   d="M244.552,31.433c1.229,0.606,2.526,0.896,3.806,0.896c3.132,0,6.144-1.724,7.646-4.71l7.629-15.266     c2.108-4.215,0.401-9.344-3.814-11.452c-4.215-2.091-9.335-0.401-11.452,3.814l-7.629,15.266     C238.63,24.197,240.337,29.325,244.552,31.433z"
   id="path16"
   style="fill:#212121;fill-opacity:1" />
			<path
   d="M221.652,77.224c1.229,0.606,2.526,0.896,3.806,0.896c3.132,0,6.144-1.724,7.646-4.71l7.629-15.266     c2.108-4.215,0.401-9.344-3.814-11.452c-4.224-2.091-9.335-0.401-11.452,3.814l-7.629,15.266     C215.73,69.988,217.437,75.117,221.652,77.224z"
   id="path18"
   style="fill:#212121;fill-opacity:1" />
			<path
   d="M262.46,40.524l7.637,15.266c1.493,2.995,4.506,4.719,7.637,4.719c1.28,0,2.586-0.29,3.806-0.905     c4.215-2.108,5.931-7.228,3.823-11.443l-7.637-15.275c-2.116-4.215-7.236-5.897-11.452-3.814     C262.059,31.18,260.352,36.309,262.46,40.524z"
   id="path20"
   style="fill:#212121;fill-opacity:1" />
			<path
   d="M376.943,231.342l-7.637-15.266c-2.116-4.215-7.236-5.905-11.443-3.814c-4.215,2.108-5.931,7.228-3.823,11.443     l7.637,15.275c1.502,2.987,4.506,4.71,7.637,4.71c1.289,0,2.586-0.29,3.814-0.896     C377.344,240.686,379.051,235.557,376.943,231.342z"
   id="path22"
   style="fill:#212121;fill-opacity:1" />
			<path
   d="M422.743,322.925l-7.637-15.258c-2.116-4.215-7.236-5.914-11.443-3.814c-4.215,2.108-5.931,7.228-3.823,11.443     l7.637,15.266c1.502,2.987,4.506,4.71,7.637,4.71c1.289,0,2.586-0.29,3.814-0.896     C423.145,332.269,424.851,327.14,422.743,322.925z"
   id="path24"
   style="fill:#212121;fill-opacity:1" />
			<path
   d="M462.119,494.933h-17.067c-4.719,0-8.533,3.814-8.533,8.533c0,4.719,3.814,8.533,8.533,8.533h17.067     c4.719,0,8.533-3.814,8.533-8.533C470.652,498.747,466.838,494.933,462.119,494.933z"
   id="path26"
   style="fill:#212121;fill-opacity:1" />
			<path
   d="M441.819,380.175c4.215-2.108,5.922-7.236,3.814-11.452l-7.629-15.266c-2.116-4.215-7.228-5.897-11.452-3.814     c-4.216,2.108-5.922,7.236-3.814,11.452l7.629,15.266c1.502,2.987,4.514,4.71,7.646,4.71     C439.293,381.071,440.59,380.781,441.819,380.175z"
   id="path28"
   style="fill:#212121;fill-opacity:1" />
			<path
   d="M511.102,499.649l-4.403-8.806c-2.099-4.215-7.236-5.914-11.443-3.814c-3.695,1.843-5.47,6.016-4.429,9.847     c-1.903,1.562-3.106,3.942-3.106,6.588c0,4.719,3.814,8.533,8.533,8.533h7.211c2.961,0,5.7-1.527,7.262-4.036     C512.288,505.443,512.425,502.303,511.102,499.649z"
   id="path30"
   style="fill:#212121;fill-opacity:1" />
			<path
   d="M491.435,460.308l-7.637-15.258c-2.116-4.215-7.219-5.905-11.443-3.814c-4.215,2.108-5.931,7.228-3.823,11.443     l7.637,15.266c1.502,2.987,4.506,4.71,7.637,4.71c1.289,0,2.586-0.29,3.814-0.896     C491.836,469.652,493.543,464.523,491.435,460.308z"
   id="path32"
   style="fill:#212121;fill-opacity:1" />
			<path
   d="M392.219,289.483c1.28,0,2.586-0.29,3.806-0.896c4.215-2.116,5.931-7.236,3.823-11.452l-7.637-15.266     c-2.116-4.216-7.245-5.922-11.452-3.823c-4.215,2.108-5.922,7.236-3.814,11.452l7.629,15.266     C386.075,287.759,389.087,289.483,392.219,289.483z"
   id="path34"
   style="fill:#212121;fill-opacity:1" />
			<path
   d="M359.719,494.933h-17.067c-4.719,0-8.533,3.814-8.533,8.533c0,4.719,3.814,8.533,8.533,8.533h17.067     c4.719,0,8.533-3.814,8.533-8.533C368.252,498.747,364.438,494.933,359.719,494.933z"
   id="path36"
   style="fill:#212121;fill-opacity:1" />
			<path
   d="M410.919,494.933h-17.067c-4.719,0-8.533,3.814-8.533,8.533c0,4.719,3.814,8.533,8.533,8.533h17.067     c4.719,0,8.533-3.814,8.533-8.533C419.452,498.747,415.638,494.933,410.919,494.933z"
   id="path38"
   style="fill:#212121;fill-opacity:1" />
			<path
   d="M346.426,197.891c1.28,0,2.586-0.29,3.806-0.896c4.215-2.116,5.931-7.236,3.823-11.452l-7.637-15.258     c-2.116-4.215-7.236-5.914-11.452-3.823c-4.215,2.108-5.922,7.236-3.814,11.452l7.629,15.258     C340.282,196.167,343.295,197.891,346.426,197.891z"
   id="path40"
   style="fill:#212121;fill-opacity:1" />
			<path
   d="M331.152,139.75l-7.637-15.266c-2.108-4.215-7.228-5.905-11.443-3.814c-4.216,2.108-5.931,7.228-3.823,11.443     l7.637,15.275c1.502,2.987,4.506,4.71,7.637,4.71c1.289,0,2.586-0.29,3.814-0.896     C331.553,149.094,333.259,143.965,331.152,139.75z"
   id="path42"
   style="fill:#212121;fill-opacity:1" />
		</g>
	</g>
</g>
<g
   id="g50">
</g>
<g
   id="g52">
</g>
<g
   id="g54">
</g>
<g
   id="g56">
</g>
<g
   id="g58">
</g>
<g
   id="g60">
</g>
<g
   id="g62">
</g>
<g
   id="g64">
</g>
<g
   id="g66">
</g>
<g
   id="g68">
</g>
<g
   id="g70">
</g>
<g
   id="g72">
</g>
<g
   id="g74">
</g>
<g
   id="g76">
</g>
<g
   id="g78">
</g>
</svg>