<?xml version="1.0" encoding="UTF-8" standalone="no"?>
<svg
   xmlns:dc="http://purl.org/dc/elements/1.1/"
   xmlns:cc="http://creativecommons.org/ns#"
   xmlns:rdf="http://www.w3.org/1999/02/22-rdf-syntax-ns#"
   xmlns:svg="http://www.w3.org/2000/svg"
   xmlns="http://www.w3.org/2000/svg"
   xmlns:sodipodi="http://sodipodi.sourceforge.net/DTD/sodipodi-0.dtd"
   xmlns:inkscape="http://www.inkscape.org/namespaces/inkscape"
   height="511pt"
   viewBox="-21 0 511 511.99684"
   width="511pt"
   version="1.1"
   id="svg16"
   sodipodi:docname="topografie.svg"
   inkscape:version="0.92.4 (5da689c313, 2019-01-14)">
  <metadata
     id="metadata22">
    <rdf:RDF>
      <cc:Work
         rdf:about="">
        <dc:format>image/svg+xml</dc:format>
        <dc:type
           rdf:resource="http://purl.org/dc/dcmitype/StillImage" />
      </cc:Work>
    </rdf:RDF>
  </metadata>
  <defs
     id="defs20" />
  <sodipodi:namedview
     pagecolor="#ffffff"
     bordercolor="#666666"
     borderopacity="1"
     objecttolerance="10"
     gridtolerance="10"
     guidetolerance="10"
     inkscape:pageopacity="0"
     inkscape:pageshadow="2"
     inkscape:window-width="1850"
     inkscape:window-height="1016"
     id="namedview18"
     showgrid="false"
     inkscape:zoom="0.1224637"
     inkscape:cx="1936.5472"
     inkscape:cy="-1082.7145"
     inkscape:window-x="70"
     inkscape:window-y="27"
     inkscape:window-maximized="1"
     inkscape:current-layer="svg16" />
  <path
     d="M 320.91016,311.22656 H 136.60547 m 0,0 -10.41016,-39.70312 c -1.61718,-6.16016 -1.64843,-6.27735 3.66407,-11.63282 2.91796,-2.9414 2.89843,-7.6914 -0.0391,-10.60546 -2.9414,-2.91797 -7.6875,-2.90235 -10.60937,0.0391 -8.90625,8.98047 -10.52344,14.57031 -7.52735,26.0039 l 12.77735,48.72657 c 5.24219,19.98047 12.5664,19.60156 20.20312,25.01953 4.73047,3.35547 8.19141,10.00781 12.9375,15.79687 17.98828,21.94141 32.66016,7.45703 38.375,5.32032 1.57032,2.07812 3.41797,6.63671 7.96485,9.36718 6.28906,3.76953 13.8164,1.29297 18.375,1.21094 0.0156,0.13672 0.0234,0.28516 0.0352,0.45313 0.44532,8.55078 4.78125,16.54296 12.20703,22.5039 3.22266,2.58985 7.94532,2.08594 10.54688,-1.15234 2.59375,-3.22656 2.07812,-7.94922 -1.15234,-10.54297 -2.86329,-2.30078 -6.33985,-6.17969 -6.6211,-11.59375 -0.26562,-5.03516 -1.96484,-8.89453 -5.05078,-11.47266 -4.87891,-4.07812 -11.1875,-3.27734 -15.79297,-2.69531 -1.49219,0.1875 -3.92578,0.49609 -4.91015,0.33984 -1.63672,-1.73828 -3.60157,-7.63281 -9.50782,-10.32421 -6.85547,-3.1211 -12.79297,0.27343 -17.1289,2.7539 -6.125,3.50391 -8.66016,4.95703 -15.73828,-3.67578 -4.54297,-5.54297 -8.48829,-13.29687 -15.85938,-18.52344 -7.32422,-5.1914 -9.94922,-4.10156 -12.51172,-10.61328 m 0,0 H 317.6719 m 0,0 c -1.92188,10.92578 2.73828,13.10156 28.35156,38.72266 0.67187,0.66797 1.05859,1.10937 1.28125,1.38672 -0.0781,0.3125 -0.22266,0.80468 -0.48438,1.5625 l -18.20312,52.10547 c -7.4961,0.0859 -15.24219,-0.1875 -22.08985,-2.46875 -8.04687,-2.6836 -14.14843,-8.46875 -15.53906,-14.73829 -0.83203,-3.76953 -4.39844,-6.29296 -8.22265,-5.82421 -4.14454,0.5039 -8.83985,1.07421 -13.35547,1.29296 -4.13672,0.19532 -7.33203,3.71485 -7.13282,7.85157 0.19922,4.13672 3.70313,7.33984 7.85157,7.1289 2.89453,-0.14062 5.75781,-0.39453 8.5039,-0.6914 4.19532,8.61328 12.57422,15.6875 23.15235,19.21093 9.61328,3.20313 19.47656,3.39063 29.53515,3.19532 4.78907,-0.0899 9.07032,-3.1836 10.64844,-7.70703 l 19.01172,-54.40625 c 2.70312,-7.7461 1.56641,-12.58985 -4.34766,-18.50391 -14.17968,-14.18359 -22.87109,-22.27734 -24.33203,-24.80859 0.0664,-0.46485 0.2461,-1.28516 0.39844,-1.96875 1.95703,-8.96094 3.30859,-15.15625 6.22656,-28.53516 4.71094,-0.96875 10.0586,0.37891 13.49219,3.64453 6.50391,6.1875 8.96484,11.43359 22.51172,9.33984 10.53125,-1.6289 22.47265,-3.47265 32.99609,-9.5039 12.69531,-7.28125 20.4961,-20.01953 19.8711,-32.45313 -0.11329,-2.28906 -0.33594,-4.1875 -0.51563,-5.70703 -0.54297,-4.64453 -0.58594,-5.02344 6.39063,-11.59375 6.23437,-5.87109 17.04296,-18.02734 19.41406,-33.50781 0.98047,-6.37891 1.4375,-13.57422 -2.56641,-18.60938 -5.72265,-7.1914 -14.58984,-4.48046 -23.29297,-6.91015 -10.51562,-2.94141 -12.96094,-17.64453 -13.52344,-32.75391 3.875,0.96875 7.82032,2.14453 11.67188,3.28906 7.66016,2.28125 14.31641,5.17188 19.73828,0.74219 4.90235,-4.0039 4.48438,-10.375 4.04297,-17.11719 -0.38281,-5.83593 -0.81641,-12.45312 1.78516,-17.11328 5.55859,-9.95703 17.40234,-9.3164 18.55078,-36.914059 0.17187,-4.140625 -3.04297,-7.632812 -7.17969,-7.808593 -0.10547,-0.0039 -0.21094,-0.0039 -0.32031,-0.0039 -3.9961,0 -7.31641,3.15625 -7.48438,7.1875 -0.90625,21.710942 -8.25781,15.175782 -16.66406,30.226562 -4.76172,8.53125 -4.125,18.28516 -3.65625,25.40625 0.0508,0.7461 0.10547,1.58203 0.14844,2.40235 -1.53125,-0.44531 -3.08203,-0.90625 -4.6836,-1.38282 -5.53515,-1.64843 -11.26172,-3.35156 -17.04687,-4.55859 -7.3125,-1.52344 -14.14453,4.125 -14.01563,11.59375 0.0547,3.08984 0.12891,7.14063 0.5,11.6211 l 2.51552,15.00002 c 3,10.88671 9.08594,21.13671 21.58203,24.6289 6.70312,1.875 12.33594,1.63672 15.50391,2.17969 0.10156,0.9375 0.13672,2.90234 -0.4336,6.62109 -1.23437,8.0625 -6.65625,17.125 -14.87109,24.85938 -10.75,10.125 -12.1211,14.71484 -11.00391,24.25781 0.16797,1.4375 0.34375,2.92578 0.4336,4.71484 0.39062,7.79297 -5.92578,15.00391 -12.35547,18.6875 -8.10547,4.64844 -18.12891,6.19532 -27.82422,7.69532 -3.38281,0.52343 -4.1836,0.22265 -4.1875,0.21875 -0.57422,-0.23047 -3.11719,-3.14844 -5.69531,-5.60157 -8.8125,-8.38281 -22.60547,-10.52343 -33.54297,-5.20703 -2.06641,1.00391 -3.5586,2.89844 -4.04688,5.14453 l -4.2539,19.48047 m 22.27743,-142.6797 c -0.50781,-3.55079 -1.51172,-6.95313 -3.05078,-10.06641 -2.58985,-5.23047 -8.39453,-8.07813 -14.1211,-6.9375 -4.72656,0.94531 -9.97656,-0.97266 -12.7539,-4.66406 -3.22266,-4.28125 -3.12891,-11.17969 0.20312,-15.375 l 0.27344,-0.34375 c 5.28516,-6.64454 8.19531,-10.3086 6.44141,-15.51563 -1.67969,-4.99609 -6.29688,-6.17578 -11.1836,-7.42187 -4.20703,-1.07422 -10.3789,-2.65235 -18.94922,-6.50391 0.32813,-5.257815 1.83594,-18.132815 4.07813,-40.546878 l 0.0195,-0.207031 c 0.52734,-5.289063 0.68359,-6.0625 2.14844,-7.777344 3.79297,-4.425781 15.14062,-12.207031 39.96094,-31.28125 7.82031,-6.007812 9.1875,-6.269531 17.51953,-6.515625 21.45312,-0.636719 43.17968,-0.496094 64.65625,0.417969 0.67187,18.535156 13.78125,27.382812 21.84765,32.828125 4.01953,2.710937 8.875,5.589843 11.90235,15.386719 1.22656,3.957031 5.42578,6.175781 9.38281,4.949218 3.95703,-1.222656 6.17187,-5.421875 4.94922,-9.378906 -3.9961,-12.925781 -10.5586,-18.476562 -17.84375,-23.394531 -7.91016,-5.335938 -16.08594,-10.851563 -15.19531,-23.875 0.19531,-2.828125 -0.77344,-5.664063 -2.66016,-7.777344 -1.90234,-2.140625 -4.53125,-3.394531 -7.39063,-3.53125 -23.25,-1.0976562 -46.82812,-1.308594 -70.08984,-0.621094 -11.84766,0.351563 -16.25781,1.96875 -26.21484,9.621094 -43.80469,33.65625 -46.16016,32.070313 -47.89844,49.457031 l -0.0195,0.207032 c -2.86328,28.628906 -4.21875,38.800781 -4.20703,43.878905 0.008,5.28125 1.8789,8.52344 6.07031,10.52344 8.96094,4.27344 15.95703,6.46094 20.89063,7.80078 l -0.23047,0.28907 c -7.5625,9.51562 -7.75391,24.01171 -0.44532,33.72656 5.88282,7.82031 16.16407,11.96484 26.02735,10.63281 1.03125,2.69141 1.43359,5.78516 1.22656,9.00391 0,0.0312 0,0.0586 -0.004,0.0859 -0.27734,4.16797 -1.57421,8.54688 -3.83593,12.5625 -6.51172,11.55078 -38.01953,39.01172 -56.3711,41.17969 -11.2539,1.33594 -39.125,-6.50781 -47.80078,-16.88281 -2.60156,-3.11719 -2.05469,-4.91406 -1.82031,-5.67969 0.19922,-0.66406 1.37109,-2.46875 2.22266,-3.78125 3.54296,-5.45312 9.08593,-13.98828 7.24218,-26.04297 4.03907,-1.70703 8.23047,-3.92578 11.8086,-7.20312 7.10937,-6.50782 9.92968,-16.19922 7.01562,-24.10938 -1.05078,-2.86328 -3.73828,-4.80469 -6.78515,-4.90625 l -2.80079,-0.0937 c -0.043,-0.52344 -0.0898,-1.05078 -0.13671,-1.58594 -0.52344,-6.12499 -1.06641,-12.45703 -3.34766,-17.66015 -1.32813,-3.03516 -4.69141,-7.625 -18.50391,-12.42969 -5.99609,-2.08594 -14.21484,-4.19922 -18.32812,-4.19922 -6.01563,0 -8.46875,5.6875 -11.0625,11.71094 -2.01953,4.6875 -4.60156,11.35547 -7.58985,19.07813 -9.52343,24.59765 -23.91406,61.76953 -41.0664,89.66406 -2.16797,3.52734 -1.06641,8.14843 2.46094,10.3164 3.52734,2.16797 8.14843,1.06641 10.3164,-2.46093 17.86719,-29.0586 32.55469,-67 42.27344,-92.10547 3.11328,-8.03516 6.30469,-16.27735 8.29687,-20.65625 6.35157,1.38672 17.10547,5.07422 19.64063,7.52734 1.15234,2.98047 1.56641,7.8125 1.96875,12.49609 0.24609,2.88282 0.5,5.86329 0.94141,8.72657 0.55078,3.5625 3.55859,6.23047 7.16015,6.35156 l 1.85156,0.0625 c -0.5664,1.14453 -1.39843,2.26562 -2.43359,3.21094 -3.33203,3.05078 -8.32812,4.85547 -13.16016,6.60547 -1.88281,0.67968 -3.41406,2.08203 -4.2539,3.89453 -0.84375,1.8164 -0.92578,3.89062 -0.23047,5.76953 3.29297,8.86328 -0.17969,14.20703 -3.85547,19.86719 -1.63281,2.51562 -3.17578,4.89453 -3.99609,7.58203 -1.4336,4.71484 -1.78907,11.95312 4.66797,19.67187 11.30468,13.52344 40.32421,22.38672 56.86328,22.38672 1.51172,0 2.92187,-0.0742 4.20312,-0.22656 24.46094,-2.89453 59.47656,-34.16797 67.67188,-48.71484 2.16797,-3.84376 3.73437,-7.90235 4.6914,-12 z"
     id="path2"
     inkscape:connector-curvature="0"
     sodipodi:nodetypes="ccccccccccccccccccccccccccccccccccccccsccccccccccccccccccccccccccsccccccccccccccccccccccccccccccccccccccccccccccccccccccccccccccccccccccscccscccccccccccccccscccc"
     style="fill:#212121;fill-opacity:1" />
  <path
     d="m338.683594 468.992188c-4.5-3.253907-9.035156-3.601563-12.367188-3.855469-1.34375-.101563-2.503906-.1875-3.484375-.433594-4.234375-1.058594-7.609375-9.574219-14.90625-10.683594-2.84375-.433593-5.210937.394531-6.488281.839844-5.457031 3.054687-15.8125 1.40625-15.296875 16.042969.085937 2.246094-1 5.375-1.6875 8.789062-4.167969 20.609375 14.140625 22.667969 17.078125 25.058594 2.230469 6.84375 7.582031 7.246094 14.773438 7.246094 7.824218 0 15.613281-1.585938 22.832031-4.683594.992187-.425781 3.625-1.554688 5.28125-4.363281 2.839843-4.828125 1.375-18.949219.417969-24.464844-.730469-4.199219-2.289063-7.042969-6.152344-9.492187zm-7.699219 25.421874c-5.296875 1.925782-10.929687 2.792969-16.605469 2.535157-4.25-7.015625-13.679687-8.019531-15.21875-10.023438-1.488281-1.933593 2.078125-9.4375 1.984375-16.078125l4.167969-1.453125c7.183594 7.238281 9.484375 9.910157 19.863281 10.703125 2.410157.179688 3.578125.234375 4.925781 1.199219.734376 4.328125 1.03125 8.730469.882813 13.117187zm0 0"
     id="path4"
     style="fill:#212121;fill-opacity:1" />
  <path
     d="m101.414062 427.605469c-7.820312-5.445313-20.71875-1.589844-25.203124-1.742188-7.367188-.046875-21.140626-1.8125-25.054688-4.292969-3.71875-2.355468-9.203125-10.550781-27.203125-5.296874-21.851563 6.378906-26.464844 22.296874-21.8125 30.015624 1.148437 1.90625 2.683594 3.113282 3.890625 3.949219 6.179688 4.292969 13.722656 6.691407 21.246094 6.75 10.03125.046875 19.703125-3.671875 24.972656-.308593 1.175781.75 2.425781 2.070312 3.746094 3.472656.910156.964844 1.847656 1.960937 2.921875 2.957031 5.621093 5.21875 11.464843 6.515625 16.289062 5.441406 3.550781-.792969 6.132813-2.746093 8.019531-4.175781.429688-.324219 1.417969-.984375 2.457032-1.6875 10.824218-7.277344 21.402344-15.167969 21.476562-24.585938.035156-4.167968-2.003906-7.898437-5.746094-10.496093zm-24.09375 22.632812c-1.328124.890625-2.375 1.597657-3.140624 2.171875-.632813.480469-1.804688 1.367188-2.15625 1.488282-4.277344-.0625-7.96875-13.632813-25.796876-13.632813-3.519531 0-6.996093.476563-10.28125.925781-2.984374.410156-5.804687.792969-8.363281.792969-.0625 0-.125 0-.1875 0-4.023437-.03125-8.0625-1.171875-11.523437-3.242187 1.488281-3.714844 7.125-6.5625 12.285156-8.070313 9.992188-2.914063 9.375.023437 14.972656 3.570313 7.542969 4.777343 23.964844 6.5625 32.984375 6.617187 2.101563-.003906 4.4375-.269531 6.914063-.574219 1.9375-.234375 5.375-.648437 7.753906-.609375-1.835938 2.0625-5.699219 5.34375-13.460938 10.5625zm0 0"
     id="path6"
     style="fill:#212121;fill-opacity:1" />
  <path
     d="m106.277344 382.511719c-3.183594-2.136719-6.582032-3.476563-9.582032-4.65625-5.941406-2.339844-6.660156-2.824219-10.738281-6.4375-2.664062-2.355469-5.679687-5.023438-9.714843-6.738281-16.335938-6.953126-27.027344 2.917968-34.835938 10.121093-2.09375 1.929688-4.066406 3.75-6.078125 5.285157-3.3125 2.519531-3.9375 7.261718-1.390625 10.554687 9.039062 11.6875 13.375 15.332031 30.871094 21.667969 10.785156 3.90625 15.050781 4.546875 29.246094 2.390625 5.558593-.84375 10.8125-1.640625 15.222656-.394531 4.667968 1.316406 9.308594-2.0625 9.535156-6.863282.460938-9.722656-4.460938-19.507812-12.535156-24.929687zm-14.46875 17.355469c-4.851563.734374-9.429688 1.433593-13.5.816406-2.652344-.398438-5.441406-1.410156-8.390625-2.480469-8.613281-3.117187-14.292969-5.246094-19.621094-11.199219.429687-.394531.855469-.789062 1.277344-1.179687 8.261719-7.621094 12.023437-10.226563 18.792969-7.34375 3.292968 1.398437 6.796874 5.785156 11.613281 8.914062 8.101562 5.265625 15.378906 4.84375 19.589843 11.332031-3.394531.171876-6.675781.671876-9.761718 1.140626zm0 0"
     id="path8"
     style="fill:#212121;fill-opacity:1" />
  <path
     d="m124.914062 341.066406c-2.433593-2.375-4.128906-6.003906-5.929687-9.847656-4.308594-9.207031-10.210937-21.820312-30.304687-22.234375-.085938-.003906-.167969-.003906-.253907-.003906-12.296875 0-28.296875 18.105469-30.09375 20.183593-6.316406 7.3125-7.253906 10.964844-6.710937 14.199219 1.421875 8.464844 12.46875 11.0625 25.257812 14.066407 8.375 1.96875 8.332032 1.109374 25.671875 13.953124 5.621094 4.164063 10.929688 8.097657 15.664063 10.695313 3.992187 2.1875 7.539062 3.285156 10.621094 3.28125 2.675781 0 5-.824219 6.960937-2.46875 2.015625-.980469 6.964844-3.632813 8.011719-9.964844 1.320312-7.984375-4.507813-17.8125-18.894532-31.859375zm2.921876 29.050782c-3.511719-1.269532-11.144532-6.925782-16.355469-10.785157-19.316407-14.308593-20.742188-14.054687-31.171875-16.503906-2.886719-.679687-7.863282-1.847656-11.433594-3.007813 5.074219-6.082031 15.472656-15.347656 19.578125-15.839843 10.699219.246093 13.050781 5.277343 16.945313 13.597656 2.183593 4.660156 4.652343 9.941406 9.035156 14.21875 10.765625 10.515625 13.570312 15.808594 14.300781 17.847656-.277344.132813-.578125.289063-.898437.472657zm0 0"
     id="path10"
     style="fill:#212121;fill-opacity:1" />
  <path
     d="m239.828125 192.539062c-7.9375 7.121094-6.515625 18.753907 3.34375 23.277344 3.164063 1.453125 6.417969 1.765625 8.566406 1.976563 18.71875 1.816406 22.125 1.609375 30.027344-3.746094 8.511719-5.765625 16.09375-12.507813 23.78125-19.316406 3.902344-3.429688 10.4375-9.171875 10.285156-16.726563-.09375-4.753906-3.144531-8.59375-7.964843-10.023437-3.722657-1.105469-8.054688-.6875-9.625-.921875-2.636719-.714844-5.90625-2.140625-9.964844-2.355469-15.484375-.816406-19.90625 13.390625-40.519532 23.101563-2.871093 1.339843-5.472656 2.53125-7.929687 4.734374zm34.433594-4.203124c.65625-.574219 1.320312-1.167969 1.984375-1.765626 12.769531-11.449218 10.917968-5.386718 21-4.539062-4.605469 4.246094-23.253906 20.617188-27.675782 21.640625-2.109374.492187-15.984374-.707031-18.117187-1.003906 2.46875-1.296875 12.4375-5.257813 22.808594-14.332031zm0 0"
     id="path12"
     style="fill:#212121;fill-opacity:1" />
  <path
     d="m198.257812 85.179688c8.09375 3.996093 10.496094 6.339843 14.933594 5.988281 4.386719-.347657 7.011719-3.410157 8.132813-4.714844 4.097656-4.777344 8.867187-8.90625 14.234375-12.3125 4.332031-2.75 6.410156-5.738281 6.453125-11.335937.023437-3.964844.613281-9.234376 1.179687-14.332032 1.355469-12.179687 1.886719-18.214844-.824218-22.34375-4.546876-6.917968-14.148438-6.433594-19.640626-1.421875-3.550781 3.246094-5 7.964844-6.425781 9.140625-2.066406 1.703125-7.035156 2.484375-11.726562 7.125-2.808594 2.78125-6.421875 8.757813-11.917969 32.003906-.25 1.070313-1.023438 4.328126.71875 7.636719 1.449219 2.765625 3.855469 4.027344 4.882812 4.566407zm16.929688-33.605469c2.214844-2.136719 6.492188-2.726563 10.648438-6.152344 1.179687-.972656 2.132812-2.023437 2.933593-3.085937-.164062 1.570312-.335937 3.121093-.484375 4.476562-.574218 5.132812-1.164062 10.429688-1.261718 14.980469-5.792969 3.730469-11.0625 8.199219-15.6875 13.308593l-3.339844-1.753906c4.316406-17.554687 6.796875-21.265625 7.191406-21.773437zm0 0"
     id="path14"
     style="fill:#212121;fill-opacity:1" />
</svg>
