<?xml version="1.0" encoding="UTF-8" standalone="no"?>
<svg
   xmlns:dc="http://purl.org/dc/elements/1.1/"
   xmlns:cc="http://creativecommons.org/ns#"
   xmlns:rdf="http://www.w3.org/1999/02/22-rdf-syntax-ns#"
   xmlns:svg="http://www.w3.org/2000/svg"
   xmlns="http://www.w3.org/2000/svg"
   xmlns:sodipodi="http://sodipodi.sourceforge.net/DTD/sodipodi-0.dtd"
   xmlns:inkscape="http://www.inkscape.org/namespaces/inkscape"
   version="1.1"
   id="Capa_1"
   x="0px"
   y="0px"
   viewBox="0 0 480 480"
   style="enable-background:new 0 0 480 480;"
   xml:space="preserve"
   sodipodi:docname="begrijpen-van-gedrag.svg"
   inkscape:version="1.0.1 (c497b03c, 2020-09-10)"><metadata
   id="metadata916"><rdf:RDF><cc:Work
       rdf:about=""><dc:format>image/svg+xml</dc:format><dc:type
         rdf:resource="http://purl.org/dc/dcmitype/StillImage" /></cc:Work></rdf:RDF></metadata><defs
   id="defs914" /><sodipodi:namedview
   pagecolor="#ffffff"
   bordercolor="#666666"
   borderopacity="1"
   objecttolerance="10"
   gridtolerance="10"
   guidetolerance="10"
   inkscape:pageopacity="0"
   inkscape:pageshadow="2"
   inkscape:window-width="1920"
   inkscape:window-height="1027"
   id="namedview912"
   showgrid="false"
   inkscape:zoom="1.8520833"
   inkscape:cx="240"
   inkscape:cy="240"
   inkscape:window-x="0"
   inkscape:window-y="25"
   inkscape:window-maximized="0"
   inkscape:current-layer="Capa_1" />
<g
   id="g855"
   style="fill:#212121;fill-opacity:1">
	<g
   id="g853"
   style="fill:#212121;fill-opacity:1">
		<path
   d="M248,48c-83.947,0-152,68.053-152,152s68.053,152,152,152s152-68.053,152-152C399.905,116.092,331.908,48.095,248,48z     M248,336c-75.111,0-136-60.889-136-136S172.89,64,248,64s136,60.889,136,136C383.917,275.076,323.076,335.916,248,336z"
   id="path851"
   style="fill:#212121;fill-opacity:1" />
	</g>
</g>
<g
   id="g861"
   style="fill:#212121;fill-opacity:1">
	<g
   id="g859"
   style="fill:#212121;fill-opacity:1">
		<path
   d="M360.735,178.531l-11.594-2.438c-0.477-2.008-1.016-4.01-1.617-6.008l8.891-7.973c2.554-2.284,3.368-5.942,2.023-9.094    c-3.861-8.954-8.796-17.405-14.695-25.168c-2.064-2.728-5.631-3.847-8.883-2.785l-11.188,3.672    c-1.422-1.512-2.898-2.984-4.406-4.41l3.672-11.176c1.066-3.251-0.051-6.82-2.781-8.883c-7.765-5.907-16.22-10.846-25.18-14.707    c-3.152-1.337-6.806-0.524-9.094,2.023l-7.969,8.895c-2-0.602-4.003-1.142-6.008-1.621l-2.438-11.594    c-0.78-3.701-4.045-6.351-7.828-6.352H234.36c-3.783,0.001-7.048,2.65-7.828,6.352l-2.438,11.594    c-2.008,0.477-4.01,1.017-6.008,1.621l-7.969-8.898c-2.287-2.549-5.942-3.362-9.094-2.023c-8.959,3.862-17.415,8.8-25.18,14.707    c-2.73,2.062-3.848,5.632-2.781,8.883l3.672,11.176c-1.508,1.43-2.984,2.898-4.406,4.41l-11.172-3.672    c-3.251-1.06-6.817,0.056-8.883,2.781c-5.908,7.763-10.848,16.218-14.711,25.176c-1.344,3.152-0.531,6.81,2.023,9.094l8.891,7.973    c-0.594,1.973-1.133,3.961-1.602,5.945l-12.438,2.48c-3.743,0.743-6.438,4.028-6.437,7.844v27.285    c-0.001,3.816,2.695,7.1,6.438,7.844l12.438,2.481c0.469,1.988,1.008,3.973,1.602,5.949l-8.891,7.973    c-2.554,2.284-3.368,5.942-2.023,9.094c3.861,8.954,8.796,17.405,14.695,25.168c2.064,2.728,5.631,3.847,8.883,2.785l11.188-3.672    c1.422,1.512,2.898,2.984,4.406,4.41l-3.672,11.176c-1.066,3.251,0.051,6.82,2.781,8.883c7.764,5.907,16.22,10.846,25.18,14.707    c3.151,1.347,6.811,0.533,9.094-2.023l7.969-8.895c2,0.602,4.003,1.142,6.008,1.621l2.438,11.594    c0.78,3.701,4.045,6.351,7.828,6.352h27.281c3.783-0.001,7.048-2.65,7.828-6.352l2.438-11.594c2.008-0.477,4.01-1.017,6.008-1.621    l7.969,8.898c2.285,2.553,5.942,3.367,9.094,2.023c8.959-3.862,17.415-8.8,25.18-14.707c2.73-2.062,3.848-5.632,2.781-8.883    l-3.672-11.176c1.508-1.43,2.984-2.898,4.406-4.41l11.172,3.672c3.251,1.081,6.829-0.039,8.883-2.781    c5.908-7.763,10.848-16.218,14.711-25.176c1.344-3.152,0.531-6.81-2.023-9.094l-8.891-7.973c0.602-1.996,1.141-3.999,1.617-6.008    l11.586-2.434c3.706-0.774,6.361-4.042,6.359-7.828v-27.285C367.088,182.576,364.438,179.309,360.735,178.531z M351.086,207.148    l-10.344,2.176c-3.189,0.668-5.655,3.203-6.234,6.41c-0.863,4.742-2.12,9.404-3.758,13.937c-1.102,3.065-0.234,6.493,2.195,8.664    l8.391,7.523c-2.083,4.169-4.445,8.192-7.07,12.043l-10.57-3.473c-3.098-1.015-6.502-0.053-8.609,2.434    c-3.123,3.689-6.546,7.114-10.234,10.238c-2.478,2.108-3.435,5.506-2.422,8.598l3.477,10.566    c-3.852,2.625-7.877,4.989-12.047,7.074l-7.523-8.398c-2.176-2.42-5.599-3.286-8.664-2.191c-4.534,1.636-9.196,2.893-13.937,3.758    c-3.203,0.58-5.735,3.042-6.406,6.227l-2.18,10.352h-14.297l-2.18-10.352c-0.671-3.185-3.203-5.647-6.406-6.227    c-4.744-0.865-9.409-2.122-13.946-3.758c-3.066-1.09-6.487-0.223-8.664,2.195l-7.515,8.391c-4.168-2.087-8.193-4.449-12.047-7.07    l3.477-10.57c1.013-3.092,0.056-6.489-2.422-8.598c-3.691-3.132-7.121-6.559-10.258-10.246c-2.1-2.484-5.498-3.442-8.586-2.422    l-10.57,3.469c-2.623-3.851-4.985-7.873-7.07-12.039l8.391-7.523c2.429-2.171,3.297-5.598,2.195-8.664    c-1.639-4.533-2.896-9.195-3.758-13.937c-0.583-3.236-3.087-5.786-6.313-6.426L144,207.078v-14.16l11.18-2.23    c3.225-0.64,5.73-3.19,6.313-6.426c0.864-4.741,2.121-9.401,3.758-13.934c1.102-3.066,0.234-6.493-2.195-8.664l-8.391-7.524    c2.083-4.169,4.446-8.192,7.07-12.043l10.57,3.473c3.098,1.017,6.503,0.055,8.609-2.434c3.123-3.689,6.546-7.114,10.234-10.238    c2.478-2.108,3.435-5.506,2.422-8.598l-3.477-10.57c3.853-2.623,7.878-4.985,12.047-7.07l7.523,8.398    c2.176,2.42,5.599,3.286,8.664,2.191c4.534-1.636,9.196-2.893,13.937-3.758c3.203-0.58,5.735-3.042,6.406-6.227l2.18-10.352    h14.297l2.18,10.352c0.671,3.185,3.204,5.646,6.406,6.227c4.744,0.865,9.409,2.122,13.945,3.758    c3.066,1.101,6.492,0.232,8.664-2.195l7.516-8.391c4.168,2.087,8.193,4.449,12.047,7.07l-3.477,10.57    c-1.013,3.092-0.056,6.489,2.422,8.598c3.691,3.132,7.121,6.559,10.258,10.246c2.106,2.474,5.498,3.431,8.586,2.422l10.57-3.469    c2.623,3.851,4.985,7.873,7.07,12.039l-8.391,7.523c-2.429,2.171-3.297,5.598-2.195,8.664c1.639,4.533,2.896,9.195,3.758,13.937    c0.576,3.206,3.039,5.741,6.227,6.41l10.352,2.176V207.148z"
   id="path857"
   style="fill:#212121;fill-opacity:1" />
	</g>
</g>
<g
   id="g867"
   style="fill:#212121;fill-opacity:1">
	<g
   id="g865"
   style="fill:#212121;fill-opacity:1">
		<path
   d="M248,128c-39.764,0-72,32.235-72,72c0,39.764,32.236,72,72,72c39.765,0,72-32.236,72-72    C319.955,160.254,287.746,128.045,248,128z M248,256c-30.928,0-56-25.072-56-56c0-30.928,25.072-56,56-56    c30.928,0,56,25.072,56,56C303.964,230.913,278.913,255.964,248,256z"
   id="path863"
   style="fill:#212121;fill-opacity:1" />
	</g>
</g>
<g
   id="g873"
   style="fill:#212121;fill-opacity:1">
	<g
   id="g871"
   style="fill:#212121;fill-opacity:1">
		<path
   d="M286.657,195.563c-0.586-0.879-1.34-1.633-2.219-2.219l0,0l-48-32c-3.676-2.451-8.642-1.458-11.093,2.217    C224.468,164.875,224,166.42,224,168v64c0,4.418,3.582,8,8,8c1.579,0,3.123-0.468,4.437-1.344l48-32    C288.114,204.205,289.107,199.239,286.657,195.563z M240,217.051v-34.102L265.578,200L240,217.051z"
   id="path869"
   style="fill:#212121;fill-opacity:1" />
	</g>
</g>
<g
   id="g879"
   style="fill:#212121;fill-opacity:1">
	<g
   id="g877"
   style="fill:#212121;fill-opacity:1">
		<path
   d="M248,0C137.871,0.11,48.509,89.149,48,199.277L32.11,294.684c-0.726,4.359,2.22,8.482,6.579,9.208    C39.122,303.964,39.561,304,40,304h40v80c-0.001,4.417,3.579,7.999,7.996,8c0.001,0,0.003,0,0.004,0h104v80    c-0.001,4.417,3.579,7.999,7.996,8c0.001,0,0.003,0,0.004,0h240c4.417,0.001,7.999-3.579,8-7.996c0-0.001,0-0.003,0-0.004V199.945    C447.861,89.555,358.391,0.109,248,0z M432,464H208v-80c0.001-4.417-3.579-7.999-7.996-8c-0.001,0-0.003,0-0.004,0H96v-80    c0.001-4.417-3.579-7.999-7.996-8c-0.001,0-0.003,0-0.004,0H49.446l14.445-86.742c0.072-0.434,0.108-0.873,0.109-1.313    c0-101.62,82.38-184,184-184s184,82.38,184,184V464z"
   id="path875"
   style="fill:#212121;fill-opacity:1" />
	</g>
</g>
<g
   id="g881"
   style="fill:#212121;fill-opacity:1">
</g>
<g
   id="g883"
   style="fill:#212121;fill-opacity:1">
</g>
<g
   id="g885"
   style="fill:#212121;fill-opacity:1">
</g>
<g
   id="g887"
   style="fill:#212121;fill-opacity:1">
</g>
<g
   id="g889"
   style="fill:#212121;fill-opacity:1">
</g>
<g
   id="g891"
   style="fill:#212121;fill-opacity:1">
</g>
<g
   id="g893"
   style="fill:#212121;fill-opacity:1">
</g>
<g
   id="g895"
   style="fill:#212121;fill-opacity:1">
</g>
<g
   id="g897"
   style="fill:#212121;fill-opacity:1">
</g>
<g
   id="g899"
   style="fill:#212121;fill-opacity:1">
</g>
<g
   id="g901"
   style="fill:#212121;fill-opacity:1">
</g>
<g
   id="g903"
   style="fill:#212121;fill-opacity:1">
</g>
<g
   id="g905"
   style="fill:#212121;fill-opacity:1">
</g>
<g
   id="g907"
   style="fill:#212121;fill-opacity:1">
</g>
<g
   id="g909"
   style="fill:#212121;fill-opacity:1">
</g>
</svg>
