<?xml version="1.0" encoding="UTF-8" standalone="no"?>
<svg
   xmlns:dc="http://purl.org/dc/elements/1.1/"
   xmlns:cc="http://creativecommons.org/ns#"
   xmlns:rdf="http://www.w3.org/1999/02/22-rdf-syntax-ns#"
   xmlns:svg="http://www.w3.org/2000/svg"
   xmlns="http://www.w3.org/2000/svg"
   xmlns:sodipodi="http://sodipodi.sourceforge.net/DTD/sodipodi-0.dtd"
   xmlns:inkscape="http://www.inkscape.org/namespaces/inkscape"
   version="1.1"
   id="Layer_1"
   x="0px"
   y="0px"
   viewBox="0 0 512 512"
   style="enable-background:new 0 0 512 512;"
   xml:space="preserve"
   sodipodi:docname="burgerschapsvorming.svg"
   inkscape:version="1.0.1 (c497b03c, 2020-09-10)"><metadata
   id="metadata978"><rdf:RDF><cc:Work
       rdf:about=""><dc:format>image/svg+xml</dc:format><dc:type
         rdf:resource="http://purl.org/dc/dcmitype/StillImage" /></cc:Work></rdf:RDF></metadata><defs
   id="defs976" /><sodipodi:namedview
   pagecolor="#ffffff"
   bordercolor="#666666"
   borderopacity="1"
   objecttolerance="10"
   gridtolerance="10"
   guidetolerance="10"
   inkscape:pageopacity="0"
   inkscape:pageshadow="2"
   inkscape:window-width="1920"
   inkscape:window-height="1027"
   id="namedview974"
   showgrid="false"
   inkscape:zoom="1.7363281"
   inkscape:cx="256"
   inkscape:cy="315.32058"
   inkscape:window-x="0"
   inkscape:window-y="25"
   inkscape:window-maximized="0"
   inkscape:current-layer="Layer_1" />
<g
   id="g941"
   style="fill:#212121;fill-opacity:1">
	<g
   id="g939"
   style="fill:#212121;fill-opacity:1">
		<path
   d="M361.801,177.594l66.841-89.629c2.669-3.579,3.091-8.359,1.088-12.351s-6.086-6.512-10.553-6.512H131.395V54.049    c9.736-4.484,16.515-14.328,16.515-25.731C147.909,12.704,135.206,0,119.591,0S91.272,12.704,91.272,28.318    c0,11.402,6.777,21.245,16.511,25.73v434.342H92.822c-6.519,0-11.805,5.285-11.805,11.805S86.303,512,92.822,512h53.537    c6.519,0,11.805-5.285,11.805-11.805s-5.286-11.805-11.805-11.805h-14.965V285.645h287.354c4.464,0,8.546-2.518,10.549-6.508    c2.003-3.989,1.585-8.768-1.081-12.348L361.801,177.594z M119.591,35.387c-3.898,0-7.068-3.171-7.068-7.069    c-0.001-3.897,3.17-7.068,7.068-7.068s7.069,3.171,7.069,7.068C126.66,32.216,123.488,35.387,119.591,35.387z M131.396,262.035    v-0.001v-39.21h37.623c6.52,0,11.805-5.285,11.805-11.805s-5.285-11.805-11.805-11.805h-37.623v-43.676h58.871    c6.52,0,11.805-5.285,11.805-11.805c0-6.52-5.285-11.805-11.805-11.805h-58.871V92.714h264.251l-58.033,77.819    c-3.12,4.184-3.122,9.921-0.005,14.109l57.63,77.394H131.396z"
   id="path937"
   style="fill:#212121;fill-opacity:1" />
	</g>
</g>
<g
   id="g943"
   style="fill:#212121;fill-opacity:1">
</g>
<g
   id="g945"
   style="fill:#212121;fill-opacity:1">
</g>
<g
   id="g947"
   style="fill:#212121;fill-opacity:1">
</g>
<g
   id="g949"
   style="fill:#212121;fill-opacity:1">
</g>
<g
   id="g951"
   style="fill:#212121;fill-opacity:1">
</g>
<g
   id="g953"
   style="fill:#212121;fill-opacity:1">
</g>
<g
   id="g955"
   style="fill:#212121;fill-opacity:1">
</g>
<g
   id="g957"
   style="fill:#212121;fill-opacity:1">
</g>
<g
   id="g959"
   style="fill:#212121;fill-opacity:1">
</g>
<g
   id="g961"
   style="fill:#212121;fill-opacity:1">
</g>
<g
   id="g963"
   style="fill:#212121;fill-opacity:1">
</g>
<g
   id="g965"
   style="fill:#212121;fill-opacity:1">
</g>
<g
   id="g967"
   style="fill:#212121;fill-opacity:1">
</g>
<g
   id="g969"
   style="fill:#212121;fill-opacity:1">
</g>
<g
   id="g971"
   style="fill:#212121;fill-opacity:1">
</g>
</svg>
