<?xml version="1.0" encoding="UTF-8" standalone="no"?>
<svg
   xmlns:dc="http://purl.org/dc/elements/1.1/"
   xmlns:cc="http://creativecommons.org/ns#"
   xmlns:rdf="http://www.w3.org/1999/02/22-rdf-syntax-ns#"
   xmlns:svg="http://www.w3.org/2000/svg"
   xmlns="http://www.w3.org/2000/svg"
   xmlns:sodipodi="http://sodipodi.sourceforge.net/DTD/sodipodi-0.dtd"
   xmlns:inkscape="http://www.inkscape.org/namespaces/inkscape"
   version="1.1"
   id="Layer_1"
   x="0px"
   y="0px"
   viewBox="0 0 512 512"
   style="enable-background:new 0 0 512 512;"
   xml:space="preserve"
   sodipodi:docname="cognitieve-ontwikkeling.svg"
   inkscape:version="1.0.1 (c497b03c, 2020-09-10)"><metadata
   id="metadata1000"><rdf:RDF><cc:Work
       rdf:about=""><dc:format>image/svg+xml</dc:format><dc:type
         rdf:resource="http://purl.org/dc/dcmitype/StillImage" /></cc:Work></rdf:RDF></metadata><defs
   id="defs998" /><sodipodi:namedview
   pagecolor="#ffffff"
   bordercolor="#666666"
   borderopacity="1"
   objecttolerance="10"
   gridtolerance="10"
   guidetolerance="10"
   inkscape:pageopacity="0"
   inkscape:pageshadow="2"
   inkscape:window-width="1920"
   inkscape:window-height="1027"
   id="namedview996"
   showgrid="false"
   inkscape:zoom="1.7363281"
   inkscape:cx="256"
   inkscape:cy="224.89989"
   inkscape:window-x="0"
   inkscape:window-y="25"
   inkscape:window-maximized="1"
   inkscape:current-layer="Layer_1" />
<g
   id="g919"
   transform="matrix(-1,0,0,1,511.99968,0)"
   style="fill:#212121;fill-opacity:1">
	<g
   id="g917"
   style="fill:#212121;fill-opacity:1">
		<path
   d="M 463.706,305.445 421.681,200.738 c 0.295,-4.323 0.445,-8.676 0.445,-12.966 C 422.126,84.285 337.933,0.051 234.353,0 131.452,0 47.218,83.705 46.582,186.593 c -0.124,20.131 2.933,39.983 9.087,59.008 l 27.819,118.566 c 3.847,16.392 5.796,33.239 5.796,50.073 V 512 H 320.08 v -60.668 c 0,-10.125 8.238,-18.363 18.363,-18.363 h 18.727 c 26.633,0 48.302,-21.668 48.302,-48.302 v -46.572 h 36.157 c 7.909,0 15.276,-3.912 19.706,-10.463 4.431,-6.552 5.317,-14.846 2.371,-22.187 z m -14.989,13.657 c -1.617,2.39 -4.2,3.762 -7.087,3.762 h -51.389 v 61.804 c 0,18.235 -14.834,33.07 -33.07,33.07 h -18.727 c -18.525,0 -33.596,15.071 -33.596,33.596 v 45.434 h -200.331 -10e-4 v -82.525 c 0,-18.004 -2.086,-36.021 -6.199,-53.551 L 70.425,241.815 70.252,241.199 c -5.714,-17.565 -8.555,-35.905 -8.439,-54.51 0.584,-94.54 77.984,-171.454 172.624,-171.454 95.092,0.047 172.455,77.448 172.455,172.541 0,4.491 -0.178,9.059 -0.529,13.578 l -0.138,1.775 43.344,107.993 c 1.076,2.679 0.765,5.588 -0.852,7.98 z"
   id="path915"
   style="fill:#212121;fill-opacity:1" />
	</g>
</g>
<g
   id="g929"
   transform="matrix(-1,0,0,1,511.99968,0)"
   style="fill:#212121;fill-opacity:1">
	<g
   id="g927"
   style="fill:#212121;fill-opacity:1">
		<g
   id="g925"
   style="fill:#212121;fill-opacity:1">
			<path
   d="m 342.893,202.364 v -54.428 h -25.56 c -1.665,-5.376 -3.822,-10.58 -6.451,-15.562 L 328.959,114.296 290.472,75.81 272.395,93.887 c -4.982,-2.628 -10.186,-4.786 -15.563,-6.451 v -25.56 h -54.428 v 25.559 c -5.376,1.665 -10.58,3.823 -15.562,6.451 l -18.077,-18.077 -38.487,38.486 18.077,18.078 c -2.629,4.982 -4.786,10.186 -6.451,15.562 h -25.56 v 54.428 h 25.56 c 1.665,5.376 3.822,10.58 6.451,15.562 l -18.077,18.078 38.487,38.486 18.077,-18.077 c 4.983,2.628 10.187,4.786 15.563,6.451 v 25.56 h 54.428 v 0 -25.559 c 5.375,-1.665 10.579,-3.823 15.562,-6.451 l 18.077,18.077 38.487,-38.486 -18.077,-18.078 c 2.629,-4.982 4.786,-10.186 6.451,-15.562 z m -35.475,33.638 -16.946,16.946 -15.667,-15.667 -5.122,3.151 c -6.897,4.243 -14.377,7.343 -22.233,9.216 l -5.85,1.395 v 22.149 h -23.964 -0.001 v -22.145 l -5.85,-1.395 c -7.856,-1.873 -15.336,-4.973 -22.233,-9.216 l -5.122,-3.151 -15.667,15.667 -16.946,-16.946 15.667,-15.667 -3.152,-5.123 c -4.243,-6.895 -7.342,-14.376 -9.216,-22.233 l -1.394,-5.85 h -22.15 v -23.964 h 22.15 l 1.394,-5.85 c 1.874,-7.858 4.974,-15.338 9.216,-22.233 l 3.152,-5.123 -15.667,-15.667 16.946,-16.946 15.667,15.667 5.123,-3.152 c 6.894,-4.242 14.374,-7.341 22.232,-9.215 l 5.85,-1.395 V 77.107 h 23.964 V 99.25 l 5.85,1.395 c 7.859,1.874 15.338,4.973 22.232,9.215 l 5.123,3.152 15.667,-15.667 16.946,16.946 -15.666,15.667 3.151,5.123 c 4.243,6.895 7.342,14.376 9.216,22.233 l 1.394,5.85 h 22.151 v 23.964 h -22.15 l -1.394,5.85 c -1.874,7.858 -4.974,15.338 -9.216,22.233 l -3.151,5.123 z"
   id="path921"
   style="fill:#212121;fill-opacity:1" />
			<path
   d="m 229.618,113.495 c -33.996,0 -61.653,27.657 -61.653,61.654 0,33.997 27.657,61.654 61.653,61.654 33.996,0 61.654,-27.657 61.654,-61.654 0,-33.997 -27.659,-61.654 -61.654,-61.654 z m 0,108.076 c -25.597,0 -46.42,-20.825 -46.42,-46.421 0,-25.596 20.824,-46.421 46.42,-46.421 25.597,0 46.421,20.825 46.421,46.421 0,25.596 -20.825,46.421 -46.421,46.421 z"
   id="path923"
   style="fill:#212121;fill-opacity:1" />
		</g>
	</g>
</g>
<g
   id="g939"
   transform="matrix(-1,0,0,1,511.99968,0)"
   style="fill:#212121;fill-opacity:1">
	<g
   id="g937"
   style="fill:#212121;fill-opacity:1">
		<g
   id="g935"
   style="fill:#212121;fill-opacity:1">
			<path
   d="m 229.618,113.495 c -33.996,0 -61.653,27.657 -61.653,61.654 0,33.997 27.657,61.654 61.653,61.654 33.996,0 61.654,-27.657 61.654,-61.654 0,-33.997 -27.659,-61.654 -61.654,-61.654 z m 0,108.076 c -25.597,0 -46.42,-20.825 -46.42,-46.421 0,-25.596 20.824,-46.421 46.42,-46.421 25.597,0 46.421,20.825 46.421,46.421 0,25.596 -20.825,46.421 -46.421,46.421 z"
   id="path931"
   style="fill:#212121;fill-opacity:1" />
			<path
   d="m 229.618,143.354 c -17.53,0 -31.793,14.263 -31.793,31.794 0,17.531 14.263,31.794 31.793,31.794 17.531,0 31.794,-14.263 31.794,-31.794 0,-17.531 -14.263,-31.794 -31.794,-31.794 z m 0,48.357 c -9.131,0 -16.561,-7.429 -16.561,-16.562 0,-9.132 7.429,-16.562 16.561,-16.562 9.131,0 16.562,7.429 16.562,16.562 -0.001,9.133 -7.43,16.562 -16.562,16.562 z"
   id="path933"
   style="fill:#212121;fill-opacity:1" />
		</g>
	</g>
</g>
<g
   id="g945"
   style="fill:#212121;fill-opacity:1">
	<g
   id="g943"
   style="fill:#212121;fill-opacity:1">
		
	</g>
</g>
<g
   id="g951"
   style="fill:#212121;fill-opacity:1">
	<g
   id="g949"
   style="fill:#212121;fill-opacity:1">
		
	</g>
</g>
<g
   id="g957"
   style="fill:#212121;fill-opacity:1">
	<g
   id="g955"
   style="fill:#212121;fill-opacity:1">
		
	</g>
</g>
<g
   id="g963"
   style="fill:#212121;fill-opacity:1">
	<g
   id="g961"
   style="fill:#212121;fill-opacity:1">
		
	</g>
</g>
<g
   id="g965"
   style="fill:#212121;fill-opacity:1">
</g>
<g
   id="g967"
   style="fill:#212121;fill-opacity:1">
</g>
<g
   id="g969"
   style="fill:#212121;fill-opacity:1">
</g>
<g
   id="g971"
   style="fill:#212121;fill-opacity:1">
</g>
<g
   id="g973"
   style="fill:#212121;fill-opacity:1">
</g>
<g
   id="g975"
   style="fill:#212121;fill-opacity:1">
</g>
<g
   id="g977"
   style="fill:#212121;fill-opacity:1">
</g>
<g
   id="g979"
   style="fill:#212121;fill-opacity:1">
</g>
<g
   id="g981"
   style="fill:#212121;fill-opacity:1">
</g>
<g
   id="g983"
   style="fill:#212121;fill-opacity:1">
</g>
<g
   id="g985"
   style="fill:#212121;fill-opacity:1">
</g>
<g
   id="g987"
   style="fill:#212121;fill-opacity:1">
</g>
<g
   id="g989"
   style="fill:#212121;fill-opacity:1">
</g>
<g
   id="g991"
   style="fill:#212121;fill-opacity:1">
</g>
<g
   id="g993"
   style="fill:#212121;fill-opacity:1">
</g>
</svg>
