<?xml version="1.0" encoding="UTF-8" standalone="no"?>
<svg
   xmlns:dc="http://purl.org/dc/elements/1.1/"
   xmlns:cc="http://creativecommons.org/ns#"
   xmlns:rdf="http://www.w3.org/1999/02/22-rdf-syntax-ns#"
   xmlns:svg="http://www.w3.org/2000/svg"
   xmlns="http://www.w3.org/2000/svg"
   xmlns:sodipodi="http://sodipodi.sourceforge.net/DTD/sodipodi-0.dtd"
   xmlns:inkscape="http://www.inkscape.org/namespaces/inkscape"
   id="_x33_0"
   enable-background="new 0 0 64 64"
   height="512"
   viewBox="0 0 64 64"
   width="512"
   version="1.1"
   sodipodi:docname="creatieve-ontwikkeling.svg"
   inkscape:version="1.0.1 (c497b03c, 2020-09-10)">
  <metadata
     id="metadata1013">
    <rdf:RDF>
      <cc:Work
         rdf:about="">
        <dc:format>image/svg+xml</dc:format>
        <dc:type
           rdf:resource="http://purl.org/dc/dcmitype/StillImage" />
      </cc:Work>
    </rdf:RDF>
  </metadata>
  <defs
     id="defs1011" />
  <sodipodi:namedview
     pagecolor="#ffffff"
     bordercolor="#666666"
     borderopacity="1"
     objecttolerance="10"
     gridtolerance="10"
     guidetolerance="10"
     inkscape:pageopacity="0"
     inkscape:pageshadow="2"
     inkscape:window-width="1920"
     inkscape:window-height="1027"
     id="namedview1009"
     showgrid="false"
     inkscape:zoom="1.7363281"
     inkscape:cx="256"
     inkscape:cy="213.95726"
     inkscape:window-x="0"
     inkscape:window-y="25"
     inkscape:window-maximized="1"
     inkscape:current-layer="_x33_0" />
  <g
     id="g1006"
     transform="matrix(1.0267064,0,0,1.0267064,-0.81860735,-0.81860735)"
     style="fill:#212121;fill-opacity:1">
    <path
       d="m 49,48 c 1.654,0 3,-1.346 3,-3 0,-1.654 -1.346,-3 -3,-3 -1.654,0 -3,1.346 -3,3 0,1.654 1.346,3 3,3 z m 0,-4 c 0.551,0 1,0.448 1,1 0,0.552 -0.449,1 -1,1 -0.551,0 -1,-0.448 -1,-1 0,-0.552 0.449,-1 1,-1 z"
       id="path1002"
       style="fill:#212121;fill-opacity:1" />
    <path
       d="m 59.16,40.778 c -0.303,-0.726 -0.142,-1.551 0.409,-2.103 l 1.455,-1.456 -4.244,-4.244 -1.457,1.456 c -0.551,0.552 -1.377,0.712 -2.141,0.392 C 52.464,34.527 52,33.833 52,33.055 V 31 h -2.051 c -0.091,-1.613 -0.39,-3.172 -0.886,-4.649 L 60.635,14.779 C 62.16,13.254 63,11.227 63,9.071 63,4.621 59.379,1 54.929,1 52.773,1 50.746,1.84 49.222,3.364 L 37.662,14.925 C 36.167,14.423 34.582,14.131 32.945,14.044 31.565,11.633 28.972,10 26,10 25.239,10 24.505,10.114 23.806,10.313 22.08,7.068 18.727,5 15,5 9.486,5 5,9.486 5,15 5,15.766 5.094,16.52 5.265,17.258 2.8,18.004 1,20.295 1,23 c 0,3.309 2.691,6 6,6 h 7.254 C 14.088,29.989 14,30.993 14,32 c 0,2.201 0.407,3.992 1.064,5.522 L 6.143,46.444 1.179,59.35 C 1.06,59.658 1,59.982 1,60.313 1,61.795 2.206,63 3.687,63 4.018,63 4.342,62.939 4.651,62.821 L 17.557,57.857 24.08,51.333 C 24.031,51.548 24,51.77 24,52 c 0,0.771 0.301,1.468 0.78,2 -0.48,0.532 -0.78,1.229 -0.78,2 0,1.39 0.955,2.552 2.24,2.89 0.852,2.44 3.134,4.11 5.76,4.11 2.626,0 4.908,-1.67 5.76,-4.11 C 39.045,58.552 40,57.39 40,56 40,55.925 39.983,55.855 39.978,55.782 l 1.242,1.242 1.457,-1.456 c 0.551,-0.552 1.374,-0.713 2.14,-0.394 C 45.535,55.473 46,56.167 46,56.945 V 59 h 6 v -2.055 c 0,-0.778 0.465,-1.473 1.222,-1.786 0.726,-0.302 1.551,-0.143 2.102,0.409 l 1.456,1.456 4.244,-4.244 -1.455,-1.456 C 59.018,50.772 58.857,49.947 59.176,49.183 59.473,48.465 60.167,48 60.945,48 H 63 V 42 H 60.945 C 60.167,42 59.473,41.535 59.16,40.778 Z M 44.176,43.726 C 45.267,42.661 46.36,41.573 47.303,40.315 47.847,40.117 48.413,40 49,40 c 2.757,0 5,2.243 5,5 0,2.757 -2.243,5 -5,5 -2.757,0 -5,-2.243 -5,-5 0,-0.433 0.067,-0.859 0.176,-1.274 z M 45.377,20.038 50,15.414 53.586,19 48.245,24.341 C 47.496,22.769 46.528,21.323 45.377,20.038 Z M 46.414,9 48,7.414 56.586,16 55,17.586 Z M 54.929,3 C 58.276,3 61,5.724 61,9.071 c 0,1.621 -0.631,3.146 -1.778,4.293 L 58,14.586 49.414,6 50.636,4.778 C 51.783,3.632 53.307,3 54.929,3 Z M 45,10.414 48.586,14 43.965,18.621 C 42.681,17.469 41.236,16.5 39.664,15.75 Z M 48,32 c 0,5.203 -2.62,7.759 -5.394,10.464 -1.91,1.863 -3.872,3.789 -5.014,6.596 C 37.401,49.021 37.203,49 37,49 h -4 v -5 c 0,-1.654 -1.346,-3 -3,-3 h -2 c -0.551,0 -1,-0.448 -1,-1 0,-0.552 0.449,-1 1,-1 h 10 c 1.654,0 3,-1.346 3,-3 0,-1.654 -1.346,-3 -3,-3 h -8 c -0.551,0 -1,-0.448 -1,-1 v -3 h 5 c 2.757,0 5,-2.243 5,-5 0,-2.757 -2.243,-5 -5,-5 -0.028,0 -0.054,0.008 -0.082,0.008 C 33.961,18.674 34,18.34 34,18 34,17.346 33.912,16.713 33.764,16.104 41.736,16.992 48,23.834 48,32 Z M 26,52 c 0,-0.552 0.449,-1 1,-1 h 10 c 0.551,0 1,0.448 1,1 0,0.552 -0.449,1 -1,1 H 27 c -0.551,0 -1,-0.448 -1,-1 z m -12.586,0 7.351,-7.351 c 1.23,1.22 2.372,2.454 3.214,3.957 L 17,55.586 Z M 3,23 c 0,-2.206 1.794,-4 4,-4 2.206,0 4,1.794 4,4 h 2 C 13,19.778 10.445,17.148 7.256,17.013 7.086,16.359 7,15.684 7,15 c 0,-4.411 3.589,-8 8,-8 2.925,0 5.565,1.59 6.969,4.101 -2.132,1.251 -3.638,3.454 -3.919,6.025 C 16.304,17.556 15,19.123 15,21 h 2 c 0,-1.103 0.897,-2 2,-2 1.103,0 2,0.897 2,2 h 2 C 23,19.165 21.752,17.632 20.065,17.162 20.475,14.25 22.976,12 26,12 c 3.309,0 6,2.691 6,6 0,0.526 -0.086,1.041 -0.22,1.543 C 30.14,20.364 29,22.044 29,24 h 2 c 0,-1.654 1.346,-3 3,-3 1.654,0 3,1.346 3,3 0,1.654 -1.346,3 -3,3 H 7 C 4.794,27 3,25.206 3,23 Z m 24,6 v 3 c 0,1.654 1.346,3 3,3 h 8 c 0.551,0 1,0.448 1,1 0,0.552 -0.449,1 -1,1 H 28 c -1.654,0 -3,1.346 -3,3 0,1.654 1.346,3 3,3 h 2 c 0.551,0 1,0.448 1,1 v 5 h -4 c -0.203,0 -0.401,0.021 -0.592,0.06 C 25.266,46.253 23.304,44.327 21.394,42.464 18.62,39.759 16,37.203 16,32 c 0,-1.011 0.121,-2.013 0.308,-3 z M 19.337,43.249 12,50.586 8.414,47 l 7.63,-7.63 c 0.939,1.474 2.103,2.704 3.293,3.879 z M 7.381,48.795 15.205,56.619 8.581,59.167 4.833,55.419 Z M 3.934,60.954 C 3.501,61.122 3,60.777 3,60.313 3,60.228 3.016,60.145 3.045,60.067 l 1.002,-2.606 2.491,2.491 z M 32,61 c -1.477,0 -2.794,-0.786 -3.524,-2 h 7.048 c -0.73,1.214 -2.047,2 -3.524,2 z m 5,-4 H 27 c -0.551,0 -1,-0.448 -1,-1 0,-0.552 0.449,-1 1,-1 h 10 c 0.551,0 1,0.448 1,1 0,0.552 -0.449,1 -1,1 z M 61,46 h -0.055 c -1.591,0 -3.011,0.95 -3.631,2.452 -0.616,1.477 -0.286,3.159 0.84,4.286 l 0.042,0.042 -1.416,1.416 -0.042,-0.042 C 55.61,53.026 53.926,52.695 52.419,53.327 50.95,53.935 50,55.354 50,56.945 V 57 h -2 v -0.055 c 0,-1.591 -0.95,-3.011 -2.452,-3.632 -1.479,-0.617 -3.161,-0.286 -4.287,0.841 l -0.042,0.042 -1.355,-1.355 C 39.944,52.572 40,52.294 40,52 40,51.29 39.742,50.646 39.328,50.131 39.95,48.452 40.925,47.109 42.06,45.869 42.49,49.319 45.435,52 49,52 c 3.86,0 7,-3.141 7,-7 0,-3.859 -3.14,-7 -7,-7 -0.098,0 -0.193,0.01 -0.29,0.014 C 49.387,36.609 49.852,34.98 49.969,33 H 50 v 0.055 c 0,1.591 0.95,3.012 2.451,3.631 1.476,0.618 3.16,0.288 4.287,-0.84 l 0.042,-0.042 1.416,1.416 -0.042,0.042 c -1.126,1.127 -1.456,2.81 -0.827,4.318 0.607,1.47 2.027,2.42 3.618,2.42 H 61 Z"
       id="path1004"
       style="fill:#212121;fill-opacity:1" />
  </g>
</svg>
