<?xml version="1.0" encoding="UTF-8" standalone="no"?>
<svg
   xmlns:dc="http://purl.org/dc/elements/1.1/"
   xmlns:cc="http://creativecommons.org/ns#"
   xmlns:rdf="http://www.w3.org/1999/02/22-rdf-syntax-ns#"
   xmlns:svg="http://www.w3.org/2000/svg"
   xmlns="http://www.w3.org/2000/svg"
   xmlns:sodipodi="http://sodipodi.sourceforge.net/DTD/sodipodi-0.dtd"
   xmlns:inkscape="http://www.inkscape.org/namespaces/inkscape"
   version="1.1"
   id="Capa_1"
   x="0px"
   y="0px"
   viewBox="0 0 480 480"
   style="enable-background:new 0 0 480 480;"
   xml:space="preserve"
   sodipodi:docname="leraar-in-de-school-maatschappij.svg"
   inkscape:version="1.0.1 (c497b03c, 2020-09-10)"><metadata
   id="metadata7989"><rdf:RDF><cc:Work
       rdf:about=""><dc:format>image/svg+xml</dc:format><dc:type
         rdf:resource="http://purl.org/dc/dcmitype/StillImage" /></cc:Work></rdf:RDF></metadata><defs
   id="defs7987" /><sodipodi:namedview
   pagecolor="#ffffff"
   bordercolor="#666666"
   borderopacity="1"
   objecttolerance="10"
   gridtolerance="10"
   guidetolerance="10"
   inkscape:pageopacity="0"
   inkscape:pageshadow="2"
   inkscape:window-width="1920"
   inkscape:window-height="1027"
   id="namedview7985"
   showgrid="false"
   inkscape:zoom="1.8520833"
   inkscape:cx="240"
   inkscape:cy="240"
   inkscape:window-x="0"
   inkscape:window-y="25"
   inkscape:window-maximized="1"
   inkscape:current-layer="Capa_1" />
<g
   id="g7928"
   style="fill:#212121;fill-opacity:1">
	<g
   id="g7926"
   style="fill:#212121;fill-opacity:1">
		<path
   d="M240,0C107.452,0,0,107.452,0,240s107.452,240,240,240s240-107.452,240-240C479.85,107.514,372.486,0.15,240,0z M240,464    C116.288,464,16,363.712,16,240S116.288,16,240,16s224,100.288,224,224C463.861,363.654,363.654,463.861,240,464z"
   id="path7924"
   style="fill:#212121;fill-opacity:1" />
	</g>
</g>
<g
   id="g7934">
	<g
   id="g7932">
		<path
   d="M240,32c-44.183,0-80,35.817-80,80c0.051,44.162,35.838,79.949,80,80c44.183,0,80-35.817,80-80S284.183,32,240,32z     M264,171.288c-15.383,6.283-32.617,6.283-48,0v-26.472c0.008-9.282,7.53-16.806,16.813-16.816h14.375    c9.282,0.01,16.804,7.534,16.812,16.816V171.288z M224,96c0-8.837,7.163-16,16-16s16,7.163,16,16s-7.163,16-16,16    C231.168,111.99,224.01,104.832,224,96z M280,161.88v-17.064c-0.032-11.472-6.069-22.089-15.911-27.982    c11.634-13.304,10.28-33.521-3.024-45.155c-13.304-11.634-33.521-10.28-45.155,3.024c-10.549,12.063-10.549,30.068,0,42.131    c-9.842,5.893-15.879,16.511-15.911,27.982v17.064c-27.578-22.062-32.049-62.303-9.987-89.88C202.16,56.816,220.555,47.984,240,48    c35.317-0.03,63.97,28.576,64,63.892C304.016,131.337,295.184,149.733,280,161.88z"
   id="path7930" />
	</g>
</g>
<g
   id="g7940">
	<g
   id="g7938">
		<path
   d="M240,288c-44.183,0-80,35.817-80,80c0,44.183,35.817,80,80,80s80-35.817,80-80C319.949,323.838,284.162,288.051,240,288z     M264,427.288c-15.383,6.283-32.617,6.283-48,0v-26.472c0.008-9.282,7.53-16.806,16.813-16.816h14.375    c9.283,0.01,16.804,7.534,16.812,16.816V427.288z M224,352c0-8.837,7.163-16,16-16s16,7.163,16,16s-7.163,16-16,16    C231.168,367.99,224.01,360.832,224,352z M289.96,407.92c-2.943,3.676-6.284,7.017-9.96,9.96v-17.064    c-0.032-11.472-6.069-22.089-15.911-27.982c11.634-13.304,10.28-33.521-3.024-45.155c-13.304-11.634-33.521-10.28-45.155,3.024    c-10.549,12.063-10.549,30.068,0,42.131c-9.842,5.893-15.879,16.511-15.911,27.982v17.064    c-27.592-22.091-32.051-62.368-9.96-89.96c22.091-27.592,62.368-32.051,89.96-9.96C307.592,340.052,312.051,380.328,289.96,407.92    z"
   id="path7936" />
	</g>
</g>
<g
   id="g7946">
	<g
   id="g7944">
		<path
   d="M368,160c-44.162,0.051-79.949,35.838-80,80c0,44.183,35.817,80,80,80c44.183,0,80-35.817,80-80    C448,195.817,412.183,160,368,160z M392,299.288c-15.383,6.283-32.617,6.283-48,0v-26.472c0.008-9.282,7.53-16.806,16.813-16.816    h14.375c9.283,0.01,16.804,7.534,16.813,16.816V299.288z M352,224c0-8.837,7.163-16,16-16s16,7.163,16,16s-7.163,16-16,16    C359.168,239.99,352.01,232.832,352,224z M408,289.88v-17.064c-0.032-11.472-6.069-22.089-15.911-27.982    c11.634-13.304,10.28-33.521-3.024-45.155c-13.304-11.634-33.521-10.28-45.155,3.024c-10.549,12.063-10.549,30.068,0,42.131    c-9.842,5.893-15.879,16.511-15.911,27.982v17.064c-27.562-22.106-31.986-62.37-9.88-89.932    c22.106-27.562,62.37-31.986,89.932-9.88C423.198,202.216,432.008,220.584,432,240C431.994,259.41,423.163,277.763,408,289.88z"
   id="path7942" />
	</g>
</g>
<g
   id="g7952">
	<g
   id="g7950">
		<path
   d="M112,160c-44.183,0-80,35.817-80,80c0,44.183,35.817,80,80,80c44.162-0.051,79.949-35.838,80-80    C192,195.817,156.183,160,112,160z M136,299.288c-15.383,6.283-32.617,6.283-48,0v-26.472c0.008-9.282,7.53-16.806,16.813-16.816    h14.375c9.283,0.01,16.804,7.534,16.813,16.816V299.288z M96,224c0-8.837,7.163-16,16-16s16,7.163,16,16s-7.163,16-16,16    C103.168,239.99,96.01,232.832,96,224z M161.96,279.92c-2.943,3.676-6.284,7.017-9.96,9.96v-17.064    c-0.032-11.472-6.069-22.089-15.911-27.982c11.634-13.304,10.28-33.521-3.024-45.155c-13.304-11.634-33.521-10.28-45.155,3.024    c-10.549,12.063-10.549,30.068,0,42.131c-9.842,5.893-15.879,16.511-15.911,27.982v17.064    c-27.592-22.091-32.051-62.368-9.96-89.96c22.091-27.592,62.368-32.051,89.96-9.96C179.592,212.052,184.051,252.328,161.96,279.92    z"
   id="path7948" />
	</g>
</g>
<g
   id="g7954">
</g>
<g
   id="g7956">
</g>
<g
   id="g7958">
</g>
<g
   id="g7960">
</g>
<g
   id="g7962">
</g>
<g
   id="g7964">
</g>
<g
   id="g7966">
</g>
<g
   id="g7968">
</g>
<g
   id="g7970">
</g>
<g
   id="g7972">
</g>
<g
   id="g7974">
</g>
<g
   id="g7976">
</g>
<g
   id="g7978">
</g>
<g
   id="g7980">
</g>
<g
   id="g7982">
</g>
</svg>
