<?xml version="1.0" encoding="UTF-8" standalone="no"?>
<svg
   xmlns:dc="http://purl.org/dc/elements/1.1/"
   xmlns:cc="http://creativecommons.org/ns#"
   xmlns:rdf="http://www.w3.org/1999/02/22-rdf-syntax-ns#"
   xmlns:svg="http://www.w3.org/2000/svg"
   xmlns="http://www.w3.org/2000/svg"
   xmlns:sodipodi="http://sodipodi.sourceforge.net/DTD/sodipodi-0.dtd"
   xmlns:inkscape="http://www.inkscape.org/namespaces/inkscape"
   id="Capa_1"
   enable-background="new 0 0 512 512"
   height="512"
   viewBox="0 0 512 512"
   width="512"
   version="1.1"
   sodipodi:docname="didactisch-ontwerp.svg"
   inkscape:version="1.0.1 (c497b03c, 2020-09-10)">
  <metadata
     id="metadata1060">
    <rdf:RDF>
      <cc:Work
         rdf:about="">
        <dc:format>image/svg+xml</dc:format>
        <dc:type
           rdf:resource="http://purl.org/dc/dcmitype/StillImage" />
      </cc:Work>
    </rdf:RDF>
  </metadata>
  <defs
     id="defs1058" />
  <sodipodi:namedview
     pagecolor="#ffffff"
     bordercolor="#666666"
     borderopacity="1"
     objecttolerance="10"
     gridtolerance="10"
     guidetolerance="10"
     inkscape:pageopacity="0"
     inkscape:pageshadow="2"
     inkscape:window-width="1920"
     inkscape:window-height="1027"
     id="namedview1056"
     showgrid="false"
     inkscape:zoom="1.7363281"
     inkscape:cx="256"
     inkscape:cy="256"
     inkscape:window-x="0"
     inkscape:window-y="25"
     inkscape:window-maximized="0"
     inkscape:current-layer="Capa_1" />
  <g
     id="g1053"
     style="fill:#212121;fill-opacity:1">
    <circle
       cx="406"
       cy="222"
       r="10"
       id="circle1043"
       style="fill:#212121;fill-opacity:1" />
    <path
       d="m413.069 2.93c-1.859-1.86-4.439-2.93-7.069-2.93h-300c-2.63 0-5.21 1.07-7.07 2.93-1.861 1.86-2.93 4.44-2.93 7.07v367c0 2.63 1.069 5.21 2.93 7.07s4.44 2.93 7.07 2.93h10v19c0 43.424 23.413 83.55 61.103 104.719 1.496.84 3.183 1.281 4.897 1.281h126c1.674 0 3.32-.42 4.789-1.222 27.339-14.916 54.685-57.602 68.552-81.719 7.611-13.237 15.25-28.077 21.413-42.06h3.246c2.63 0 5.21-1.07 7.069-2.93 1.86-1.86 2.931-4.44 2.931-7.07v-109.999c0-5.51-4.49-10-10-10s-10 4.49-10 10v23.635c-7.971-6.926-17.915-10.635-29-10.635h-75c-13.785 0-25 11.215-25 25 0 13.29 5.588 26.782 14.948 36.09 9.123 9.073 21.201 13.881 34.932 13.91l-9.09 12h-191.79v-347h280v157c0 5.51 4.49 10 10 10s10-4.49 10-10v-.01-166.99c0-2.63-1.07-5.21-2.931-7.07zm-157.837 384.07c-1.498 1.281-4.318 4.365-5.535 5.871-7.766 9.611-11.697 21.4-11.697 35.129 0 5.523 4.478 10 10 10s10-4.477 10-10c0-16.841 8.367-28.373 25.581-35.254 14.226-5.688 29.525-5.755 29.618-5.771 2.965-.131 5.731-1.558 7.532-3.936l24.24-32c2.293-3.026 2.674-7.089.984-10.489s-5.159-5.55-8.955-5.55h-20c-8.502 0-15.551-2.722-20.948-8.09-5.668-5.637-9.052-13.827-9.052-21.91 0-2.757 2.243-5 5-5h75c28.187 0 29 38.599 29 43 0 10.047-11.969 41.256-31.998 76.09-20.598 35.824-42.332 62.771-58.696 72.91h-120.622c-30.094-17.94-48.684-50.655-48.684-86v-19z"
       id="path1045"
       style="fill:#212121;fill-opacity:1" />
    <path
       d="m181 80c-5.51 0-10 4.49-10 10s4.49 10 10 10h52c5.51 0 10-4.49 10-10s-4.49-10-10-10z"
       id="path1047"
       style="fill:#212121;fill-opacity:1" />
    <path
       d="m278 100h53c5.51 0 10-4.49 10-10s-4.49-10-10-10h-53c-5.51 0-10 4.49-10 10s4.49 10 10 10z"
       id="path1049"
       style="fill:#212121;fill-opacity:1" />
    <path
       d="m296 50c0-5.523-4.478-10-10-10h-60c-5.522 0-10 4.477-10 10s4.478 10 10 10h60c5.522 0 10-4.477 10-10z"
       id="path1051"
       style="fill:#212121;fill-opacity:1" />
  </g>
</svg>
