<?xml version="1.0" encoding="UTF-8" standalone="no"?>
<svg
   xmlns:dc="http://purl.org/dc/elements/1.1/"
   xmlns:cc="http://creativecommons.org/ns#"
   xmlns:rdf="http://www.w3.org/1999/02/22-rdf-syntax-ns#"
   xmlns:svg="http://www.w3.org/2000/svg"
   xmlns="http://www.w3.org/2000/svg"
   xmlns:sodipodi="http://sodipodi.sourceforge.net/DTD/sodipodi-0.dtd"
   xmlns:inkscape="http://www.inkscape.org/namespaces/inkscape"
   height="511pt"
   viewBox="1 -65 511.999 511"
   width="511pt"
   version="1.1"
   id="svg1084"
   sodipodi:docname="didactische-werkvormen.svg"
   inkscape:version="1.0.1 (c497b03c, 2020-09-10)">
  <metadata
     id="metadata1090">
    <rdf:RDF>
      <cc:Work
         rdf:about="">
        <dc:format>image/svg+xml</dc:format>
        <dc:type
           rdf:resource="http://purl.org/dc/dcmitype/StillImage" />
      </cc:Work>
    </rdf:RDF>
  </metadata>
  <defs
     id="defs1088" />
  <sodipodi:namedview
     pagecolor="#ffffff"
     bordercolor="#666666"
     borderopacity="1"
     objecttolerance="10"
     gridtolerance="10"
     guidetolerance="10"
     inkscape:pageopacity="0"
     inkscape:pageshadow="2"
     inkscape:window-width="1920"
     inkscape:window-height="1027"
     id="namedview1086"
     showgrid="false"
     inkscape:zoom="1.3047945"
     inkscape:cx="340.66667"
     inkscape:cy="340.66667"
     inkscape:window-x="0"
     inkscape:window-y="25"
     inkscape:window-maximized="0"
     inkscape:current-layer="svg1084" />
  <path
     d="m486 250.75h-33.207031c.457031-1.925781.707031-3.933594.707031-6v-218.25c0-14.335938-11.664062-26-26-26h-274.035156c-5.523438 0-10 4.476562-10 10 0 5.519531 4.476562 10 10 10h274.035156c3.253906 0 6 2.746094 6 6v218.25c0 3.253906-2.746094 6-6 6h-343c-3.25 0-6-2.746094-6-6v-218.25c0-3.253906 2.75-6 6-6 5.523438 0 10-4.480469 10-10 0-5.523438-4.476562-10-10-10-14.335938 0-26 11.664062-26 26v218.25c0 2.066406.25 4.074219.707031 6h-33.207031c-14.335938 0-26 11.664062-26 26 0 14.339844 11.664062 26 26 26h.5v51.75c0 14.335938 11.664062 26 26 26s26-11.664062 26-26v-19.75h355v19.75c0 14.335938 11.664062 26 26 26s26-11.664062 26-26v-51.75h.5c14.335938 0 26-11.664062 26-26s-11.664062-26-26-26zm-427.5 103.75c0 3.25-2.75 6-6 6-3.253906 0-6-2.75-6-6v-51.75h12zm20-39.75v-12h355v12zm387 39.75c0 3.25-2.746094 6-6 6s-6-2.75-6-6v-51.75h12zm20.5-71.75h-460c-3.253906 0-6-2.746094-6-6s2.746094-6 6-6h460c3.253906 0 6 2.746094 6 6s-2.746094 6-6 6zm0 0"
     id="path1062"
     style="fill:#212121;fill-opacity:1" />
  <path
     d="m107.726562 189.507812h60c5.519532 0 10-4.476562 10-10v-120c0-5.519531-4.480468-10-10-10h-60c-5.523437 0-10 4.480469-10 10v120c0 5.523438 4.476563 10 10 10zm10-120h40v100h-40zm0 0"
     id="path1064"
     style="fill:#212121;fill-opacity:1" />
  <path
     d="m196.988281 128.816406c-1.328125 2.296875-1.6875 5.027344-1 7.585938l25.882813 96.59375c1.195312 4.46875 5.234375 7.414062 9.652344 7.414062.855468 0 1.726562-.109375 2.59375-.34375l77.273437-20.703125c2.5625-.6875 4.746094-2.363281 6.070313-4.660156 1.328124-2.296875 1.6875-5.023437 1-7.585937l-25.882813-96.59375c-1.429687-5.335938-6.914063-8.503907-12.246094-7.070313l-77.273437 20.703125c-2.5625.6875-4.746094 2.363281-6.070313 4.660156zm78.859375-3.457031 20.707032 77.273437-57.957032 15.527344-20.703125-77.273437zm0 0"
     id="path1066"
     style="fill:#212121;fill-opacity:1" />
  <path
     d="m406.726562 35.757812h-80c-5.519531 0-10 4.476563-10 10v60c0 5.519532 4.480469 10 10 10h80c5.523438 0 10-4.480468 10-10v-60c0-5.523437-4.476562-10-10-10zm-10 60h-60v-40h60zm0 0"
     id="path1068"
     style="fill:#212121;fill-opacity:1" />
  <path
     d="m346.230469 152.503906c0-5.523437-4.476563-10-10-10h-.234375c-5.523438 0-10 4.476563-10 10 0 5.519532 4.476562 10 10 10h.234375c5.523437 0 10-4.476562 10-10zm0 0"
     id="path1070"
     style="fill:#212121;fill-opacity:1" />
  <path
     d="m230.964844 78.257812c5.523437 0 10-4.476562 10-10 0-5.523437-4.476563-10-10-10h-.234375c-5.523438 0-10 4.476563-10 10 0 5.523438 4.476562 10 10 10zm0 0"
     id="path1072"
     style="fill:#212121;fill-opacity:1" />
  <path
     d="m135.230469 211.757812c-5.523438 0-10 4.476563-10 10 0 5.519532 4.476562 10 10 10h.234375c5.523437 0 10-4.480468 10-10 0-5.523437-4.476563-10-10-10zm0 0"
     id="path1074"
     style="fill:#212121;fill-opacity:1" />
  <path
     d="m413.261719 220.75c-5.519531 0-10 4.476562-10 10 0 5.519531 4.480469 10 10 10h.238281c5.519531 0 10-4.480469 10-10 0-5.523438-4.480469-10-10-10zm0 0"
     id="path1076"
     style="fill:#212121;fill-opacity:1" />
  <path
     d="m343.496094 240.746094h41.035156c5.523438 0 10-4.476563 10-9.996094 0-5.523438-4.476562-10-10-10h-41.035156c-5.519532 0-10 4.476562-10 10 0 5.519531 4.480468 9.996094 10 9.996094zm0 0"
     id="path1078"
     style="fill:#212121;fill-opacity:1" />
  <path
     d="m398.480469 178.253906c0-5.523437-4.476563-10-10-10h-.234375c-5.523438 0-10 4.476563-10 10 0 5.519532 4.476562 10 10 10h.234375c5.523437 0 10-4.476562 10-10zm0 0"
     id="path1080"
     style="fill:#212121;fill-opacity:1" />
  <path
     d="m113.230469 20.5h.269531c5.523438 0 10-4.480469 10-10 0-5.523438-4.476562-10-10-10h-.269531c-5.523438 0-10 4.476562-10 10 0 5.519531 4.476562 10 10 10zm0 0"
     id="path1082"
     style="fill:#212121;fill-opacity:1" />
</svg>
