<?xml version="1.0" encoding="UTF-8" standalone="no"?>
<svg
   xmlns:dc="http://purl.org/dc/elements/1.1/"
   xmlns:cc="http://creativecommons.org/ns#"
   xmlns:rdf="http://www.w3.org/1999/02/22-rdf-syntax-ns#"
   xmlns:svg="http://www.w3.org/2000/svg"
   xmlns="http://www.w3.org/2000/svg"
   xmlns:sodipodi="http://sodipodi.sourceforge.net/DTD/sodipodi-0.dtd"
   xmlns:inkscape="http://www.inkscape.org/namespaces/inkscape"
   version="1.1"
   id="Layer_1"
   x="0px"
   y="0px"
   viewBox="0 0 512 512"
   style="enable-background:new 0 0 512 512;"
   xml:space="preserve"
   width="512"
   height="512"
   sodipodi:docname="differentiatie.svg"
   inkscape:version="1.0.1 (c497b03c, 2020-09-10)"><metadata
   id="metadata1113"><rdf:RDF><cc:Work
       rdf:about=""><dc:format>image/svg+xml</dc:format><dc:type
         rdf:resource="http://purl.org/dc/dcmitype/StillImage" /></cc:Work></rdf:RDF></metadata><defs
   id="defs1111" /><sodipodi:namedview
   pagecolor="#ffffff"
   bordercolor="#666666"
   borderopacity="1"
   objecttolerance="10"
   gridtolerance="10"
   guidetolerance="10"
   inkscape:pageopacity="0"
   inkscape:pageshadow="2"
   inkscape:window-width="1920"
   inkscape:window-height="1027"
   id="namedview1109"
   showgrid="false"
   inkscape:zoom="1.7363281"
   inkscape:cx="256"
   inkscape:cy="256"
   inkscape:window-x="0"
   inkscape:window-y="25"
   inkscape:window-maximized="0"
   inkscape:current-layer="Layer_1" />
<g
   id="g1106"
   style="fill:#212121;fill-opacity:1">
	<path
   d="M256,98c5.51,0,10-4.49,10-10c0-5.521-4.49-10-10-10c-5.51,0-10,4.479-10,10C246,93.51,250.49,98,256,98z"
   id="path1092"
   style="fill:#212121;fill-opacity:1" />
	<path
   d="M256,198c5.51,0,10-4.49,10-10v-60c0-5.51-4.49-10-10-10c-5.51,0-10,4.49-10,10v60C246,193.51,250.49,198,256,198z"
   id="path1094"
   style="fill:#212121;fill-opacity:1" />
	<path
   d="M508,250l-120-90c-3.03-2.271-7.083-2.636-10.472-0.944C374.14,160.75,372,164.212,372,168v40h-66v-68h40   c3.788,0,7.25-2.14,8.944-5.528c1.694-3.388,1.328-7.441-0.944-10.472L264,4c-1.889-2.519-4.853-4-8-4s-6.111,1.481-8,4l-90,120   c-2.272,3.03-2.638,7.084-0.944,10.472C158.75,137.86,162.212,140,166,140h40v108h-66v-40c0-3.788-2.14-7.25-5.528-8.944   c-3.388-1.695-7.442-1.329-10.472,0.944L4,290c-2.518,1.889-4,4.853-4,8s1.482,6.111,4,8l120,90c1.765,1.323,3.876,2,6.001,2   c1.524,0,3.056-0.349,4.471-1.056C137.86,395.25,140,391.788,140,388v-40h66v21.616c-18.272,14.674-30,37.179-30,62.384   c0,44.112,35.888,80,80,80s80-35.888,80-80c0-25.205-11.728-47.709-30-62.384V308h66v40c0,3.788,2.14,7.25,5.528,8.944   c1.415,0.708,2.946,1.056,4.471,1.056c2.125,0,4.237-0.677,6.001-2l120-90c2.518-1.889,4-4.853,4-8S510.518,251.889,508,250z    M216,120h-30l70-93.333L326,120h-30c-5.523,0-10,4.478-10,10v79.013c-19.556,3.988-34.977,19.429-38.965,38.987H226V130   C226,124.478,221.523,120,216,120z M316,432c0,33.084-26.916,60-60,60s-60-26.916-60-60s26.916-60,60-60S316,398.916,316,432z    M266,352.647V338c0-5.521-4.49-10-10-10c-5.51,0-10,4.479-10,10v14.647c-6.985,0.875-13.691,2.649-20,5.211V338   c0-5.522-4.477-10-10-10h-86c-5.523,0-10,4.478-10,10v30l-93.333-70L120,228v30c0,5.522,4.477,10,10,10h126   c16.542,0,30,13.458,30,30v59.858C279.691,355.296,272.985,353.523,266,352.647z M392,328v-30c0-5.522-4.477-10-10-10h-77.006   c-3.898-19.129-18.757-34.307-37.703-38.699C271.029,236.989,282.482,228,296,228h86c5.523,0,10-4.478,10-10v-30l93.333,70L392,328   z"
   id="path1096"
   style="fill:#212121;fill-opacity:1" />
	<path
   d="M424,268c5.51,0,10-4.49,10-10s-4.49-10-10-10c-5.51,0-10,4.49-10,10S418.49,268,424,268z"
   id="path1098"
   style="fill:#212121;fill-opacity:1" />
	<path
   d="M384,248h-60c-5.51,0-10,4.49-10,10s4.49,10,10,10h60c5.51,0,10-4.49,10-10S389.51,248,384,248z"
   id="path1100"
   style="fill:#212121;fill-opacity:1" />
	<path
   d="M216,288h-60c-5.51,0-10,4.49-10,10s4.49,10,10,10h60c5.51,0,10-4.49,10-10S221.51,288,216,288z"
   id="path1102"
   style="fill:#212121;fill-opacity:1" />
	<path
   d="M256,288c-5.51,0-10,4.49-10,10s4.49,10,10,10c5.51,0,10-4.49,10-10S261.51,288,256,288z"
   id="path1104"
   style="fill:#212121;fill-opacity:1" />
</g>















</svg>
