<?xml version="1.0" encoding="UTF-8" standalone="no"?>
<svg
   xmlns:dc="http://purl.org/dc/elements/1.1/"
   xmlns:cc="http://creativecommons.org/ns#"
   xmlns:rdf="http://www.w3.org/1999/02/22-rdf-syntax-ns#"
   xmlns:svg="http://www.w3.org/2000/svg"
   xmlns="http://www.w3.org/2000/svg"
   xmlns:sodipodi="http://sodipodi.sourceforge.net/DTD/sodipodi-0.dtd"
   xmlns:inkscape="http://www.inkscape.org/namespaces/inkscape"
   id="Layer_1"
   enable-background="new 0 0 512.002 512.002"
   height="512"
   viewBox="0 0 512.002 512.002"
   width="512"
   version="1.1"
   sodipodi:docname="diversiteit.svg"
   inkscape:version="1.0.1 (c497b03c, 2020-09-10)">
  <metadata
     id="metadata1130">
    <rdf:RDF>
      <cc:Work
         rdf:about="">
        <dc:format>image/svg+xml</dc:format>
        <dc:type
           rdf:resource="http://purl.org/dc/dcmitype/StillImage" />
      </cc:Work>
    </rdf:RDF>
  </metadata>
  <defs
     id="defs1128" />
  <sodipodi:namedview
     pagecolor="#ffffff"
     bordercolor="#666666"
     borderopacity="1"
     objecttolerance="10"
     gridtolerance="10"
     guidetolerance="10"
     inkscape:pageopacity="0"
     inkscape:pageshadow="2"
     inkscape:window-width="1920"
     inkscape:window-height="1027"
     id="namedview1126"
     showgrid="false"
     inkscape:zoom="1.7363281"
     inkscape:cx="256"
     inkscape:cy="256"
     inkscape:window-x="0"
     inkscape:window-y="25"
     inkscape:window-maximized="0"
     inkscape:current-layer="Layer_1" />
  <g
     id="g1123"
     style="fill:#212121;fill-opacity:1">
    <g
       id="g1121"
       style="fill:#212121;fill-opacity:1">
      <path
         d="m462.002 206.001c-15.161 0-28.758 6.792-37.935 17.483-12.487-27.948-40.529-47.483-73.066-47.483h-5.567c-2.959-3.31-6.109-6.459-9.434-9.435v-5.565c0-32.536-19.535-60.578-47.483-73.066 10.691-9.177 17.483-22.773 17.483-37.935 0-27.57-22.43-50-50-50s-50 22.43-50 50c0 15.161 6.792 28.758 17.483 37.935-27.948 12.487-47.483 40.529-47.483 73.066v5.566c-3.325 2.976-6.474 6.125-9.433 9.435h-5.568c-32.537 0-60.579 19.535-73.066 47.483-9.175-10.692-22.771-17.484-37.933-17.484-27.57 0-50 22.43-50 50s22.43 50 50 50c15.161 0 28.758-6.792 37.935-17.483 12.487 27.948 40.529 47.483 73.066 47.483h5.64c2.947 3.288 6.072 6.413 9.36 9.36v5.64c0 32.537 19.535 60.579 47.483 73.066-10.691 9.177-17.483 22.774-17.483 37.935 0 27.57 22.43 50 50 50s50-22.43 50-50c0-15.161-6.792-28.758-17.483-37.935 27.947-12.487 47.482-40.529 47.482-73.066v-5.639c3.289-2.947 6.414-6.072 9.361-9.361h5.64c32.536 0 60.578-19.535 73.066-47.483 9.177 10.691 22.774 17.483 37.935 17.483 27.57 0 50-22.43 50-50s-22.429-50-50-50zm-206-186.001c16.542 0 30 13.458 30 30s-13.458 30-30 30-30-13.458-30-30 13.458-30 30-30zm0 81.001c29.904 0 54.764 21.992 59.267 50.651-3.61-2.051-7.342-3.937-11.202-5.626-5.061-2.215-10.957.093-13.17 5.152-2.214 5.06.092 10.956 5.152 13.17 36.42 15.938 59.953 51.914 59.953 91.652 0 55.14-44.86 100-100 100-55.141 0-100-44.86-100-100 0-39.735 23.531-75.709 59.947-91.65 5.06-2.214 7.366-8.111 5.151-13.17-2.214-5.06-8.112-7.366-13.17-5.151-3.857 1.688-7.587 3.573-11.194 5.623 4.501-28.658 29.361-50.651 59.266-50.651zm-206.002 185c-16.542 0-30-13.458-30-30s13.458-30 30-30 30 13.458 30 30-13.458 30-30 30zm51.001-30c0-29.913 22.005-54.779 50.676-59.272-10.067 17.716-15.676 38.043-15.676 59.272 0 21.544 5.711 41.778 15.693 59.275-28.679-4.486-50.693-29.356-50.693-59.275zm155.001 236.001c-16.542 0-30-13.458-30-30s13.458-30 30-30 30 13.458 30 30-13.458 30-30 30zm0-81.001c-29.918 0-54.789-22.013-59.275-50.693 17.496 9.982 37.73 15.693 59.275 15.693 21.544 0 41.778-5.711 59.274-15.692-4.486 28.679-29.356 50.692-59.274 50.692zm104.307-95.725c9.982-17.496 15.693-37.73 15.693-59.275 0-21.229-5.609-41.556-15.675-59.272 28.671 4.493 50.675 29.359 50.675 59.272-.001 29.919-22.014 54.789-50.693 59.275zm101.693-29.275c-16.542 0-30-13.458-30-30s13.458-30 30-30 30 13.458 30 30-13.458 30-30 30z"
         id="path1115"
         style="fill:#212121;fill-opacity:1" />
      <path
         d="m196.002 256.001c0 33.084 26.916 60 60 60s60-26.916 60-60-26.916-60-60-60-60 26.916-60 60zm100 0c0 22.056-17.944 40-40 40s-40-17.944-40-40 17.944-40 40-40 40 17.944 40 40z"
         id="path1117"
         style="fill:#212121;fill-opacity:1" />
      <path
         d="m256.002 156.001c5.523 0 10-4.477 10-10s-4.477-10-10-10h-.008c-5.523 0-9.996 4.477-9.996 10s4.481 10 10.004 10z"
         id="path1119"
         style="fill:#212121;fill-opacity:1" />
    </g>
  </g>
</svg>
