<?xml version="1.0" encoding="UTF-8" standalone="no"?>
<svg
   xmlns:dc="http://purl.org/dc/elements/1.1/"
   xmlns:cc="http://creativecommons.org/ns#"
   xmlns:rdf="http://www.w3.org/1999/02/22-rdf-syntax-ns#"
   xmlns:svg="http://www.w3.org/2000/svg"
   xmlns="http://www.w3.org/2000/svg"
   xmlns:sodipodi="http://sodipodi.sourceforge.net/DTD/sodipodi-0.dtd"
   xmlns:inkscape="http://www.inkscape.org/namespaces/inkscape"
   height="682pt"
   viewBox="-21 -21 682 682.66639"
   width="682pt"
   version="1.1"
   id="svg907"
   sodipodi:docname="ecologische-pedagogiek.svg"
   inkscape:version="1.0.1 (c497b03c, 2020-09-10)">
  <metadata
     id="metadata913">
    <rdf:RDF>
      <cc:Work
         rdf:about="">
        <dc:format>image/svg+xml</dc:format>
        <dc:type
           rdf:resource="http://purl.org/dc/dcmitype/StillImage" />
      </cc:Work>
    </rdf:RDF>
  </metadata>
  <defs
     id="defs911" />
  <sodipodi:namedview
     pagecolor="#ffffff"
     bordercolor="#666666"
     borderopacity="1"
     objecttolerance="10"
     gridtolerance="10"
     guidetolerance="10"
     inkscape:pageopacity="0"
     inkscape:pageshadow="2"
     inkscape:window-width="1920"
     inkscape:window-height="1027"
     id="namedview909"
     showgrid="false"
     inkscape:zoom="0.9776393"
     inkscape:cx="454.66667"
     inkscape:cy="594.80015"
     inkscape:window-x="0"
     inkscape:window-y="25"
     inkscape:window-maximized="1"
     inkscape:current-layer="svg907" />
  <path
     d="M 650.33609,60.047996 C 640.51287,29.154871 627.19944,7.0349936 626.63503,6.1053779 624.45209,2.5072671 619.95757,0.63558514 615.88634,1.569351 614.83223,1.810055 589.6911,7.6782544 560.69041,22.162002 521.53864,41.708835 494.18968,67.804479 481.59006,97.614436 471.10284,122.44016 469.59635,152.78963 477.03743,186.31805 461.18831,168.618 443.3596,153.13408 423.92482,140.09871 417.99023,128.37476 402.29881,99.511014 377.76774,69.344156 c -8.08019,-9.93112 -23.6222,2.531542 -15.45901,12.562263 16.52973,20.331201 28.97164,40.326241 36.75302,54.062971 L 308.32876,118.28179 222.12349,0.69783469 c 8.3707,0.11620389 16.77043,0.92546661 25.12868,2.56474481 26.4982,5.1875891 52.6727,18.6836175 77.80967,40.1062835 9.84812,8.395592 22.63864,-6.884968 12.91917,-15.164359 C 310.21289,4.5408008 280.97565,-10.432654 251.07853,-16.288404 205.4402,-25.219356 152.21139,-13.495406 97.131656,17.630124 56.079161,40.829019 28.626443,66.310453 27.481024,67.381172 c -3.672813,3.432108 -4.257973,9.665514 -1.182771,13.674482 4.02557,8.258646 19.281228,38.051996 44.675511,70.127896 14.969305,18.91187 30.756166,35.09714 47.086706,48.39812 -4.63978,3.88862 -9.15506,7.95569 -13.52509,12.23441 -23.339991,22.82955 -41.210195,49.75935 -52.942445,79.19995 -10.371027,26.01264 -15.948722,53.99657 -16.259977,82.83956 -0.51461,47.16555 13.151575,92.65448 39.529422,131.55724 25.76779,37.99806 61.7904,67.17305 104.17092,84.36679 11.8609,4.80164 19.36008,-13.64544 7.49088,-18.45952 -15.35526,-6.22925 -29.7809,-14.20984 -43.08603,-23.70105 1.70153,-9.43726 5.64824,-43.40144 -16.91154,-78.56083 -3.15821,-4.91784 6.28321,-24.23227 11.919,-35.76947 5.8184,-11.88995 11.82356,-24.18246 14.62901,-35.75701 2.97975,-12.29665 -0.37351,-22.61788 -9.69042,-29.85976 -6.83932,-5.31623 -15.79102,-8.06773 -23.6803,-10.49553 -5.12534,-1.57702 -10.93544,-3.36155 -13.01048,-5.09213 -4.27457,-3.58151 -11.25499,-16.81608 -16.865888,-27.44441 -6.225102,-11.79036 -12.151403,-23.01214 -18.202206,-29.92202 13.61638,-32.33735 35.487254,-60.95208 62.877724,-82.84371 25.02077,17.04435 53.57741,28.80565 83.93102,31.18778 -35.20089,27.27427 -46.58869,62.10581 -30.31211,95.56368 19.00732,39.06877 58.13004,32.82706 92.64618,27.32821 5.97195,-0.95451 12.15141,-1.93808 18.06941,-2.67679 2.22029,-0.27805 2.88845,0.32785 3.33665,0.72212 7.55729,6.72311 7.33318,38.8322 7.17133,62.28011 -0.21996,32.43279 -0.42746,63.06862 11.65339,78.79739 6.16286,8.01794 14.84066,12.1182 25.01248,12.1182 6.09646,0 12.71997,-1.46912 19.66718,-4.44888 30.04237,-12.86521 61.27164,-51.58537 56.50737,-82.22119 -4.16253,-26.78456 -6.91817,-44.48046 -0.42331,-58.74425 6.00516,-13.20138 20.5221,-25.42334 49.11194,-41.0193 3.42381,15.41751 5.15023,31.45753 4.97178,47.91257 -0.61006,56.16705 -23.06195,108.73599 -63.21387,148.01642 -44.87472,43.89944 -107.94335,65.57941 -170.33136,58.70275 -12.71167,-1.37783 -14.90705,18.40141 -2.17878,19.80413 68.28941,7.51993 137.33414,-16.21848 186.43777,-64.26385 43.9617,-43.00717 68.53842,-100.55206 69.20658,-162.0478 0.88812,-81.53644 -40.94875,-153.77257 -104.63574,-195.38533 13.15988,-9.38331 22.96235,-17.4967 28.39894,-22.20702 23.21965,16.65838 43.81645,37.18048 60.95209,61.08903 41.1355,57.40793 57.44943,127.39057 45.94544,197.07026 C 502.66827,563.28972 366.32599,660.99483 222.4638,637.22737 152.77996,625.71923 91.753171,587.77099 50.617668,530.36305 9.478017,472.95928 -6.8359104,402.96834 4.6722348,333.2928 6.7389709,320.75544 -12.903314,317.46443 -14.97835,330.04745 c -12.37966,74.92952 5.1709886,150.19105 49.398292,211.92336 44.235603,61.724 109.868968,102.5358 184.798498,114.91545 15.67066,2.5855 31.35794,3.86372 46.9373,3.86372 58.8895,0 116.17708,-18.28521 164.99436,-53.26616 61.7406,-44.2356 102.55655,-109.85652 114.92791,-184.78604 9.0679,-54.90544 2.05013,-109.98933 -19.74604,-159.79848 10.05977,-2.9673 27.17882,-8.7276 45.92883,-18.09016 39.14347,-19.54683 66.49658,-45.64247 79.09205,-75.45243 12.60791,-29.81826 12.25515,-67.6171 -1.01676,-109.308714 z M 72.206335,333.93607 c 7.412027,14.05213 14.421497,27.33236 21.704876,33.42467 5.158535,4.31192 12.338159,6.51975 19.936939,8.85624 19.46798,5.98441 21.72977,8.92265 19.86224,16.62104 -2.29084,9.4663 -7.81874,20.7711 -13.15988,31.69824 -10.28803,21.04916 -20.00334,40.91969 -10.79433,55.27894 13.06027,20.35194 15.29716,40.38848 15.07305,52.85114 C 65.499821,479.16779 41.34226,394.66819 63.441385,317.86699 c 2.929951,5.02158 6.009304,10.85659 8.76495,16.06908 z M 554.13329,138.18967 525.82567,69.589009 c 13.77407,-12.88182 29.756,-22.576384 43.36823,-29.403251 11.5953,-5.818398 22.62619,-10.167672 31.47414,-13.251176 z M 619.0321,34.657864 c 3.95502,8.499345 8.54084,19.459681 12.45851,31.847643 4.29533,13.595632 8.23789,30.444921 9.02226,48.020473 l -66.33888,27.36971 z M 499.93752,105.37092 c 2.93825,-6.947215 6.73556,-13.388127 11.1222,-19.335176 l 32.22529,78.083576 -28.91769,69.14847 c -4.06292,-8.61969 -8.84795,-19.94108 -12.90673,-32.80215 -8.14659,-25.75119 -15.01909,-63.15992 -1.52307,-95.09472 z m 63.81564,121.41447 c -11.15954,5.60259 -21.80862,9.84396 -30.48227,12.90257 l 30.00916,-71.74228 76.3862,-31.51978 c -1.10807,8.55745 -3.22045,17.04019 -6.66086,25.17433 -13.49188,31.93479 -45.10712,53.0794 -69.25223,65.18516 z m -359.17617,-5.669 c -3.51926,-0.68891 -6.99286,-1.53137 -10.41667,-2.49004 l 110.24247,-80.81018 90.7745,17.69176 c -33.06776,26.05414 -113.54178,80.70642 -190.6003,65.60846 z M 103.82573,158.79478 C 80.249172,133.3839 62.968279,106.21339 53.045459,88.81629 L 168.56268,111.33872 Z M 124.22747,25.897064 172.55919,91.820943 56.294965,69.157401 C 70.932264,57.599454 95.093975,40.24801 124.22747,25.897064 Z M 201.37729,97.440135 142.78244,17.513923 C 160.32479,10.305249 179.15366,4.6321036 198.45564,2.1088605 L 279.51482,112.66674 Z m -6.20021,19.086175 82.61545,16.10227 -106.03014,77.71838 c -19.99505,-9.23391 -37.98975,-22.50999 -53.73513,-37.26763 z m 270.28581,194.51381 c -35.91057,19.13183 -53.49442,34.15923 -61.83606,52.4901 -8.96,19.68378 -5.6773,40.81179 -1.13297,70.05319 2.68509,17.24355 -17.80795,49.35264 -44.65891,60.85249 -9.93526,4.25382 -17.01113,3.75166 -21.04086,-1.49818 -7.91418,-10.30047 -7.69837,-41.47581 -7.52822,-66.52148 0.23655,-34.6531 0.44405,-64.57925 -13.85294,-77.29922 -5.14194,-4.57338 -11.7198,-6.50731 -19.02807,-5.61089 -6.26247,0.78021 -12.61622,1.79283 -18.75418,2.77224 -36.61607,5.835 -59.65726,8.17149 -71.59286,-16.36788 -19.33933,-39.74523 19.80828,-69.18583 37.53738,-79.99676 3.61056,-2.19954 6.95967,-4.79333 10.07222,-7.68178 42.84948,-5.12118 83.33758,-23.506 119.41829,-46.53474 43.26034,25.84664 76.46921,66.74974 92.39718,115.34291 z m 0,0"
     id="path905"
     style="stroke-width:1.06242;fill:#212121;fill-opacity:1" />
</svg>
