<?xml version="1.0" encoding="UTF-8" standalone="no"?>
<svg
   xmlns:dc="http://purl.org/dc/elements/1.1/"
   xmlns:cc="http://creativecommons.org/ns#"
   xmlns:rdf="http://www.w3.org/1999/02/22-rdf-syntax-ns#"
   xmlns:svg="http://www.w3.org/2000/svg"
   xmlns="http://www.w3.org/2000/svg"
   xmlns:sodipodi="http://sodipodi.sourceforge.net/DTD/sodipodi-0.dtd"
   xmlns:inkscape="http://www.inkscape.org/namespaces/inkscape"
   id="outline"
   viewBox="0 0 512 512"
   width="512"
   height="512"
   version="1.1"
   sodipodi:docname="fysieke-ontwikkeling.svg"
   inkscape:version="1.0.1 (c497b03c, 2020-09-10)">
  <metadata
     id="metadata1082">
    <rdf:RDF>
      <cc:Work
         rdf:about="">
        <dc:format>image/svg+xml</dc:format>
        <dc:type
           rdf:resource="http://purl.org/dc/dcmitype/StillImage" />
      </cc:Work>
    </rdf:RDF>
  </metadata>
  <defs
     id="defs1080" />
  <sodipodi:namedview
     pagecolor="#ffffff"
     bordercolor="#666666"
     borderopacity="1"
     objecttolerance="10"
     gridtolerance="10"
     guidetolerance="10"
     inkscape:pageopacity="0"
     inkscape:pageshadow="2"
     inkscape:window-width="1920"
     inkscape:window-height="1027"
     id="namedview1078"
     showgrid="false"
     inkscape:zoom="1.7363281"
     inkscape:cx="256"
     inkscape:cy="310.71316"
     inkscape:window-x="0"
     inkscape:window-y="25"
     inkscape:window-maximized="1"
     inkscape:current-layer="outline" />
  <path
     d="M 182.18913,87.309146 70.602311,176.57832 a 25.687222,25.687222 0 0 0 7.559935,44.30349 v 112.03432 c 0,98.18151 79.876464,178.058 178.058524,178.058 98.18206,0 178.05853,-79.87649 178.05853,-178.05803 V 220.88181 a 25.686935,25.686935 0 0 0 7.55888,-44.304 L 347.21847,100.88209 A 8.4801898,8.4801898 0 0 0 345.82513,87.923163 48.608764,48.608764 0 0 1 324.13708,47.398359 V 28.100513 A 26.498769,26.498769 0 0 0 278.90065,9.3633579 l -5.44431,5.4443201 a 33.935265,33.935265 0 0 0 -51.19372,29.241813 v 25.468617 a 33.896267,33.896267 0 0 0 1.07467,8.489539 h -14.63182 a 42.604751,42.604751 0 0 0 -26.51634,9.301499 z m 51.60644,7.677583 a 33.808899,33.808899 0 0 0 22.4252,8.489531 37.175691,37.175691 0 0 0 26.09145,-11.135257 c 0.79381,-0.815841 1.52339,-1.652274 2.19959,-2.501684 A 42.439661,42.439661 0 0 0 307.158,102.62207 v 32.80811 a 22.105199,22.105199 0 0 1 -12.28661,19.87974 8.4891886,8.4891886 0 0 0 -4.69246,7.59312 v 25.46861 h -67.91631 v -25.46861 a 8.4891886,8.4891886 0 0 0 -4.69247,-7.59312 22.105199,22.105199 0 0 1 -12.28661,-19.87974 V 95.241922 a 25.270863,25.270863 0 0 1 3.42193,-0.255193 z m 39.19183,-19.08644 c -0.0529,2.193887 -6.45834,10.596897 -16.76663,10.596897 A 16.998529,16.998529 0 0 1 239.24169,69.518108 v -8.489539 h 33.87836 l -0.13575,14.573779 c -0.001,0.103625 0,0.194304 0.003,0.297941 z m -74.37207,255.098101 -5.27383,-5.27383 4.53598,-2.47423 z m -20.81114,3.20146 17.51794,17.51796 -12.76509,31.91324 h -3.86857 l -6.61484,-46.30539 z m 41.21578,74.89981 h 28.71126 v 50.93724 h -3.94631 l -28.70504,-43.05758 z m 2.4724,-16.97908 -9.70256,-101.87446 h 35.94142 v 101.87446 z m 43.21794,-101.87446 h 41.93264 a 33.753834,33.753834 0 0 1 -23.45608,26.57438 l -18.47656,5.68524 z M 307.158,273.26704 h -42.44769 v -33.95815 h -16.97908 v 33.95815 h -37.55859 l -2.02575,-21.27048 a 77.886097,77.886097 0 0 1 10.34327,-46.64583 h 75.49102 A 92.272023,92.272023 0 0 1 307.158,252.9391 Z M 81.210042,189.83648 188.30446,104.16074 v 31.26942 a 39.423647,39.423647 0 0 0 2.09855,12.68715 l -82.30147,41.15074 a 8.4901862,8.4901862 0 0 0 -3.79605,3.79552 l -0.9959,1.99182 A 18.522232,18.522232 0 0 1 86.651785,205.35073 8.7115721,8.7115721 0 0 1 81.210064,189.83648 Z M 256.22077,493.99505 c -88.81993,0 -161.07945,-72.25953 -161.07945,-161.07895 V 221.29867 a 35.357582,35.357582 0 0 0 23.0768,-18.10556 l 81.06695,-40.53348 a 39.139501,39.139501 0 0 0 5.99847,5.07629 v 26.621 a 94.918255,94.918255 0 0 0 -14.03903,59.24905 l 4.88184,51.25878 -37.35594,20.37636 a 8.4903559,8.4903559 0 0 0 -4.33908,8.65329 l 8.48954,59.42677 a 8.4898678,8.4898678 0 0 0 8.40451,7.28895 h 16.97908 a 8.4892735,8.4892735 0 0 0 7.88225,-5.33654 l 6.90606,-17.26483 1.99822,20.98264 -7.40062,14.80124 a 8.4876605,8.4876605 0 0 0 0.52954,8.50561 l 33.95815,50.93724 a 8.4889339,8.4889339 0 0 0 7.06363,3.78049 h 16.97908 a 8.4896237,8.4896237 0 0 0 8.48954,-8.48954 V 340.26996 l 23.46955,-7.22121 a 50.682388,50.682388 0 0 0 35.95722,-48.68482 V 252.9391 A 109.21732,109.21732 0 0 0 307.158,194.34656 v -26.61064 a 39.124242,39.124242 0 0 0 5.99822,-5.07629 l 81.06723,40.53348 a 35.355746,35.355746 0 0 0 23.07679,18.10556 V 332.9161 c -2e-5,88.81942 -72.25954,161.07895 -161.07947,161.07895 z M 434.50109,196.63891 a 8.7213988,8.7213988 0 0 1 -8.71133,8.71182 18.521776,18.521776 0 0 1 -16.65783,-10.29585 l -0.9959,-1.99129 a 8.4901862,8.4901862 0 0 0 -3.79605,-3.79551 l -82.30147,-41.15075 a 39.416419,39.416419 0 0 0 2.09857,-12.68715 v -31.26995 l 107.09447,85.67574 a 8.6706313,8.6706313 0 0 1 3.26954,6.80294 z M 297.63836,18.580874 a 9.5306535,9.5306535 0 0 1 9.51964,9.519639 v 19.297846 a 65.561069,65.561069 0 0 0 12.88562,39.098827 h -4.39608 A 25.497459,25.497459 0 0 1 290.17893,61.028569 h -0.0782 l 0.0782,-16.979078 a 33.739847,33.739847 0 0 0 -4.7163,-17.235568 l 5.44482,-5.444829 a 9.4556165,9.4556165 0 0 1 6.73091,-2.78822 z m -41.41759,8.489539 a 16.998529,16.998529 0 0 1 16.97908,16.979078 h -33.95816 a 16.998529,16.998529 0 0 1 16.97908,-16.979078 z"
     id="path1075"
     style="stroke-width:1.0612;fill:#212121;fill-opacity:1" />
</svg>
