<?xml version="1.0" encoding="UTF-8" standalone="no"?>
<svg
   xmlns:dc="http://purl.org/dc/elements/1.1/"
   xmlns:cc="http://creativecommons.org/ns#"
   xmlns:rdf="http://www.w3.org/1999/02/22-rdf-syntax-ns#"
   xmlns:svg="http://www.w3.org/2000/svg"
   xmlns="http://www.w3.org/2000/svg"
   xmlns:sodipodi="http://sodipodi.sourceforge.net/DTD/sodipodi-0.dtd"
   xmlns:inkscape="http://www.inkscape.org/namespaces/inkscape"
   id="Layer_1"
   enable-background="new 0 0 512 512"
   height="512"
   viewBox="0 0 512 512"
   width="512"
   version="1.1"
   sodipodi:docname="gedragsbeinvloeding.svg"
   inkscape:version="1.0.1 (c497b03c, 2020-09-10)">
  <metadata
     id="metadata1149">
    <rdf:RDF>
      <cc:Work
         rdf:about="">
        <dc:format>image/svg+xml</dc:format>
        <dc:type
           rdf:resource="http://purl.org/dc/dcmitype/StillImage" />
      </cc:Work>
    </rdf:RDF>
  </metadata>
  <defs
     id="defs1147" />
  <sodipodi:namedview
     pagecolor="#ffffff"
     bordercolor="#666666"
     borderopacity="1"
     objecttolerance="10"
     gridtolerance="10"
     guidetolerance="10"
     inkscape:pageopacity="0"
     inkscape:pageshadow="2"
     inkscape:window-width="1920"
     inkscape:window-height="1027"
     id="namedview1145"
     showgrid="false"
     inkscape:zoom="1.7363281"
     inkscape:cx="256"
     inkscape:cy="256"
     inkscape:window-x="0"
     inkscape:window-y="25"
     inkscape:window-maximized="0"
     inkscape:current-layer="Layer_1" />
  <g
     id="XMLID_2659_"
     style="fill:#212121;fill-opacity:1">
    <g
       id="XMLID_256_"
       style="fill:#212121;fill-opacity:1">
      <path
         id="XMLID_476_"
         d="m287.619 246.599c6.456-7.387 10.381-17.041 10.381-27.599v-8c0-23.159-18.841-42-42-42s-42 18.841-42 42v8c0 10.558 3.925 20.212 10.381 27.599-35.2 12.922-60.381 46.776-60.381 86.401 0 5.522 4.477 10 10 10h37c5.523 0 10-4.478 10-10s-4.477-10-10-10h-26.309c4.882-34.985 35-62 71.308-62s66.426 27.015 71.308 62h-26.307c-5.523 0-10 4.478-10 10s4.477 10 10 10h37c5.523 0 10-4.478 10-10 0-39.625-25.181-73.479-60.381-86.401zm-53.619-27.599v-8c0-12.131 9.869-22 22-22s22 9.869 22 22v8c0 12.131-9.869 22-22 22s-22-9.869-22-22z"
         style="fill:#212121;fill-opacity:1" />
      <path
         id="XMLID_479_"
         d="m246 82.787v53.213c0 5.523 4.477 10 10 10s10-4.477 10-10v-53.213c18.345-4.499 32-21.075 32-40.787 0-23.159-18.841-42-42-42s-42 18.841-42 42c0 19.713 13.655 36.288 32 40.787zm10-62.787c12.131 0 22 9.869 22 22s-9.869 22-22 22-22-9.869-22-22 9.869-22 22-22z"
         style="fill:#212121;fill-opacity:1" />
      <path
         id="XMLID_482_"
         d="m266 429.213v-51.213c0-5.522-4.477-10-10-10s-10 4.478-10 10v51.213c-18.345 4.499-32 21.074-32 40.787 0 23.159 18.841 42 42 42s42-18.841 42-42c0-19.713-13.655-36.289-32-40.787zm-10 62.787c-12.131 0-22-9.869-22-22s9.869-22 22-22 22 9.869 22 22-9.869 22-22 22z"
         style="fill:#212121;fill-opacity:1" />
      <path
         id="XMLID_485_"
         d="m470 214c-19.713 0-36.288 13.655-40.787 32h-53.213c-5.523 0-10 4.477-10 10 0 5.522 4.477 10 10 10h53.213c4.499 18.345 21.075 32 40.787 32 23.159 0 42-18.841 42-42s-18.841-42-42-42zm0 64c-12.131 0-22-9.869-22-22s9.869-22 22-22 22 9.869 22 22-9.869 22-22 22z"
         style="fill:#212121;fill-opacity:1" />
      <path
         id="XMLID_488_"
         d="m82.787 266h53.213c5.523 0 10-4.478 10-10 0-5.523-4.477-10-10-10h-53.213c-4.499-18.345-21.074-32-40.787-32-23.159 0-42 18.841-42 42s18.841 42 42 42c19.713 0 36.288-13.655 40.787-32zm-40.787 12c-12.131 0-22-9.869-22-22s9.869-22 22-22 22 9.869 22 22-9.869 22-22 22z"
         style="fill:#212121;fill-opacity:1" />
      <path
         id="XMLID_491_"
         d="m407.321 365.32c-7.804 0-15.281 2.119-21.781 6.077l-14.684-14.684c-3.905-3.904-10.237-3.904-14.143 0-3.905 3.905-3.905 10.237 0 14.143l14.696 14.696c-9.79 16.154-7.725 37.529 6.214 51.469 7.933 7.933 18.48 12.302 29.699 12.302s21.766-4.369 29.699-12.302c16.375-16.376 16.375-43.021 0-59.397-7.934-7.935-18.481-12.304-29.7-12.304zm15.556 57.557c-4.155 4.155-9.68 6.444-15.556 6.444s-11.401-2.289-15.556-6.444c-8.578-8.577-8.578-22.535 0-31.112 4.155-4.155 9.68-6.444 15.556-6.444s11.401 2.289 15.556 6.444c8.578 8.577 8.578 22.535 0 31.112z"
         style="fill:#212121;fill-opacity:1" />
      <path
         id="XMLID_810_"
         d="m74.98 134.378c8.188 8.188 18.943 12.281 29.698 12.281 7.554 0 15.105-2.028 21.77-6.068l37.627 37.627c1.953 1.953 4.512 2.929 7.071 2.929s5.119-.976 7.071-2.929c3.905-3.905 3.905-10.237 0-14.143l-37.627-37.627c9.791-16.154 7.725-37.53-6.214-51.469-16.376-16.375-43.021-16.374-59.397 0-16.374 16.377-16.374 43.022.001 59.399 0-.001 0-.001 0 0zm14.143-45.255c8.577-8.578 22.535-8.578 31.112 0 8.577 8.577 8.577 22.532.003 31.11-.001.001-.002.002-.003.002-.001.001-.001.002-.002.002-8.579 8.576-22.534 8.574-31.11-.002-8.578-8.577-8.578-22.534 0-31.112z"
         style="fill:#212121;fill-opacity:1" />
      <path
         id="XMLID_815_"
         d="m340.853 181.147c2.559 0 5.119-.976 7.071-2.929l37.627-37.627c6.665 4.039 14.215 6.068 21.77 6.068 10.755 0 21.511-4.094 29.699-12.281 16.375-16.376 16.375-43.021 0-59.397-16.376-16.375-43.021-16.375-59.397 0-13.939 13.939-16.004 35.314-6.213 51.468l-37.627 37.627c-3.905 3.905-3.905 10.237 0 14.143 1.951 1.952 4.511 2.928 7.07 2.928zm50.911-92.024c4.29-4.29 9.922-6.434 15.557-6.434 5.633 0 11.268 2.145 15.556 6.434 8.578 8.578 8.578 22.535 0 31.112-8.577 8.577-22.533 8.577-31.11.003-.001-.001-.002-.002-.002-.003-.001-.001-.002-.001-.002-.002-8.576-8.578-8.576-22.533.001-31.11z"
         style="fill:#212121;fill-opacity:1" />
      <path
         id="XMLID_819_"
         d="m141.145 356.713-14.684 14.684c-6.5-3.958-13.977-6.077-21.781-6.077-11.219 0-21.766 4.369-29.699 12.302-16.375 16.376-16.375 43.021 0 59.397 7.933 7.933 18.48 12.302 29.699 12.302 11.218 0 21.766-4.369 29.699-12.302 13.938-13.939 16.004-35.315 6.214-51.469l14.696-14.696c3.905-3.905 3.905-10.237 0-14.143-3.907-3.902-10.239-3.902-14.144.002zm-20.91 66.164c-4.155 4.155-9.68 6.444-15.556 6.444s-11.401-2.289-15.556-6.444c-8.578-8.577-8.578-22.535 0-31.112 4.155-4.155 9.68-6.444 15.556-6.444s11.401 2.289 15.556 6.444c8.578 8.577 8.578 22.535 0 31.112z"
         style="fill:#212121;fill-opacity:1" />
      <path
         id="XMLID_821_"
         d="m256 343c2.63 0 5.21-1.07 7.07-2.931 1.86-1.859 2.93-4.439 2.93-7.069s-1.07-5.21-2.93-7.07-4.44-2.93-7.07-2.93-5.21 1.069-7.07 2.93c-1.86 1.86-2.93 4.44-2.93 7.07s1.07 5.21 2.93 7.069c1.86 1.861 4.44 2.931 7.07 2.931z"
         style="fill:#212121;fill-opacity:1" />
    </g>
  </g>
</svg>
