<?xml version="1.0" encoding="UTF-8" standalone="no"?>
<svg
   xmlns:dc="http://purl.org/dc/elements/1.1/"
   xmlns:cc="http://creativecommons.org/ns#"
   xmlns:rdf="http://www.w3.org/1999/02/22-rdf-syntax-ns#"
   xmlns:svg="http://www.w3.org/2000/svg"
   xmlns="http://www.w3.org/2000/svg"
   xmlns:sodipodi="http://sodipodi.sourceforge.net/DTD/sodipodi-0.dtd"
   xmlns:inkscape="http://www.inkscape.org/namespaces/inkscape"
   id="Capa_1"
   enable-background="new 0 0 512 512"
   height="512"
   viewBox="0 0 512 512"
   width="512"
   version="1.1"
   sodipodi:docname="instructie-begeleiding-leerprocessen.svg"
   inkscape:version="1.0.1 (c497b03c, 2020-09-10)">
  <metadata
     id="metadata1180">
    <rdf:RDF>
      <cc:Work
         rdf:about="">
        <dc:format>image/svg+xml</dc:format>
        <dc:type
           rdf:resource="http://purl.org/dc/dcmitype/StillImage" />
      </cc:Work>
    </rdf:RDF>
  </metadata>
  <defs
     id="defs1178" />
  <sodipodi:namedview
     pagecolor="#ffffff"
     bordercolor="#666666"
     borderopacity="1"
     objecttolerance="10"
     gridtolerance="10"
     guidetolerance="10"
     inkscape:pageopacity="0"
     inkscape:pageshadow="2"
     inkscape:window-width="1920"
     inkscape:window-height="1027"
     id="namedview1176"
     showgrid="false"
     inkscape:zoom="1.7363281"
     inkscape:cx="256"
     inkscape:cy="256"
     inkscape:window-x="0"
     inkscape:window-y="25"
     inkscape:window-maximized="0"
     inkscape:current-layer="Capa_1" />
  <g
     id="g1173"
     style="fill:#212121;fill-opacity:1">
    <circle
       cx="256"
       cy="110"
       r="10"
       id="circle1151"
       style="fill:#212121;fill-opacity:1" />
    <path
       d="m110 306c16.542 0 30-13.458 30-30s-13.458-30-30-30-30 13.458-30 30 13.458 30 30 30zm0-40c5.514 0 10 4.486 10 10s-4.486 10-10 10-10-4.486-10-10 4.486-10 10-10z"
       id="path1153"
       style="fill:#212121;fill-opacity:1" />
    <path
       d="m226 276c0 16.542 13.458 30 30 30s30-13.458 30-30-13.458-30-30-30-30 13.458-30 30zm40 0c0 5.514-4.486 10-10 10s-10-4.486-10-10 4.486-10 10-10 10 4.486 10 10z"
       id="path1155"
       style="fill:#212121;fill-opacity:1" />
    <path
       d="m372 276c0 16.542 13.458 30 30 30s30-13.458 30-30-13.458-30-30-30-30 13.458-30 30zm40 0c0 5.514-4.486 10-10 10s-10-4.486-10-10 4.486-10 10-10 10 4.486 10 10z"
       id="path1157"
       style="fill:#212121;fill-opacity:1" />
    <path
       d="m169.992 41.618c-4.854-1.086-9.477-1.618-13.992-1.618-38.598 0-70 31.402-70 70s31.402 70 70 70c4.515 0 9.138-.532 13.992-1.618 20.823 26.183 52.471 41.618 86.008 41.618s65.185-15.435 86.009-41.618c4.853 1.086 9.475 1.618 13.991 1.618 38.598 0 70-31.402 70-70s-31.402-70-70-70c-4.516 0-9.138.532-13.991 1.618-20.824-26.183-52.472-41.618-86.009-41.618s-65.185 15.435-86.008 41.618zm12.168 17.131c16.873-24.264 44.477-38.749 73.84-38.749s56.967 14.485 73.84 38.749c2.499 3.593 7.044 5.145 11.216 3.828 5.579-1.758 10.328-2.577 14.944-2.577 27.57 0 50 22.43 50 50s-22.43 50-50 50c-4.616 0-9.365-.819-14.944-2.577-4.171-1.313-8.718.235-11.216 3.828-16.873 24.264-44.477 38.749-73.84 38.749s-56.967-14.485-73.84-38.749c-2.502-3.598-7.045-5.142-11.216-3.828-5.579 1.758-10.327 2.577-14.944 2.577-27.57 0-50-22.43-50-50s22.43-50 50-50c4.617 0 9.365.819 14.944 2.577 4.176 1.318 8.718-.234 11.216-3.828z"
       id="path1159"
       style="fill:#212121;fill-opacity:1" />
    <path
       d="m196 120h10.999c1.27 6.283 3.736 12.232 7.284 17.575l-7.784 7.784c-3.905 3.905-3.906 10.236 0 14.143 3.906 3.905 10.237 3.905 14.142 0l7.785-7.784c5.342 3.548 11.291 6.014 17.575 7.284v10.998c0 5.522 4.478 10 10 10s10-4.478 10-10v-10.999c6.283-1.27 12.232-3.736 17.574-7.284l7.784 7.784c3.907 3.905 10.236 3.904 14.143 0 3.905-3.905 3.905-10.237 0-14.143l-7.784-7.784c3.548-5.342 6.014-11.291 7.284-17.574h10.998c5.522 0 10-4.478 10-10s-4.478-10-10-10h-10.999c-1.27-6.283-3.736-12.232-7.284-17.574l7.784-7.784c3.905-3.905 3.905-10.237 0-14.143-3.906-3.904-10.236-3.904-14.143 0l-7.784 7.784c-5.342-3.548-11.291-6.013-17.574-7.284v-10.999c0-5.522-4.478-10-10-10s-10 4.478-10 10v10.999c-6.284 1.27-12.233 3.735-17.575 7.284l-7.784-7.784c-3.905-3.904-10.237-3.904-14.142 0-3.905 3.906-3.905 10.237 0 14.143l7.784 7.783c-3.548 5.343-6.014 11.292-7.284 17.575h-10.999c-5.523 0-10 4.478-10 10s4.477 10 10 10zm60-40c16.518 0 30 13.402 30 30 0 16.518-13.402 30-30 30-16.569 0-30-13.429-30-30 0-16.546 13.432-30 30-30z"
       id="path1161"
       style="fill:#212121;fill-opacity:1" />
    <path
       d="m140 382c0-27.57-22.43-50-50-50s-50 22.43-50 50 22.43 50 50 50 50-22.43 50-50zm-50 30c-16.542 0-30-13.458-30-30s13.458-30 30-30 30 13.458 30 30-13.458 30-30 30z"
       id="path1163"
       style="fill:#212121;fill-opacity:1" />
    <path
       d="m306 382c0-27.57-22.43-50-50-50s-50 22.43-50 50 22.43 50 50 50 50-22.43 50-50zm-50 30c-16.542 0-30-13.458-30-30s13.458-30 30-30 30 13.458 30 30-13.458 30-30 30z"
       id="path1165"
       style="fill:#212121;fill-opacity:1" />
    <path
       d="m472 382c0-27.57-22.43-50-50-50s-50 22.43-50 50 22.43 50 50 50 50-22.43 50-50zm-50 30c-16.542 0-30-13.458-30-30s13.458-30 30-30 30 13.458 30 30-13.458 30-30 30z"
       id="path1167"
       style="fill:#212121;fill-opacity:1" />
    <path
       d="m442 432h-40c-25.436 0-47.742 13.641-60 33.988-12.258-20.347-34.564-33.988-60-33.988h-52c-25.436 0-47.742 13.641-60 33.988-12.258-20.347-34.564-33.988-60-33.988h-40c-38.598 0-70 31.402-70 70 0 5.522 4.477 10 10 10h201c5.523 0 10-4.478 10-10s-4.477-10-10-10h-29.996c4.646-22.794 24.85-40 48.996-40h52c24.146 0 44.35 17.206 48.995 40h-29.995c-5.522 0-10 4.478-10 10s4.478 10 10 10h201c5.522 0 10-4.478 10-10 0-38.598-31.402-70-70-70zm-420.996 60c4.646-22.794 24.85-40 48.996-40h40c24.146 0 44.349 17.206 48.996 40zm332.001 0c4.646-22.794 24.85-40 48.995-40h40c24.146 0 44.35 17.206 48.995 40z"
       id="path1169"
       style="fill:#212121;fill-opacity:1" />
    <circle
       cx="256"
       cy="502"
       r="10"
       id="circle1171"
       style="fill:#212121;fill-opacity:1" />
  </g>
</svg>
