<?xml version="1.0" encoding="UTF-8" standalone="no"?>
<svg
   xmlns:dc="http://purl.org/dc/elements/1.1/"
   xmlns:cc="http://creativecommons.org/ns#"
   xmlns:rdf="http://www.w3.org/1999/02/22-rdf-syntax-ns#"
   xmlns:svg="http://www.w3.org/2000/svg"
   xmlns="http://www.w3.org/2000/svg"
   xmlns:sodipodi="http://sodipodi.sourceforge.net/DTD/sodipodi-0.dtd"
   xmlns:inkscape="http://www.inkscape.org/namespaces/inkscape"
   id="Capa_1"
   enable-background="new 0 0 511.999 511.999"
   height="512"
   viewBox="0 0 511.999 511.999"
   width="512"
   version="1.1"
   sodipodi:docname="kennis-nederlandse-onderwijssysteem.svg"
   inkscape:version="1.0.1 (c497b03c, 2020-09-10)">
  <metadata
     id="metadata905">
    <rdf:RDF>
      <cc:Work
         rdf:about="">
        <dc:format>image/svg+xml</dc:format>
        <dc:type
           rdf:resource="http://purl.org/dc/dcmitype/StillImage" />
      </cc:Work>
    </rdf:RDF>
  </metadata>
  <defs
     id="defs903" />
  <sodipodi:namedview
     pagecolor="#ffffff"
     bordercolor="#666666"
     borderopacity="1"
     objecttolerance="10"
     gridtolerance="10"
     guidetolerance="10"
     inkscape:pageopacity="0"
     inkscape:pageshadow="2"
     inkscape:window-width="1920"
     inkscape:window-height="1027"
     id="namedview901"
     showgrid="false"
     inkscape:zoom="1.7363281"
     inkscape:cx="256"
     inkscape:cy="256"
     inkscape:window-x="0"
     inkscape:window-y="25"
     inkscape:window-maximized="0"
     inkscape:current-layer="Capa_1" />
  <g
     id="g898"
     style="fill:#212121;fill-opacity:1">
    <g
       id="g896"
       style="fill:#212121;fill-opacity:1">
      <path
         d="m510.08 250.107-53.479-73.333c-1.883-2.582-4.886-4.108-8.08-4.108h-220.339l41.89-57.441c2.561-3.511 2.561-8.273 0-11.784l-53.48-73.333c-1.882-2.582-4.885-4.108-8.08-4.108h-198.512c-5.523 0-10 4.477-10 10v440c0 5.523 4.477 10 10 10h348.517c3.194 0 6.197-1.526 8.08-4.108l53.479-73.334c2.56-3.511 2.56-8.273 0-11.784l-41.89-57.441h70.334c3.195 0 6.197-1.526 8.08-4.108l53.479-73.333c2.56-3.511 2.56-8.274.001-11.785zm-490.08-204.108h183.428l46.187 63.333-46.187 63.333h-183.428zm423.437 273.334h-203.434c-5.523 0-10 4.477-10 10s4.477 10 10 10h113.431l46.186 63.333-46.187 63.334h-333.433v-126.667h130.002c5.523 0 10-4.477 10-10s-4.477-10-10-10h-130.002v-126.667h423.437l46.186 63.333z"
         id="path874"
         style="fill:#212121;fill-opacity:1" />
      <path
         d="m85.002 367.666c-19.299 0-35 15.701-35 35s15.701 35 35 35 35-15.701 35-35-15.701-35-35-35zm0 50c-8.271 0-15-6.729-15-15s6.729-15 15-15 15 6.729 15 15-6.729 15-15 15z"
         id="path876"
         style="fill:#212121;fill-opacity:1" />
      <path
         d="m324.501 412.667h-174.498c-5.523 0-10 4.477-10 10s4.477 10 10 10h174.499c5.522 0 10-4.477 10-10s-4.478-10-10.001-10z"
         id="path878"
         style="fill:#212121;fill-opacity:1" />
      <path
         d="m140.003 382.665c0 5.523 4.477 10 10 10h174.499c5.522 0 10-4.477 10-10s-4.478-10-10-10h-174.499c-5.523 0-10 4.477-10 10z"
         id="path880"
         style="fill:#212121;fill-opacity:1" />
      <path
         d="m85.002 220.999c-19.299 0-35 15.701-35 35s15.701 35 35 35 35-15.701 35-35-15.701-35-35-35zm0 50c-8.271 0-15-6.729-15-15s6.729-15 15-15 15 6.729 15 15-6.729 15-15 15z"
         id="path882"
         style="fill:#212121;fill-opacity:1" />
      <path
         d="m411.997 266h-261.994c-5.523 0-10 4.477-10 10s4.477 10 10 10h261.994c5.522 0 10-4.477 10-10s-4.478-10-10-10z"
         id="path884"
         style="fill:#212121;fill-opacity:1" />
      <path
         d="m411.997 225.999h-261.994c-5.523 0-10 4.477-10 10s4.477 10 10 10h261.994c5.522 0 10-4.477 10-10s-4.478-10-10-10z"
         id="path886"
         style="fill:#212121;fill-opacity:1" />
      <path
         d="m85.002 144.333c19.299 0 35-15.701 35-35s-15.701-35-35-35-35 15.701-35 35 15.701 35 35 35zm0-50.001c8.271 0 15 6.729 15 15s-6.729 15-15 15-15-6.729-15-15 6.729-15 15-15z"
         id="path888"
         style="fill:#212121;fill-opacity:1" />
      <path
         d="m150.003 139.334h36.499c5.523 0 10-4.477 10-10s-4.477-10-10-10h-36.499c-5.523 0-10 4.477-10 10s4.477 10 10 10z"
         id="path890"
         style="fill:#212121;fill-opacity:1" />
      <path
         d="m150.003 99.332h36.499c5.523 0 10-4.477 10-10s-4.477-10-10-10h-36.499c-5.523 0-10 4.477-10 10s4.477 10 10 10z"
         id="path892"
         style="fill:#212121;fill-opacity:1" />
      <path
         d="m205.006 329.333c0-5.523-4.477-10-10-10h-.007c-5.523 0-9.996 4.477-9.996 10s4.48 10 10.003 10 10-4.477 10-10z"
         id="path894"
         style="fill:#212121;fill-opacity:1" />
    </g>
  </g>
</svg>
