<?xml version="1.0" encoding="UTF-8" standalone="no"?>
<svg
   xmlns:dc="http://purl.org/dc/elements/1.1/"
   xmlns:cc="http://creativecommons.org/ns#"
   xmlns:rdf="http://www.w3.org/1999/02/22-rdf-syntax-ns#"
   xmlns:svg="http://www.w3.org/2000/svg"
   xmlns="http://www.w3.org/2000/svg"
   xmlns:sodipodi="http://sodipodi.sourceforge.net/DTD/sodipodi-0.dtd"
   xmlns:inkscape="http://www.inkscape.org/namespaces/inkscape"
   id="line_icons"
   height="512"
   viewBox="0 0 74 74"
   width="512"
   data-name="line icons"
   version="1.1"
   sodipodi:docname="leraar-in-ontwikkeling.svg"
   inkscape:version="1.0.1 (c497b03c, 2020-09-10)">
  <metadata
     id="metadata1022">
    <rdf:RDF>
      <cc:Work
         rdf:about="">
        <dc:format>image/svg+xml</dc:format>
        <dc:type
           rdf:resource="http://purl.org/dc/dcmitype/StillImage" />
      </cc:Work>
    </rdf:RDF>
  </metadata>
  <defs
     id="defs1020" />
  <sodipodi:namedview
     pagecolor="#ffffff"
     bordercolor="#666666"
     borderopacity="1"
     objecttolerance="10"
     gridtolerance="10"
     guidetolerance="10"
     inkscape:pageopacity="0"
     inkscape:pageshadow="2"
     inkscape:window-width="1920"
     inkscape:window-height="1027"
     id="namedview1018"
     showgrid="false"
     inkscape:zoom="1.7363281"
     inkscape:cx="257.15186"
     inkscape:cy="315.89651"
     inkscape:window-x="0"
     inkscape:window-y="25"
     inkscape:window-maximized="0"
     inkscape:current-layer="line_icons" />
  <path
     d="M 16.692129,26.725123 A 8.5522837,8.5522837 0 0 1 8.1377914,18.170785 v -2.017862 a 1.0274247,1.0274247 0 0 1 2.0548476,0 v 2.017862 a 6.4964067,6.4964067 0 0 0 6.500517,6.499489 6.5077084,6.5077084 0 0 0 6.500516,-6.499489 v -1.995259 a 1.027425,1.027425 0 1 1 2.05485,0 v 1.995259 a 8.5646128,8.5646128 0 0 1 -8.556393,8.554338 z"
     id="path993"
     style="stroke-width:1.02742;fill:#212121;fill-opacity:1" />
  <path
     d="m 28.547582,50.433977 a 3.9134609,3.9134609 0 0 1 -3.91757,-3.916543 v -7.247455 a 1.0274247,1.0274247 0 0 1 2.054849,0 v 7.247455 a 1.8658033,1.8658033 0 0 0 0.5507,1.324351 1.8493646,1.8493646 0 0 0 3.159332,-1.324351 V 37.303488 A 9.0259265,9.0259265 0 0 0 22.75599,28.314552 h -0.685293 a 1.0274255,1.0274255 0 0 1 0,-2.054851 h 0.764404 a 1.0849605,1.0849605 0 0 1 0.153087,0.0113 11.069474,11.069474 0 0 1 9.461554,11.029404 v 9.213946 a 3.9134609,3.9134609 0 0 1 -3.90216,3.919626 z"
     id="path995"
     style="stroke-width:1.02742;fill:#212121;fill-opacity:1" />
  <path
     d="M 5.1099706,50.438087 A 3.9340094,3.9340094 0 0 1 1.1954824,46.511269 v -9.201616 a 11.072556,11.072556 0 0 1 9.4194286,-11.025295 0.96783412,0.96783412 0 0 1 0.155142,-0.01233 h 0.769541 a 1.027425,1.027425 0 1 1 0,2.05485 h -0.689403 a 9.0290087,9.0290087 0 0 0 -7.6029415,8.982774 v 9.201616 a 1.8000482,1.8000482 0 0 0 0.5517272,1.324351 1.8349806,1.8349806 0 0 0 1.3109939,0.551727 1.8606662,1.8606662 0 0 0 1.8493646,-1.871968 v -7.2454 a 1.0274248,1.0274248 0 0 1 2.0548496,0 v 7.24129 a 3.9175706,3.9175706 0 0 1 -3.9042142,3.926819 z"
     id="path997"
     style="stroke-width:1.02742;fill:#212121;fill-opacity:1" />
  <path
     d="m 16.805145,30.595432 a 8.2193981,8.2193981 0 0 1 -5.851184,-2.416503 2.6795237,2.6795237 0 0 1 -0.215759,-0.23528 1.0376991,1.0376991 0 0 1 -0.172607,-0.970917 l 0.979137,-2.900419 a 1.0274247,1.0274247 0 1 1 1.945942,0.657552 l -0.771596,2.284992 a 6.2344134,6.2344134 0 0 0 8.172135,0.0061 L 20.11859,24.7298 a 1.003794,1.003794 0 0 1 -0.05445,-0.329803 1.0274247,1.0274247 0 0 1 2.000395,-0.327748 l 0.979136,2.900419 a 1.0274247,1.0274247 0 0 1 -0.01439,0.691458 1.003794,1.003794 0 0 1 -0.165416,0.287678 2.7658275,2.7658275 0 0 1 -0.205485,0.223979 8.2193981,8.2193981 0 0 1 -5.85324,2.419586 z"
     id="path999"
     style="stroke-width:1.02742;fill:#212121;fill-opacity:1" />
  <path
     d="M 21.241565,72.888346 A 5.4453512,5.4453512 0 0 1 16.823639,70.62801 5.4453512,5.4453512 0 0 1 6.9603626,67.449159 V 39.27409 a 1.0274248,1.0274248 0 0 1 2.0548496,0 v 28.170959 a 3.3905017,3.3905017 0 1 0 6.7810018,0 V 52.95836 a 1.0274248,1.0274248 0 0 1 2.054849,0 v 14.486689 a 3.390502,3.390502 0 0 0 6.781004,0 V 39.27409 a 1.027425,1.027425 0 0 1 2.05485,0 v 28.170959 a 5.4453512,5.4453512 0 0 1 -5.445352,5.443297 z"
     id="path1001"
     style="stroke-width:1.02742;fill:#212121;fill-opacity:1" />
  <path
     d="M 24.286852,17.203978 A 1.7219639,1.7219639 0 0 1 22.617287,16.132374 42.420313,42.420313 0 0 1 21.197386,11.64561 26.064738,26.064738 0 0 1 11.135816,13.441548 L 10.676557,15.88682 A 1.0048214,1.0048214 0 0 1 10.556348,16.212513 1.6890863,1.6890863 0 0 1 7.357976,15.830311 41.538783,41.538783 0 0 1 6.170273,8.528405 4.9388308,4.9388308 0 0 1 7.3631132,5.4132532 2.7843211,2.7843211 0 0 1 10.471072,4.8995407 6.5395585,6.5395585 0 0 1 14.829407,1.2850605 8.7485218,8.7485218 0 0 1 18.23532,1.0292317 c 2.276774,0.2496642 6.370034,1.269897 8.209124,5.3045941 a 9.5016242,9.5016242 0 0 1 0.291789,5.5326812 c 0,0 -0.560974,2.568561 -0.768514,3.904213 a 1.6993606,1.6993606 0 0 1 -1.680867,1.433258 z M 21.930967,9.1797923 a 1.0274247,1.0274247 0 0 1 1.010986,0.8404337 33.890633,33.890633 0 0 0 1.197977,4.284361 c 0.249665,-1.319215 0.575358,-2.814117 0.593852,-2.896312 A 7.6214369,7.6214369 0 0 0 24.562202,7.1578204 C 23.157712,4.0755461 19.854542,3.2741548 18.012369,3.0717521 a 6.6916175,6.6916175 0 0 0 -2.60863,0.1869914 4.3347051,4.3347051 0 0 0 -3.3155,3.2877592 1.0274247,1.0274247 0 0 1 -1.626413,0.6935116 C 9.615227,6.6184224 9.0491168,6.6471903 8.8179471,6.8639769 A 2.9939158,2.9939158 0 0 0 8.2230677,8.5335421 32.167642,32.167642 0 0 0 8.9884987,13.73642 l 0.2938438,-1.558602 a 1.0274247,1.0274247 0 0 1 1.0952325,-0.83427 23.403709,23.403709 0 0 0 11.10338,-2.0548487 1.0212602,1.0212602 0 0 1 0.450012,-0.108907 z"
     id="path1003"
     style="stroke-width:1.02742;fill:#212121;fill-opacity:1" />
  <path
     d="M 71.80422,72.888346 H 32.898727 a 1.027425,1.027425 0 0 1 0,-2.05485 H 71.80422 a 1.027425,1.027425 0 0 1 0,2.05485 z"
     id="path1005"
     style="stroke-width:1.02742;fill:#212121;fill-opacity:1" />
  <path
     d="M 43.234619,72.888346 H 35.9173 A 1.0274247,1.0274247 0 0 1 34.889876,71.86092 V 43.417693 A 1.0274247,1.0274247 0 0 1 35.9173,42.390268 h 7.317319 a 1.0274247,1.0274247 0 0 1 1.027425,1.027425 V 71.86092 a 1.0274247,1.0274247 0 0 1 -1.027425,1.027426 z m -6.289894,-2.05485 h 5.26247 V 44.445118 h -5.26247 z"
     id="path1007"
     style="stroke-width:1.02742;fill:#212121;fill-opacity:1" />
  <path
     d="M 68.786673,72.888346 H 61.469354 A 1.0274247,1.0274247 0 0 1 60.441929,71.86092 V 35.326723 a 1.0274247,1.0274247 0 0 1 1.027425,-1.027424 h 7.317319 a 1.0274247,1.0274247 0 0 1 1.027425,1.027424 V 71.86092 a 1.0274247,1.0274247 0 0 1 -1.027425,1.027426 z m -6.289894,-2.05485 h 5.26247 V 36.354149 H 62.49678 Z"
     id="path1009"
     style="stroke-width:1.02742;fill:#212121;fill-opacity:1" />
  <path
     d="m 56.015783,72.888346 h -7.32862 A 1.0274247,1.0274247 0 0 1 47.659738,71.86092 V 50.438087 a 1.0274247,1.0274247 0 0 1 1.027425,-1.027425 h 7.32862 a 1.0274247,1.0274247 0 0 1 1.027426,1.027425 V 71.86092 a 1.0274247,1.0274247 0 0 1 -1.027426,1.027426 z m -6.301196,-2.05485 h 5.273772 V 51.465511 h -5.273772 z"
     id="path1011"
     style="stroke-width:1.02742;fill:#212121;fill-opacity:1" />
  <path
     d="m 40.432832,39.479574 a 1.0274247,1.0274247 0 0 1 -0.719197,-1.764088 l 6.714221,-6.538532 a 1.0274247,1.0274247 0 0 1 0.892832,-0.276377 l 7.625547,1.327433 9.938279,-10.92769 a 1.027697,1.027697 0 0 1 1.520589,1.382915 L 56.089759,34.028059 a 1.0274247,1.0274247 0 0 1 -0.937012,0.321584 l -7.664589,-1.335652 -6.33921,6.172767 a 1.0274247,1.0274247 0 0 1 -0.716116,0.292816 z"
     id="path1013"
     style="stroke-width:1.02742;fill:#212121;fill-opacity:1" />
  <path
     d="m 65.38898,29.341974 h -0.04315 a 1.0274247,1.0274247 0 0 1 -0.984272,-1.068521 l 0.205485,-5.08678 -4.997394,0.707895 a 1.0278516,1.0278516 0 0 1 -0.288706,-2.035329 l 6.219002,-0.880502 a 1.0356441,1.0356441 0 0 1 0.834268,0.255829 1.0212602,1.0212602 0 0 1 0.336995,0.803445 l -0.259937,6.31969 a 1.0274247,1.0274247 0 0 1 -1.022288,0.984273 z"
     id="path1015"
     style="stroke-width:1.02742;fill:#212121;fill-opacity:1" />
</svg>
