<?xml version="1.0" encoding="UTF-8" standalone="no"?>
<svg
   xmlns:dc="http://purl.org/dc/elements/1.1/"
   xmlns:cc="http://creativecommons.org/ns#"
   xmlns:rdf="http://www.w3.org/1999/02/22-rdf-syntax-ns#"
   xmlns:svg="http://www.w3.org/2000/svg"
   xmlns="http://www.w3.org/2000/svg"
   xmlns:sodipodi="http://sodipodi.sourceforge.net/DTD/sodipodi-0.dtd"
   xmlns:inkscape="http://www.inkscape.org/namespaces/inkscape"
   version="1.1"
   id="Layer_1"
   x="0px"
   y="0px"
   viewBox="0 0 512 512"
   style="enable-background:new 0 0 512 512;"
   xml:space="preserve"
   width="512"
   height="512"
   sodipodi:docname="methoden-voor-systematisch-planmatig-werken.svg"
   inkscape:version="1.0.1 (c497b03c, 2020-09-10)"><metadata
   id="metadata1280"><rdf:RDF><cc:Work
       rdf:about=""><dc:format>image/svg+xml</dc:format><dc:type
         rdf:resource="http://purl.org/dc/dcmitype/StillImage" /></cc:Work></rdf:RDF></metadata><defs
   id="defs1278" /><sodipodi:namedview
   pagecolor="#ffffff"
   bordercolor="#666666"
   borderopacity="1"
   objecttolerance="10"
   gridtolerance="10"
   guidetolerance="10"
   inkscape:pageopacity="0"
   inkscape:pageshadow="2"
   inkscape:window-width="1920"
   inkscape:window-height="1027"
   id="namedview1276"
   showgrid="false"
   inkscape:zoom="1.7363281"
   inkscape:cx="256"
   inkscape:cy="256"
   inkscape:window-x="0"
   inkscape:window-y="25"
   inkscape:window-maximized="0"
   inkscape:current-layer="Layer_1" />
<g
   id="g1273"
   style="fill:#212121;fill-opacity:1">
	<path
   d="M292,216c0,5.52,4.48,10,10,10s10-4.48,10-10s-4.48-10-10-10S292,210.48,292,216z"
   id="path1249"
   style="fill:#212121;fill-opacity:1" />
	<path
   d="M30,512h332c16.542,0,30-13.458,30-30V90c0-16.542-13.458-30-30-30h-50V50c0-5.522-4.478-10-10-10h-49.417   C244.232,16.398,221.618,0,196,0s-48.232,16.398-56.583,40H90c-5.522,0-10,4.478-10,10v10H30C13.458,60,0,73.458,0,90v392   C0,498.542,13.458,512,30,512z M100,60h47c4.757,0,8.854-3.351,9.801-8.012C160.561,33.453,177.047,20,196,20   s35.439,13.453,39.199,31.988C236.146,56.649,240.243,60,245,60h47v20H100V60z M20,90c0-5.514,4.486-10,10-10h50v10   c0,5.522,4.478,10,10,10h212c5.522,0,10-4.478,10-10V80h50c5.514,0,10,4.486,10,10v392c0,5.514-4.486,10-10,10H30   c-5.514,0-10-4.486-10-10V90z"
   id="path1251"
   style="fill:#212121;fill-opacity:1" />
	<path
   d="M82.929,223.071C84.882,225.023,87.44,226,90,226s5.118-0.977,7.071-2.929l40-40c3.905-3.905,3.905-10.237,0-14.143   c-3.906-3.904-10.236-3.904-14.143,0L90,201.857l-12.929-12.929c-3.906-3.904-10.236-3.904-14.143,0   c-3.905,3.905-3.905,10.237,0,14.143L82.929,223.071z"
   id="path1253"
   style="fill:#212121;fill-opacity:1" />
	<path
   d="M82.929,323.071C84.882,325.023,87.44,326,90,326s5.118-0.977,7.071-2.929l40-40c3.905-3.905,3.905-10.237,0-14.143   c-3.906-3.904-10.236-3.904-14.143,0L90,301.857l-12.929-12.929c-3.906-3.904-10.236-3.904-14.143,0   c-3.905,3.905-3.905,10.237,0,14.143L82.929,323.071z"
   id="path1255"
   style="fill:#212121;fill-opacity:1" />
	<path
   d="M90,366c-16.542,0-30,13.458-30,30s13.458,30,30,30s30-13.458,30-30S106.542,366,90,366z M90,406c-5.514,0-10-4.486-10-10   s4.486-10,10-10s10,4.486,10,10S95.514,406,90,406z"
   id="path1257"
   style="fill:#212121;fill-opacity:1" />
	<path
   d="M196,186h126c5.522,0,10-4.478,10-10s-4.478-10-10-10H196c-5.522,0-10,4.478-10,10S190.478,186,196,186z"
   id="path1259"
   style="fill:#212121;fill-opacity:1" />
	<path
   d="M196,226h66c5.522,0,10-4.478,10-10s-4.478-10-10-10h-66c-5.522,0-10,4.478-10,10S190.478,226,196,226z"
   id="path1261"
   style="fill:#212121;fill-opacity:1" />
	<path
   d="M196,286h126c5.522,0,10-4.478,10-10s-4.478-10-10-10H196c-5.522,0-10,4.478-10,10S190.478,286,196,286z"
   id="path1263"
   style="fill:#212121;fill-opacity:1" />
	<path
   d="M196,326h86c5.522,0,10-4.478,10-10s-4.478-10-10-10h-86c-5.522,0-10,4.478-10,10S190.478,326,196,326z"
   id="path1265"
   style="fill:#212121;fill-opacity:1" />
	<path
   d="M196,386h126c5.522,0,10-4.478,10-10s-4.478-10-10-10H196c-5.522,0-10,4.478-10,10S190.478,386,196,386z"
   id="path1267"
   style="fill:#212121;fill-opacity:1" />
	<path
   d="M196,426h86c5.522,0,10-4.478,10-10s-4.478-10-10-10h-86c-5.522,0-10,4.478-10,10S190.478,426,196,426z"
   id="path1269"
   style="fill:#212121;fill-opacity:1" />
	<path
   d="M501.078,119.046l-19.715-52.557C479.9,62.586,476.169,60,472.001,60C472,60,472,60,472,60   c-4.168,0-7.899,2.585-9.363,6.488L442.902,119.1C435.837,138.007,432,158.339,432,179.26V482c0,16.542,13.458,30,30,30h20   c16.542,0,30-13.458,30-30V179.26C512,158.435,508.195,138.093,501.078,119.046z M452,179.26c0-6.433,0.422-12.891,1.238-19.26   h37.518c0.82,6.386,1.243,12.834,1.243,19.26V426h-40V179.26z M471.998,98.478c1.06,2.824-3.839-10.231,10.365,27.622   c1.701,4.553,3.179,9.201,4.441,13.9h-29.608c1.261-4.698,2.738-9.342,4.437-13.889L471.998,98.478z M482,492h-20   c-5.514,0-10-4.486-10-10v-36h40v36C492,487.514,487.514,492,482,492z"
   id="path1271"
   style="fill:#212121;fill-opacity:1" />
</g>















</svg>
