<?xml version="1.0" encoding="UTF-8" standalone="no"?>
<svg
   xmlns:dc="http://purl.org/dc/elements/1.1/"
   xmlns:cc="http://creativecommons.org/ns#"
   xmlns:rdf="http://www.w3.org/1999/02/22-rdf-syntax-ns#"
   xmlns:svg="http://www.w3.org/2000/svg"
   xmlns="http://www.w3.org/2000/svg"
   xmlns:sodipodi="http://sodipodi.sourceforge.net/DTD/sodipodi-0.dtd"
   xmlns:inkscape="http://www.inkscape.org/namespaces/inkscape"
   viewBox="0 0 512 512"
   width="512"
   height="512"
   version="1.1"
   id="svg8043"
   sodipodi:docname="ontwikkelingsgebieden.svg"
   inkscape:version="1.0.1 (c497b03c, 2020-09-10)">
  <metadata
     id="metadata8049">
    <rdf:RDF>
      <cc:Work
         rdf:about="">
        <dc:format>image/svg+xml</dc:format>
        <dc:type
           rdf:resource="http://purl.org/dc/dcmitype/StillImage" />
      </cc:Work>
    </rdf:RDF>
  </metadata>
  <defs
     id="defs8047" />
  <sodipodi:namedview
     pagecolor="#ffffff"
     bordercolor="#666666"
     borderopacity="1"
     objecttolerance="10"
     gridtolerance="10"
     guidetolerance="10"
     inkscape:pageopacity="0"
     inkscape:pageshadow="2"
     inkscape:window-width="1920"
     inkscape:window-height="1027"
     id="namedview8045"
     showgrid="false"
     inkscape:zoom="1.7363281"
     inkscape:cx="254.27222"
     inkscape:cy="364.27447"
     inkscape:window-x="0"
     inkscape:window-y="25"
     inkscape:window-maximized="1"
     inkscape:current-layer="svg8043" />
  <g
     id="Out_line"
     data-name="Out line"
     style="fill:#212121;fill-opacity:1"
     transform="matrix(1.0611924,0,0,1.0611924,-15.336167,-15.377278)">
    <path
       d="m 184,312 v -88 a 8.00008,8.00008 0 0 0 -8,-8 h -32 a 8.00008,8.00008 0 0 0 -8,8 v 88 h 16 v -80 h 16 v 80 z"
       id="path8028"
       style="fill:#212121;fill-opacity:1" />
    <path
       d="M 312,344 V 232 a 8.00008,8.00008 0 0 0 -8,-8 h -32 a 8.00008,8.00008 0 0 0 -8,8 v 112 h 16 V 240 h 16 v 104 z"
       id="path8030"
       style="fill:#212121;fill-opacity:1" />
    <path
       d="M 248,344 V 200 a 8.00008,8.00008 0 0 0 -8,-8 h -32 a 8.00008,8.00008 0 0 0 -8,8 v 128 h 16 V 208 h 16 v 136 z"
       id="path8032"
       style="fill:#212121;fill-opacity:1" />
    <path
       d="m 376,280 v -80 a 8.00008,8.00008 0 0 0 -8,-8 h -32 a 8.00008,8.00008 0 0 0 -8,8 v 88 h 16 v -80 h 16 v 72 z"
       id="path8034"
       style="fill:#212121;fill-opacity:1" />
    <path
       d="M 440,272 V 152 a 8.00008,8.00008 0 0 0 -8,-8 h -32 a 8.00008,8.00008 0 0 0 -8,8 v 120 h 16 V 160 h 16 v 112 z"
       id="path8036"
       style="fill:#212121;fill-opacity:1" />
    <path
       d="m 138.34277,197.65674 a 8.00122,8.00122 0 0 0 11.31446,0 l 66.03711,-66.0376 66.35937,73.73242 a 7.99878,7.99878 0 0 0 5.73633,2.64551 c 0.0703,0.002 0.13965,0.003 0.21,0.003 a 8.00105,8.00105 0 0 0 5.65723,-2.34326 L 400,99.314 V 120 a 8.00008,8.00008 0 0 0 8,8 h 32 a 8.00008,8.00008 0 0 0 8,-8 V 24 a 8.00008,8.00008 0 0 0 -8,-8 h -96 a 8.00008,8.00008 0 0 0 -8,8 v 32 a 8.00008,8.00008 0 0 0 8,8 h 20.68652 l -76.38086,76.38086 -66.35937,-73.73242 a 8.00044,8.00044 0 0 0 -11.60352,-0.30518 l -96,96 a 8,8 0 0 0 0,11.31348 z m 77.35157,-114.0376 66.35937,73.73242 a 8.00044,8.00044 0 0 0 11.60352,0.30518 l 96,-96 A 8.00038,8.00038 0 0 0 384,48 H 352 V 32 h 80 v 80 H 416 V 80 a 8.0001,8.0001 0 0 0 -13.65723,-5.65674 l -114.03711,114.0376 -66.35937,-73.73242 a 7.99878,7.99878 0 0 0 -5.73633,-2.64551 c -0.0703,-0.002 -0.13965,-0.003 -0.21,-0.003 a 8.00105,8.00105 0 0 0 -5.65723,2.34326 L 144,180.686 131.31348,168 Z"
       id="path8038"
       style="fill:#212121;fill-opacity:1" />
    <path
       d="m 88,488 v -16 h 24 a 8.00008,8.00008 0 0 0 8,-8 v -20.95947 a 201.12746,201.12746 0 0 0 278.22559,-5.9502 l 87.43164,-87.4292 a 30.62834,30.62834 0 0 0 -37.41773,-47.92041 31.17652,31.17652 0 0 0 -51.18677,-1.70654 l -3.39184,4.55048 a 34.41184,34.41184 0 0 0 -5.54566,-3.47138 34.336,34.336 0 0 0 -46.668,16.62061 l -20.167,44.81555 A 35.79475,35.79475 0 0 0 308,360 H 211.31348 L 197.65723,346.34326 A 64.67459,64.67459 0 0 0 120,335.92963 V 328 a 8.00008,8.00008 0 0 0 -8,-8 H 88 v -8 a 8.00008,8.00008 0 0 0 -8,-8 H 16 v 16 H 72 V 480 H 16 v 16 h 64 a 8.00008,8.00008 0 0 0 8,-8 z M 429.86719,305.6499 a 15.13539,15.13539 0 0 1 6.12817,7.04083 l -63.47583,63.47577 a 135.33848,135.33848 0 0 1 -28.52295,21.8208 l 65.88428,-88.39111 a 15.13857,15.13857 0 0 1 19.98633,-3.94629 z m -73.83008,18.64942 a 18.33677,18.33677 0 0 1 24.92187,-8.87549 18.4104,18.4104 0 0 1 3.13623,1.99438 L 339.062,377.83545 a 36.19223,36.19223 0 0 0 -4.41089,-6.01184 z m -169.69434,33.35742 16,16 A 8.00076,8.00076 0 0 0 208,376 h 100 a 20,20 0 0 1 0,40 H 208 v 16 H 308 A 35.902,35.902 0 0 0 334.35938,420.48383 151.104,151.104 0 0 0 383.834,387.48 l 69.82227,-69.82227 a 14.629311,14.629311 0 0 1 20.68848,20.68946 l -87.4336,87.4292 a 185.13824,185.13824 0 0 1 -261.82324,-0.002 L 120,420.686 v -65.207 a 48.62426,48.62426 0 0 1 66.34277,2.17774 z M 104,336 V 456 H 88 V 336 Z"
       id="path8040"
       style="fill:#212121;fill-opacity:1" />
  </g>
</svg>
