<?xml version="1.0" encoding="UTF-8" standalone="no"?>
<svg
   xmlns:dc="http://purl.org/dc/elements/1.1/"
   xmlns:cc="http://creativecommons.org/ns#"
   xmlns:rdf="http://www.w3.org/1999/02/22-rdf-syntax-ns#"
   xmlns:svg="http://www.w3.org/2000/svg"
   xmlns="http://www.w3.org/2000/svg"
   xmlns:sodipodi="http://sodipodi.sourceforge.net/DTD/sodipodi-0.dtd"
   xmlns:inkscape="http://www.inkscape.org/namespaces/inkscape"
   id="Capa_1"
   enable-background="new 0 0 512 512"
   height="512"
   viewBox="0 0 512 512"
   width="512"
   version="1.1"
   sodipodi:docname="pedagogisch-klimaat.svg"
   inkscape:version="1.0.1 (c497b03c, 2020-09-10)">
  <metadata
     id="metadata1325">
    <rdf:RDF>
      <cc:Work
         rdf:about="">
        <dc:format>image/svg+xml</dc:format>
        <dc:type
           rdf:resource="http://purl.org/dc/dcmitype/StillImage" />
      </cc:Work>
    </rdf:RDF>
  </metadata>
  <defs
     id="defs1323" />
  <sodipodi:namedview
     pagecolor="#ffffff"
     bordercolor="#666666"
     borderopacity="1"
     objecttolerance="10"
     gridtolerance="10"
     guidetolerance="10"
     inkscape:pageopacity="0"
     inkscape:pageshadow="2"
     inkscape:window-width="1920"
     inkscape:window-height="1027"
     id="namedview1321"
     showgrid="false"
     inkscape:zoom="1.7363281"
     inkscape:cx="256"
     inkscape:cy="256"
     inkscape:window-x="0"
     inkscape:window-y="25"
     inkscape:window-maximized="0"
     inkscape:current-layer="Capa_1" />
  <g
     id="g1318"
     style="fill:#212121;fill-opacity:1">
    <path
       d="m502 174h-150v-143c0-5.522-4.478-10-10-10h-40c-5.522 0-10 4.478-10 10v10h-72v-10c0-5.522-4.478-10-10-10h-40c-5.522 0-10 4.478-10 10v143h-150c-5.522 0-10 4.478-10 10v40c0 5.522 4.478 10 10 10h30v30c0 5.522 4.478 10 10 10h30v207c0 5.522 4.478 10 10 10h40c5.522 0 10-4.478 10-10v-207h20v167c0 5.522 4.478 10 10 10h40c5.522 0 10-4.478 10-10v-127h72v127c0 5.522 4.478 10 10 10h40c5.522 0 10-4.478 10-10v-167h20v207c0 2.63 1.069 5.21 2.93 7.069 1.86 1.86 4.44 2.931 7.07 2.931h40c2.63 0 5.21-1.07 7.069-2.931 1.861-1.859 2.931-4.439 2.931-7.069v-29c0-5.521-4.49-10-10-10s-9.99 4.479-10 9.979v.021 19h-20v-197h20v88c0 5.51 4.49 10 10 10s10-4.49 10-10v-88h30c5.522 0 10-4.478 10-10v-30h30c5.522 0 10-4.478 10-10v-40c0-5.522-4.478-10-10-10zm-190-133h20v133h-20zm-92 133v-20h72v20zm72-113v73h-72v-73zm-112-20h20v133h-20zm-60 430h-20v-197h20zm80-40h-20v-157h20zm20-137v-20h72v20zm112 137h-20v-157h20zm120-177h-392v-20h392zm40-40h-472v-20h472z"
       id="path1314"
       style="fill:#212121;fill-opacity:1" />
    <circle
       cx="422"
       cy="407"
       r="10"
       id="circle1316"
       style="fill:#212121;fill-opacity:1" />
  </g>
</svg>
