<?xml version="1.0" encoding="UTF-8" standalone="no"?>
<svg
   xmlns:dc="http://purl.org/dc/elements/1.1/"
   xmlns:cc="http://creativecommons.org/ns#"
   xmlns:rdf="http://www.w3.org/1999/02/22-rdf-syntax-ns#"
   xmlns:svg="http://www.w3.org/2000/svg"
   xmlns="http://www.w3.org/2000/svg"
   xmlns:sodipodi="http://sodipodi.sourceforge.net/DTD/sodipodi-0.dtd"
   xmlns:inkscape="http://www.inkscape.org/namespaces/inkscape"
   height="681pt"
   viewBox="-21 -67 681.33335 681"
   width="681pt"
   version="1.1"
   id="svg1306"
   sodipodi:docname="pedagogisch-handelen.svg"
   inkscape:version="1.0.1 (c497b03c, 2020-09-10)">
  <metadata
     id="metadata1312">
    <rdf:RDF>
      <cc:Work
         rdf:about="">
        <dc:format>image/svg+xml</dc:format>
        <dc:type
           rdf:resource="http://purl.org/dc/dcmitype/StillImage" />
      </cc:Work>
    </rdf:RDF>
  </metadata>
  <defs
     id="defs1310" />
  <sodipodi:namedview
     pagecolor="#ffffff"
     bordercolor="#666666"
     borderopacity="1"
     objecttolerance="10"
     gridtolerance="10"
     guidetolerance="10"
     inkscape:pageopacity="0"
     inkscape:pageshadow="2"
     inkscape:window-width="1920"
     inkscape:window-height="1027"
     id="namedview1308"
     showgrid="false"
     inkscape:zoom="0.97907489"
     inkscape:cx="449.91451"
     inkscape:cy="394.7604"
     inkscape:window-x="0"
     inkscape:window-y="25"
     inkscape:window-maximized="0"
     inkscape:current-layer="svg1306" />
  <g
     id="g13810"
     transform="matrix(1.0623922,0,0,1.0623922,-19.165224,-15.585808)"
     style="fill:#212121;fill-opacity:1">
    <path
       d="m 615.64062,167.87891 c -13.63281,-21.15625 -36.23046,-34.29297 -61.1289,-35.78516 7.30859,-10.0625 11.64062,-22.43359 11.64062,-35.792969 V 58.101562 c 0,-0.558593 -0.0273,-1.113281 -0.043,-1.675781 0.008,-0.222656 0.0391,-0.4375 0.0352,-0.664062 -0.5,-32.351563 -27.23437,-58.671875 -59.58594,-58.671875 h -4.01562 c -32.86719,0 -59.60547,26.738281 -59.60547,59.605468 v 1.046876 c 0,0.121093 -0.004,0.238281 -0.004,0.359374 v 38.199219 c 0,13.433599 4.375,25.867189 11.75782,35.953129 -18.36329,1.57812 -35.41797,9.47265 -48.60157,22.65625 l -36.97265,36.97265 c -4.01172,4.01563 -10.35547,4.6875 -15.1211,1.60938 l -49.14843,-33.76172 c -0.0664,-0.0508 -0.13672,-0.0977 -0.21094,-0.14063 -11.69922,-7.69531 -26.12891,-9.88281 -39.58984,-6 l -0.26563,0.0781 c -12.05469,3.47265 -20.46875,14.66406 -20.46875,27.20703 0,15.89844 7.85156,30.70703 21.00391,39.625 l 79.3125,54.82031 c 0.0351,0.0234 0.0664,0.043 0.10156,0.0664 3.20703,2.16797 6.66797,3.74219 10.24609,4.79297 1.08985,0.57422 2.27344,1.0039 3.53907,1.23437 11.74218,2.17188 23.83203,-1.45703 32.42968,-9.6875 l 28.83594,-25.73828 0.22266,54.00781 -0.0117,55.01172 H 269.33594 v -40.46875 c 0,-28.01172 -8.01953,-55.25781 -23.19141,-78.80078 -13.62109,-21.13672 -36.1875,-34.26953 -61.0625,-35.78515 7.44141,-10.10938 11.84766,-22.58594 11.84766,-36.07422 v -38.19922 c 0,-0.5586 -0.0234,-1.11328 -0.0391,-1.67188 0.004,-0.22265 0.0352,-0.4414 0.0273,-0.67187 C 196.4218,90.988241 169.69133,64.664022 137.33586,64.664022 h -4.01172 c -32.86719,0 -59.60547,26.738282 -59.60547,59.601568 v 1.05468 c 0,0.11719 -0.01172,0.23828 -0.01172,0.35938 v 38.19922 c 0,13.46484 4.398438,25.91797 11.8125,36.02343 -25.339843,1.16407 -48.410156,14.36329 -62.246093,35.83594 -15.167888,23.5391 -23.1913258,50.7891 -23.1913258,78.79692 v 52.97656 c 0,6.91015 5.6015628,12.51562 12.5117188,12.51562 h 407.39453 l -0.0351,152.09375 c 0,0.41797 0.0195,0.83204 0.0664,1.24219 0.0312,0.32813 0.0859,0.64453 0.14063,0.96484 0.0156,0.082 0.0234,0.16797 0.0391,0.25391 0.0742,0.37109 0.16797,0.73438 0.27734,1.09375 0.004,0.0273 0.008,0.0586 0.0195,0.0859 0.11329,0.36719 0.24219,0.72266 0.38282,1.06641 0.0117,0.0312 0.0195,0.0586 0.0312,0.082 0.13672,0.33984 0.29297,0.66015 0.45703,0.97656 0.0234,0.043 0.043,0.0937 0.0703,0.13672 0.15625,0.29297 0.33203,0.57422 0.50391,0.85156 0.0469,0.0625 0.0781,0.13672 0.125,0.19922 0.17968,0.26953 0.375,0.52344 0.57422,0.77734 0.0547,0.0664 0.10156,0.14063 0.15625,0.20703 0.51953,0.63672 1.10156,1.21485 1.73046,1.73047 0.0781,0.0625 0.16407,0.1211 0.2461,0.1875 0.23828,0.1875 0.48437,0.375 0.73828,0.54297 0.0703,0.0508 0.15625,0.0937 0.23437,0.14453 0.26563,0.16797 0.53516,0.33985 0.81641,0.49219 0.0586,0.0273 0.11719,0.0508 0.17578,0.082 0.30078,0.16016 0.61328,0.30469 0.92969,0.44141 0.0469,0.0156 0.0898,0.0273 0.12891,0.0469 0.33593,0.13282 0.67578,0.25782 1.02343,0.36328 0.0469,0.0156 0.0977,0.0234 0.14063,0.0391 0.34765,0.0976 0.6875,0.1914 1.04297,0.25781 0.10547,0.0234 0.21484,0.0352 0.32031,0.0508 0.29687,0.0508 0.58984,0.10156 0.89453,0.13672 0.36719,0.0312 0.74219,0.0508 1.125,0.0508 0.0391,0 0.082,0.0117 0.12109,0.0117 h 139.17578 c 6.91016,0 12.51563,-5.60547 12.51563,-12.51563 v -139 l 8.78125,-5.49609 c 28.73828,-17.99219 45.89453,-48.97656 45.89453,-82.88672 v -58.05859 c 0,-28.00781 -8.01953,-55.25781 -23.19141,-78.80078 z m -267.36328,79.53906 -68.78125,-47.53516 c -0.0391,-0.0273 -0.0703,-0.0508 -0.10547,-0.0742 -6.29687,-4.26172 -13.97265,-15.01562 -8.60156,-20.39062 5.37891,-5.37891 14.4336,-2.61328 20.00391,1.01562 l 49.15625,33.76953 c 0.0703,0.043 0.13672,0.0937 0.21094,0.13672 2.57422,1.69532 5.30078,3.00782 8.11718,3.98828 z M 98.742188,125.31641 C 98.9375,105.63672 115,89.6875 134.72266,89.6875 h 1.1914 c 16,0 29.58203,10.49219 34.25782,24.95313 -14.23829,-1.67579 -27.8125,3.53906 -42.09766,9.03125 -2.58203,0.99609 -5.21875,2.00781 -7.92188,3.00781 -3.0039,1.10547 -10.03515,1.21875 -21.410152,-1.15625 z m -0.0078,25.67578 c 5.621092,0.96093 10.710932,1.45703 15.265622,1.45703 5.74609,0 10.66406,-0.76563 14.80469,-2.28906 2.8164,-1.03907 5.5664,-2.09766 8.25,-3.12891 13.32422,-5.12891 23.85156,-9.17188 32.45312,-7.14844 0.78907,0.1836 1.58985,0.31641 2.40235,0.39453 v 23.59375 c 0,19.16407 -15.05469,34.8711 -33.95703,35.92578 h -5.26172 C 113.78516,198.74219 98.734375,183.03516 98.734375,163.87109 Z M 244.3125,355.00391 h -24.92187 v -80.41407 c 0,-6.91015 -5.60157,-12.51172 -12.51172,-12.51172 H 181.8125 c -6.91016,0 -12.50781,5.60157 -12.50781,12.51172 0,6.91016 5.59765,12.50782 12.50781,12.50782 h 12.55859 v 66.86328 H 76.273438 v -66.94532 l 10.535156,-0.0703 c 6.910156,-0.0469 12.476562,-5.68359 12.425781,-12.59765 -0.04297,-6.91016 -5.722656,-12.46094 -12.59375,-12.42579 l -22.964844,0.15625 c -6.878906,0.043 -12.429687,5.63282 -12.429687,12.51172 v 80.41407 H 25.109375 v -40.46875 c 0,-23.1875 6.636719,-45.75 19.199219,-65.24219 9.871094,-15.32422 26.648437,-24.46485 44.871094,-24.46485 h 43.140622 c 0.79688,0.0273 1.59766,0.0586 2.40625,0.0586 h 1.1875 c 0.8125,0 1.60938,-0.0312 2.41016,-0.0586 h 41.91406 c 18.22656,0 35.00391,9.14063 44.875,24.46485 12.5625,19.49219 19.20313,42.05469 19.20313,65.24219 v 40.46875 z M 467.96484,57.742188 C 468.16016,38.0625 484.22266,22.113281 503.94531,22.113281 h 1.19532 c 15.99999,0 29.57812,10.492188 34.2539,24.957031 -14.23437,-1.671874 -27.8125,3.539063 -42.09766,9.03125 -2.57812,0.992188 -5.21875,2.007813 -7.92187,3.003907 -3.00391,1.109375 -10.03516,1.21875 -21.41016,-1.148438 z m -0.008,25.683593 c 5.61719,0.957031 10.71094,1.457031 15.26172,1.457031 5.74609,0 10.66406,-0.765624 14.80469,-2.296874 2.82422,-1.039063 5.57031,-2.09375 8.26172,-3.128907 13.32031,-5.121093 23.83984,-9.167969 32.4414,-7.148437 0.78906,0.183594 1.59375,0.316406 2.40235,0.398437 v 23.59375 c 0,18.171879 -13.54297,33.234379 -31.0625,35.648439 H 499.01953 C 481.5,129.53516 467.95703,114.47266 467.95703,96.300781 Z M 444.992,462.47656 445.0311,312.45313 H 559.12891 V 519.61328 H 515.55078 V 354.57031 c 0,-6.91015 -5.60547,-12.51172 -12.51562,-12.51172 -6.91016,0 -12.51172,5.60157 -12.51172,12.51172 v 165.04297 h -45.53906 z m 139.16406,-99.12109 v -50.90234 h 29.24219 c -2.13282,20.375 -12.65625,38.73828 -29.24219,50.90234 z m 29.37891,-75.92188 h -29.37891 v -58.82812 c 0,-6.91016 -5.60547,-12.51172 -12.51563,-12.51172 -3.55859,0 -6.76562,1.49219 -9.03906,3.875 -2.3125,2.26953 -3.74219,5.42578 -3.74219,8.91797 v 58.54687 H 445.03125 l 0.0156,-49.8125 c 0.0781,-8.61328 -4.96484,-16.36718 -12.88281,-19.77343 -7.84765,-3.38282 -16.85937,-1.77735 -23.05078,4.07422 l -34.74219,31.01562 c -0.13672,0.11719 -0.26562,0.23828 -0.39453,0.36328 -0.21875,0.21485 -0.44922,0.41016 -0.67969,0.60547 v -35.51172 c 4.92188,-1.83594 9.4375,-4.72656 13.24219,-8.53125 l 36.97266,-36.97656 c 10.08203,-10.08203 23.48828,-15.63281 37.75,-15.63281 h 28.76172 v 45.5039 c 0,6.91016 5.59765,12.51172 12.50781,12.51172 6.91016,0 12.51562,-5.60156 12.51562,-12.51172 v -45.5039 h 34.41016 c 18.22656,0 35,9.14453 44.875,24.46484 12.5625,19.49219 19.20313,42.05469 19.20313,65.24219 z m 0,0"
       id="path1300"
       style="fill:#212121;fill-opacity:1" />
    <path
       d="m 510.26953,240.91406 -0.31641,-0.24219 c -5.5,-4.1875 -13.34765,-3.12109 -17.53125,2.38282 -4.1875,5.49609 -3.12109,13.34765 2.375,17.53125 l 0.32422,0.24218 c 2.26172,1.72266 4.92578,2.55469 7.5625,2.55469 3.77735,0 7.50391,-1.69922 9.96485,-4.93359 4.1914,-5.5 3.125,-13.34766 -2.37891,-17.53516 z m 0,0"
       id="path1302"
       style="fill:#212121;fill-opacity:1" />
    <path
       d="m 141.80859,264.6875 -0.32422,-0.24609 c -5.5,-4.17969 -13.34765,-3.11719 -17.53124,2.38281 -4.1836,5.49609 -3.1211,13.34765 2.3789,17.53515 l 0.32031,0.24219 c 2.26563,1.72266 4.92578,2.55469 7.56641,2.55469 3.77344,0 7.50781,-1.69922 9.96875,-4.9375 4.18359,-5.49609 3.11719,-13.34766 -2.37891,-17.53125 z m 0,0"
       id="path1304"
       style="fill:#212121;fill-opacity:1" />
  </g>
</svg>
