<?xml version="1.0" encoding="UTF-8" standalone="no"?>
<svg
   xmlns:dc="http://purl.org/dc/elements/1.1/"
   xmlns:cc="http://creativecommons.org/ns#"
   xmlns:rdf="http://www.w3.org/1999/02/22-rdf-syntax-ns#"
   xmlns:svg="http://www.w3.org/2000/svg"
   xmlns="http://www.w3.org/2000/svg"
   xmlns:sodipodi="http://sodipodi.sourceforge.net/DTD/sodipodi-0.dtd"
   xmlns:inkscape="http://www.inkscape.org/namespaces/inkscape"
   id="Layer_1"
   enable-background="new 0 0 512.002 512.002"
   height="512"
   viewBox="0 0 512.002 512.002"
   width="512"
   version="1.1"
   sodipodi:docname="rol-van-de-leraar.svg"
   inkscape:version="1.0.1 (c497b03c, 2020-09-10)">
  <metadata
     id="metadata1340">
    <rdf:RDF>
      <cc:Work
         rdf:about="">
        <dc:format>image/svg+xml</dc:format>
        <dc:type
           rdf:resource="http://purl.org/dc/dcmitype/StillImage" />
      </cc:Work>
    </rdf:RDF>
  </metadata>
  <defs
     id="defs1338" />
  <sodipodi:namedview
     pagecolor="#ffffff"
     bordercolor="#666666"
     borderopacity="1"
     objecttolerance="10"
     gridtolerance="10"
     guidetolerance="10"
     inkscape:pageopacity="0"
     inkscape:pageshadow="2"
     inkscape:window-width="1920"
     inkscape:window-height="1027"
     id="namedview1336"
     showgrid="false"
     inkscape:zoom="1.7363281"
     inkscape:cx="256"
     inkscape:cy="379.82452"
     inkscape:window-x="0"
     inkscape:window-y="25"
     inkscape:window-maximized="0"
     inkscape:current-layer="Layer_1" />
  <g
     id="g1333"
     style="fill:#212121;fill-opacity:1">
    <g
       id="g1331"
       style="fill:#212121;fill-opacity:1">
      <path
         d="m321.912 343.411c38.441-20.629 66.262-58.654 72.682-103.594 17.617-1.805 31.407-16.731 31.407-34.817 0-11.867-5.942-22.366-15-28.699v-21.301c0-41.242-16.167-80.122-45.522-109.477s-68.236-45.523-109.478-45.523c-22.228 0-43.729 4.666-63.905 13.867-5.025 2.292-7.241 8.223-4.949 13.248s8.224 7.239 13.248 4.949c17.553-8.005 36.261-12.064 55.606-12.064 74.439 0 134.999 60.561 134.999 135v15h-.538c-1.606.001-3.215 0-4.824-.003-.007 0-.015 0-.022 0-5.514 0-10-4.485-10-9.998v-10.001c0-16.542-13.458-30-30-30h-179.231c-16.542 0-30 13.458-30 30v10.001c0 5.514-4.486 10-10.003 10l-5.381.001v-15c0-23.576 6.247-46.825 18.065-67.233 2.768-4.779 1.137-10.897-3.643-13.665-4.778-2.767-10.896-1.137-13.665 3.643-13.58 23.45-20.758 50.165-20.758 77.256v21.303c-9.059 6.332-15 16.832-15 28.698 0 18.086 13.788 33.012 31.405 34.817 4.693 32.958 20.937 62.964 46.344 85.266 8.17 7.172 17.007 13.298 26.339 18.328-25.936 11.029-49.111 28.509-66.909 50.779-23.975 30-37.179 67.577-37.179 105.811v2.002c0 5.523 4.477 10 10 10h320c5.523 0 10-4.477 10-10v-2.005c0-38.216-13.192-75.779-37.147-105.771-17.801-22.288-40.989-39.783-66.941-50.818zm-103.586 11.427c8.313 2.339 16.851 3.897 25.523 4.646l-21.266 18.094-11.929-20.523c2.526-.8 5.083-1.542 7.672-2.217zm75.282-.016c2.612.679 5.192 1.426 7.74 2.234l-11.929 20.522-21.294-18.118c8.742-.766 17.263-2.333 25.483-4.638zm-137.223-194.823v-10.001c0-5.514 4.486-10 10-10h179.231c5.514 0 10 4.486 10 10v10.002c.001 8.712 3.738 16.566 9.689 22.052l-18.825 13.234c-3.975-4.176-9.58-6.786-15.786-6.786h-47.886c-10.779 0-19.751 7.863-21.495 18.154h-10.625c-1.744-10.291-10.716-18.154-21.495-18.154h-47.886c-6.206 0-11.811 2.611-15.786 6.786l-18.825-13.233c5.952-5.487 9.689-13.341 9.689-22.054zm104.812 66.654c.385 3.638 1.343 7.105 2.772 10.319-2.512.675-5.158 1.607-7.968 2.867-2.81-1.26-5.456-2.193-7.968-2.867 1.43-3.214 2.387-6.681 2.772-10.319zm-30.197-3.653c0 7.995-6.505 14.5-14.5 14.5h-22.5c-7.995 0-14.5-6.505-14.5-14.5v-12.693c0-.979.828-1.807 1.807-1.807h47.886c.979 0 1.807.828 1.807 1.807zm-8.104 45.669c9.83-12.792 13.143-17.1 28.349-8.881 2.968 1.604 6.543 1.604 9.511 0 15.205-8.219 18.518-3.911 28.349 8.881 3.817 4.966 8.179 10.642 13.906 15.496-20.043 12.461-31.406 6.024-39.94-2.508-1.953-1.953-4.512-2.929-7.071-2.929s-5.118.976-7.071 2.929c-8.533 8.532-19.897 14.969-39.94 2.508 5.728-4.853 10.091-10.53 13.907-15.496zm72.605-31.169c-7.995 0-14.5-6.505-14.5-14.5v-12.693c0-.979.828-1.807 1.807-1.807h47.886c.979 0 1.807.828 1.807 1.807v12.693c0 7.995-6.505 14.5-14.5 14.5zm-159.145-8.267c-.401-5.21-4.746-9.232-9.971-9.232h-5.384c-8.271 0-15-6.729-15-15s6.729-15 15.003-15l2.219-.001 36.277 25.5v7.5c0 19.023 15.477 34.5 34.5 34.5h12.255c-5.418 7.033-10.683 13.543-18.612 16.401-3.36 1.211-5.82 4.124-6.451 7.64-.632 3.516.66 7.102 3.389 9.407 13.351 11.279 25.539 17.692 37.26 19.605 12.27 2.004 23.724-.896 34.16-8.622 8.302 6.146 17.246 9.237 26.733 9.236 2.44 0 4.917-.205 7.427-.614 11.721-1.913 23.909-8.326 37.26-19.605 2.729-2.305 4.021-5.891 3.389-9.407-.631-3.516-3.091-6.428-6.451-7.64-7.928-2.858-13.194-9.368-18.612-16.401h12.255c19.023 0 34.5-15.477 34.5-34.5v-7.5l36.275-25.501c.562 0 1.123 0 1.686.001h.538c8.271 0 15 6.729 15 15s-6.729 15-15 15h-5.384c-5.225 0-9.569 4.022-9.971 9.232-4.618 59.976-53.47 107.531-113.635 110.616-64.328 3.294-120.705-46.322-125.655-110.615zm55.457 135.207 19.492 33.533c1.489 2.562 4.037 4.331 6.957 4.831 2.922.5 5.913-.32 8.169-2.24l19.569-16.651v108.088h-79.998v-32.744c0-5.523-4.477-10-10-10s-10 4.477-10 10v32.744h-39.792c2.924-55.688 36.228-104.26 85.603-127.561zm174.186 127.562v-32.744c0-5.523-4.477-10-10-10s-10 4.477-10 10v32.744h-79.998v-108.088l19.569 16.651c1.822 1.55 4.124 2.384 6.48 2.384.562 0 1.126-.047 1.688-.144 2.92-.5 5.469-2.27 6.958-4.831l19.492-33.532c49.371 23.304 82.677 71.885 85.604 127.56z"
         id="path1327"
         style="fill:#212121;fill-opacity:1" />
      <path
         d="m158.683 57.743c5.523 0 10-4.477 10-10s-4.477-10-10-10h-.007c-5.523 0-9.996 4.477-9.996 10s4.48 10 10.003 10z"
         id="path1329"
         style="fill:#212121;fill-opacity:1" />
    </g>
  </g>
</svg>
