<?xml version="1.0" encoding="UTF-8" standalone="no"?>
<svg
   xmlns:dc="http://purl.org/dc/elements/1.1/"
   xmlns:cc="http://creativecommons.org/ns#"
   xmlns:rdf="http://www.w3.org/1999/02/22-rdf-syntax-ns#"
   xmlns:svg="http://www.w3.org/2000/svg"
   xmlns="http://www.w3.org/2000/svg"
   xmlns:sodipodi="http://sodipodi.sourceforge.net/DTD/sodipodi-0.dtd"
   xmlns:inkscape="http://www.inkscape.org/namespaces/inkscape"
   height="1167pt"
   viewBox="-78 0 1167 1167.4978"
   width="1167pt"
   version="1.1"
   id="svg854"
   sodipodi:docname="sociale-psychologie.svg"
   inkscape:version="1.0.1 (c497b03c, 2020-09-10)">
  <metadata
     id="metadata860">
    <rdf:RDF>
      <cc:Work
         rdf:about="">
        <dc:format>image/svg+xml</dc:format>
        <dc:type
           rdf:resource="http://purl.org/dc/dcmitype/StillImage" />
      </cc:Work>
    </rdf:RDF>
  </metadata>
  <defs
     id="defs858" />
  <sodipodi:namedview
     pagecolor="#ffffff"
     bordercolor="#666666"
     borderopacity="1"
     objecttolerance="10"
     gridtolerance="10"
     guidetolerance="10"
     inkscape:pageopacity="0"
     inkscape:pageshadow="2"
     inkscape:window-width="1920"
     inkscape:window-height="1027"
     id="namedview856"
     showgrid="false"
     inkscape:zoom="0.57133676"
     inkscape:cx="651.97975"
     inkscape:cy="1280.3307"
     inkscape:window-x="0"
     inkscape:window-y="25"
     inkscape:window-maximized="1"
     inkscape:current-layer="svg854" />
  <path
     d="m980.785156 298.910156c-79.75-171.503906-247.011718-285.574218-435.792968-297.199218l-18.746094-1.710938-17.179688.425781c-58.246094 2.140625-115.328125 16.894531-167.308594 43.296875-138.199218 69.085938-225.292968 210.523438-224.785156 365.03125v72.4375l-113.949218 189.917969c-3.601563 6.003906-3.707032 13.492187-.25 19.597656 3.449218 6.097657 9.914062 9.867188 16.933593 9.867188h121.773438l-11.800781 175.378906c-8.996094 51.875 25.191406 101.421875 76.882812 111.398437 1.285156.265626 2.589844.386719 3.890625.386719.707031 0 1.398437-.035156 2.085937-.105469l118.441407-12.84375v173.257813c0 10.765625 8.710937 19.449219 19.457031 19.449219h466.933594c10.742187 0 19.457031-8.683594 19.457031-19.449219v-193.34375l152.015625-375.632813c33.402344-90.960937 30.515625-191.273437-8.058594-280.160156zm-28.304687 266.324219-153.152344 378.53125c-1.058594 2.78125-1.460937 5.753906-1.1875 8.707031 0 .40625-.234375.761719-.234375 1.160156v174.964844h-428.011719v-175.09375c0-.410156-.214843-.757812-.238281-1.167968-.015625-.402344.179688-.863282.125-1.304688-.238281-1.105469-.582031-2.183594-1.035156-3.214844-.207032-.863281-.480469-1.707031-.816406-2.546875-.769532-1.632812-1.785157-3.144531-2.996094-4.511719-.273438-.332031-.382813-.742187-.683594-1.070312l-.734375-.582031c-1.609375-1.46875-3.453125-2.644531-5.449219-3.503907-3.027344-1.449218-6.378906-2.066406-9.726562-1.789062l-136.921875 14.824219c-30.203125-7.609375-49.15625-37.535157-43.144531-68.09375l13.433593-198.050781c.371094-5.15625-1.320312-10.25-4.695312-14.152344-3.386719-3.898438-8.179688-6.296875-13.347657-6.671875-1.453124 0-109.53125 0-109.53125 0l99.027344-165.132813c.179688-.394531.335938-.816406.449219-1.25.574219-1.164062 1.003906-2.410156 1.296875-3.671875.390625-1.277343.65625-2.574219.78125-3.886719 0-.453124.257812-.839843.257812-1.3125v-77.660156c-.527343-139.832031 78.234376-267.894531 203.261719-330.503906 46.945313-23.835938 98.503907-37.191406 151.109375-39.152344h15.570313c180.660156 5.101563 342.96875 111.707032 419.414062 275.472656 34.4375 79.550782 37.007813 169.277344 7.179688 250.664063zm0 0"
     id="path848"
     style="fill:#212121;fill-opacity:1" />
  <path
     d="m759 477.277344v-49.066406c-.199219-59.015626-38.289062-111.238282-94.433594-129.4375 31.234375-57.292969 17.441406-128.691407-32.886718-170.21875-50.335938-41.539063-123.042969-41.539063-173.367188 0-50.332031 41.527343-64.121094 112.925781-32.890625 170.21875-56.144531 18.199218-94.230469 70.421874-94.441406 129.4375v272.363281c0 10.761719 8.710937 19.457031 19.457031 19.457031h165.800781c39.273438 59.054688 110.269531 88.585938 179.832031 74.808594 69.558594-13.804688 123.941407-68.171875 137.722657-137.734375 13.78125-69.550781-15.757813-140.558594-74.792969-179.828125zm-214.007812-340.898438c53.722656 0 97.277343 43.5625 97.277343 97.273438 0 53.734375-43.554687 97.277344-97.277343 97.277344-53.730469 0-97.273438-43.542969-97.273438-97.277344.0625-53.699219 43.570312-97.210938 97.273438-97.273438zm-175.097657 544.742188v-252.910156c.238281-47.582032 34.875-88.027344 81.871094-95.5625 52.257813 49.597656 134.203125 49.597656 186.460937 0 46.996094 7.535156 81.632813 47.980468 81.867188 95.5625v29.675781c-63.589844-22.765625-134.585938-6.835938-182.332031 40.921875-47.742188 47.742187-63.6875 118.746094-40.921875 182.3125zm291.832031 77.824218c-75.21875 0-136.1875-60.96875-136.1875-136.1875 0-75.203124 60.96875-136.191406 136.1875-136.191406 75.203126 0 136.179688 60.988282 136.179688 136.191406-.089844 75.183594-61.011719 136.089844-136.179688 136.1875zm0 0"
     id="path850"
     style="fill:#212121;fill-opacity:1" />
  <path
     d="m739.550781 603.300781h-58.371093v-58.367187c0-10.734375-8.710938-19.445313-19.453126-19.445313-10.746093 0-19.457031 8.710938-19.457031 19.445313v58.367187h-58.359375c-10.75 0-19.460937 8.714844-19.460937 19.457031 0 10.75 8.710937 19.457032 19.460937 19.457032h58.359375v58.359375c0 10.761719 8.710938 19.457031 19.457031 19.457031 10.742188 0 19.453126-8.695312 19.453126-19.457031v-58.359375h58.371093c10.738281 0 19.449219-8.707032 19.449219-19.457032 0-10.742187-8.710938-19.457031-19.449219-19.457031zm0 0"
     id="path852"
     style="fill:#212121;fill-opacity:1" />
</svg>
