<?xml version="1.0" encoding="UTF-8" standalone="no"?>
<svg
   xmlns:dc="http://purl.org/dc/elements/1.1/"
   xmlns:cc="http://creativecommons.org/ns#"
   xmlns:rdf="http://www.w3.org/1999/02/22-rdf-syntax-ns#"
   xmlns:svg="http://www.w3.org/2000/svg"
   xmlns="http://www.w3.org/2000/svg"
   xmlns:sodipodi="http://sodipodi.sourceforge.net/DTD/sodipodi-0.dtd"
   xmlns:inkscape="http://www.inkscape.org/namespaces/inkscape"
   id="Capa_1"
   enable-background="new 0 0 513.557 513.557"
   height="512"
   viewBox="0 0 513.557 513.557"
   width="512"
   version="1.1"
   sodipodi:docname="sociaal-emotionele-ontwikkeling.svg"
   inkscape:version="1.0.1 (c497b03c, 2020-09-10)">
  <metadata
     id="metadata1073">
    <rdf:RDF>
      <cc:Work
         rdf:about="">
        <dc:format>image/svg+xml</dc:format>
        <dc:type
           rdf:resource="http://purl.org/dc/dcmitype/StillImage" />
      </cc:Work>
    </rdf:RDF>
  </metadata>
  <defs
     id="defs1071" />
  <sodipodi:namedview
     pagecolor="#ffffff"
     bordercolor="#666666"
     borderopacity="1"
     objecttolerance="10"
     gridtolerance="10"
     guidetolerance="10"
     inkscape:pageopacity="0"
     inkscape:pageshadow="2"
     inkscape:window-width="1920"
     inkscape:window-height="1027"
     id="namedview1069"
     showgrid="false"
     inkscape:zoom="1.7363281"
     inkscape:cx="256"
     inkscape:cy="256"
     inkscape:window-x="0"
     inkscape:window-y="25"
     inkscape:window-maximized="1"
     inkscape:current-layer="Capa_1" />
  <g
     id="g1066"
     style="fill:#212121;fill-opacity:1">
    <path
       d="m256.278 190.574c-78.508 0-142.379 63.871-142.379 142.379s63.871 142.379 142.379 142.379 142.379-63.871 142.379-142.379-63.87-142.379-142.379-142.379zm-127.379 142.379c0-40.954 19.439-77.438 49.563-100.753-9.79 14.619-15.281 31.726-15.711 49.682-.099 4.141 3.178 7.578 7.318 7.678 4.144.05 7.579-3.177 7.678-7.318.493-20.586 8.879-39.861 23.615-54.276 14.76-14.439 34.263-22.392 54.917-22.392 43.331 0 78.583 35.252 78.583 78.583 0 43.33-35.252 78.582-78.583 78.582-32.738 0-62.364-20.624-73.72-51.321-1.438-3.885-5.753-5.869-9.636-4.432-3.885 1.438-5.869 5.752-4.432 9.637 4.294 11.605 10.786 21.996 18.888 30.781-13.831 18.383-22.81 39.955-26.051 62.813l-.923 6.508c-19.607-22.412-31.506-51.727-31.506-83.772zm223.254 83.771-.923-6.508c-.473-3.338-1.107-6.812-1.885-10.326-.896-4.045-4.901-6.601-8.944-5.701-4.044.895-6.597 4.899-5.702 8.943.695 3.14 1.26 6.231 1.679 9.189l2.485 17.528c-22.254 18.995-51.102 30.482-82.585 30.482s-60.331-11.487-82.585-30.482l2.485-17.528c2.813-19.842 10.481-38.599 22.279-54.693 16.176 12.707 36.436 20.11 57.821 20.11 21.819 0 41.916-7.507 57.849-20.071 3.932 5.381 7.442 11.107 10.464 17.106 1.318 2.617 3.96 4.128 6.704 4.128 1.134 0 2.286-.259 3.368-.804 3.7-1.863 5.188-6.372 3.325-10.072-3.657-7.262-7.954-14.169-12.8-20.622 15.311-16.668 24.673-38.884 24.673-63.248 0-19.24-5.844-37.136-15.839-52.023 30.167 23.314 49.636 59.831 49.636 100.82 0 32.046-11.899 61.361-31.505 83.772z"
       id="path1056"
       style="fill:#212121;fill-opacity:1" />
    <path
       d="m256.278 347.738c22.168 0 42.393-11.297 54.1-30.219 2.179-3.522 1.09-8.145-2.432-10.324s-8.145-1.091-10.324 2.432c-8.953 14.472-24.409 23.111-41.344 23.111s-32.391-8.64-41.344-23.111c-2.18-3.522-6.801-4.611-10.324-2.432-3.522 2.18-4.611 6.802-2.432 10.324 11.708 18.922 31.932 30.219 54.1 30.219z"
       id="path1058"
       style="fill:#212121;fill-opacity:1" />
    <path
       d="m222.546 278.051c4.142 0 7.5-3.357 7.5-7.5v-8.724c0-4.143-3.358-7.5-7.5-7.5s-7.5 3.357-7.5 7.5v8.724c0 4.143 3.358 7.5 7.5 7.5z"
       id="path1060"
       style="fill:#212121;fill-opacity:1" />
    <path
       d="m291.01 278.051c4.142 0 7.5-3.357 7.5-7.5v-8.724c0-4.143-3.358-7.5-7.5-7.5s-7.5 3.357-7.5 7.5v8.724c0 4.143 3.358 7.5 7.5 7.5z"
       id="path1062"
       style="fill:#212121;fill-opacity:1" />
    <path
       d="m446.482 71.423c-36.985 0-67.075 30.09-67.075 67.075 0 18.83 7.81 35.861 20.348 48.056l-15.749 19.062c-31.502-31.638-73.996-50.797-119.728-52.807v-18.826c33.467-3.742 59.575-32.196 59.575-66.645 0-36.984-30.089-67.074-67.075-67.074s-67.075 30.09-67.075 67.074c0 34.449 26.108 62.903 59.575 66.645v18.778c-46.768 1.795-89.029 21.474-120.112 52.391l-15.365-18.597c12.538-12.194 20.348-29.226 20.348-48.056 0-36.985-30.09-67.075-67.075-67.075s-67.074 30.089-67.074 67.075 30.089 67.075 67.075 67.075c12.768 0 24.712-3.589 34.882-9.806l16.937 20.5c-26.774 31.474-42.956 72.222-42.956 116.685 0 99.44 80.9 180.341 180.341 180.341s180.341-80.9 180.341-180.341c0-18.227-2.713-36.219-8.064-53.476-1.227-3.957-5.429-6.17-9.385-4.942-3.956 1.227-6.169 5.428-4.942 9.384 4.904 15.818 7.391 32.315 7.391 49.034 0 91.169-74.171 165.341-165.341 165.341s-165.341-74.172-165.341-165.341 74.171-165.341 165.341-165.341c61.382 0 117.393 33.729 146.174 88.022 1.941 3.659 6.479 5.053 10.139 3.114 3.66-1.94 5.054-6.479 3.114-10.14-6.092-11.492-13.315-22.127-21.47-31.824l17.365-21.017c10.17 6.217 22.114 9.806 34.882 9.806 36.985 0 67.075-30.09 67.075-67.075s-30.091-67.075-67.076-67.075zm-411.909 47.002c0-17.646 14.356-32.002 32.001-32.002 17.646 0 32.002 14.356 32.002 32.002s-14.356 32.002-32.002 32.002c-17.645 0-32.001-14.356-32.001-32.002zm84.577 20.074c0 7.787-1.73 15.173-4.806 21.813-1.911-5.808-4.782-11.233-8.514-16.079 4.89-7.413 7.747-16.281 7.747-25.807 0-1.219-.06-2.422-.151-3.618 3.652 7.11 5.724 15.16 5.724 23.691zm-99.541-21.354c-.012.427-.035.851-.035 1.281 0 9.526 2.857 18.394 7.747 25.807-3.461 4.494-6.184 9.484-8.086 14.817-2.721-6.31-4.235-13.256-4.235-20.551 0-7.611 1.66-14.834 4.609-21.354zm11.056 58.536 1.111-5.784c.999-5.198 3.036-10.073 5.943-14.411 7.971 6.221 17.985 9.941 28.856 9.941 10.872 0 20.885-3.72 28.857-9.941 2.907 4.339 4.944 9.213 5.943 14.411l1.266 6.59c-9.316 8.727-21.823 14.087-35.565 14.087-14.162 0-27.014-5.689-36.411-14.893zm193.612-128.417c0-17.646 14.356-32.001 32.001-32.001s32.001 14.355 32.001 32.001-14.356 32.002-32.001 32.002-32.001-14.356-32.001-32.002zm-2.798 51.472c.999-5.198 3.036-10.072 5.943-14.411 7.971 6.221 17.984 9.941 28.856 9.941s20.885-3.72 28.856-9.941c2.907 4.339 4.944 9.213 5.943 14.411l1.266 6.59c-9.316 8.727-21.823 14.087-35.565 14.087-14.161 0-27.013-5.689-36.41-14.893zm87.374-31.399c0 7.787-1.73 15.173-4.806 21.813-1.911-5.807-4.782-11.233-8.514-16.079 4.89-7.413 7.747-16.281 7.747-25.807 0-1.204-.057-2.394-.146-3.575 3.641 7.102 5.719 15.132 5.719 23.648zm-99.536-21.411c-.013.446-.04.889-.04 1.338 0 9.526 2.857 18.394 7.747 25.807-3.461 4.494-6.184 9.484-8.086 14.817-2.721-6.309-4.235-13.255-4.235-20.551.001-7.629 1.652-14.877 4.614-21.411zm285.005 113.124c-1.901-5.333-4.625-10.323-8.086-14.817 4.89-7.413 7.747-16.281 7.747-25.807 0-.436-.013-.868-.025-1.301 2.951 6.524 4.598 13.759 4.598 21.374.001 7.295-1.513 14.241-4.234 20.551zm-79.342-40.625c0-17.646 14.356-32.002 32.002-32.002s32.001 14.356 32.001 32.002-14.356 32.002-32.001 32.002c-17.646 0-32.002-14.356-32.002-32.002zm-14.86-3.612c-.091 1.192-.14 2.396-.14 3.612 0 9.526 2.857 18.394 7.747 25.807-3.732 4.846-6.603 10.271-8.514 16.079-3.077-6.64-4.806-14.026-4.806-21.813 0-8.525 2.064-16.575 5.713-23.685zm10.797 61.674 1.266-6.59c.999-5.198 3.036-10.073 5.943-14.411 7.972 6.221 17.985 9.941 28.857 9.941s20.885-3.72 28.856-9.941c2.906 4.339 4.944 9.213 5.943 14.411l1.111 5.784c-9.397 9.204-22.249 14.893-36.41 14.893-13.743 0-26.251-5.36-35.566-14.087z"
       id="path1064"
       style="fill:#212121;fill-opacity:1" />
  </g>
</svg>
