<?xml version="1.0" encoding="UTF-8" standalone="no"?>
<svg
   xmlns:dc="http://purl.org/dc/elements/1.1/"
   xmlns:cc="http://creativecommons.org/ns#"
   xmlns:rdf="http://www.w3.org/1999/02/22-rdf-syntax-ns#"
   xmlns:svg="http://www.w3.org/2000/svg"
   xmlns="http://www.w3.org/2000/svg"
   xmlns:sodipodi="http://sodipodi.sourceforge.net/DTD/sodipodi-0.dtd"
   xmlns:inkscape="http://www.inkscape.org/namespaces/inkscape"
   height="480pt"
   viewBox="0 0 480.01495 480"
   width="480pt"
   version="1.1"
   id="svg1021"
   sodipodi:docname="spelontwikkeling.svg"
   inkscape:version="1.0.1 (c497b03c, 2020-09-10)">
  <metadata
     id="metadata1027">
    <rdf:RDF>
      <cc:Work
         rdf:about="">
        <dc:format>image/svg+xml</dc:format>
        <dc:type
           rdf:resource="http://purl.org/dc/dcmitype/StillImage" />
      </cc:Work>
    </rdf:RDF>
  </metadata>
  <defs
     id="defs1025" />
  <sodipodi:namedview
     pagecolor="#ffffff"
     bordercolor="#666666"
     borderopacity="1"
     objecttolerance="10"
     gridtolerance="10"
     guidetolerance="10"
     inkscape:pageopacity="0"
     inkscape:pageshadow="2"
     inkscape:window-width="1920"
     inkscape:window-height="1027"
     id="namedview1023"
     showgrid="false"
     inkscape:zoom="1.3890625"
     inkscape:cx="332.95838"
     inkscape:cy="392.71091"
     inkscape:window-x="0"
     inkscape:window-y="25"
     inkscape:window-maximized="1"
     inkscape:current-layer="svg1021" />
  <path
     d="m208.023438 112.007812c0 8.835938-7.164063 16-16 16-8.835938 0-16-7.164062-16-16 0-8.835937 7.164062-16 16-16 8.835937 0 16 7.164063 16 16zm0 0"
     id="path1015" />
  <path
     d="m304.023438 112.007812c0 8.835938-7.164063 16-16 16-8.835938 0-16-7.164062-16-16 0-8.835937 7.164062-16 16-16 8.835937 0 16 7.164063 16 16zm0 0"
     id="path1017" />
  <path
     d="m424.632812 113.527344-6.5625 6.574218-3.488281-5.695312c-3.339843-5.4375-8.972656-9.058594-15.308593-9.835938-6.332032-.777343-12.675782 1.371094-17.234376 5.835938-5.527343 5.273438-7.570312 13.230469-5.261718 20.511719l6.398437 26.457031-39.152343 39.3125v-28.679688c17.671874 0 32-14.328124 32-32 0-17.671874-14.328126-32-32-32h-5.085938c-4.734375-14.5-12.601562-27.78125-23.042969-38.90625l24.929688-18.695312-9.601563-12.796875-27.328125 20.492187c-5.910156-4.613281-12.304687-8.574218-19.070312-11.8125l18.078125-30.167968-13.742188-8.226563-19.457031 32.480469c-7.0625-2.101562-14.332031-3.445312-21.679687-4v-32.3671875h-16v32.4062495c-7.347657.558594-14.617188 1.898438-21.679688 4l-19.457031-32.480468-13.726563 8.1875 18.0625 30.167968c-6.769531 3.238282-13.167968 7.199219-19.085937 11.8125l-27.3125-20.492187-9.601563 12.796875 24.929688 18.695312c-10.441406 11.125-18.308594 24.40625-23.039063 38.90625h-5.089843c-17.671876 0-32 14.328126-32 32 0 17.671876 14.328124 32 32 32v28.679688l-39.199219-39.296875 6.230469-25.765625c2.554687-7.453125.582031-15.710938-5.0625-21.203125-4.5625-4.464844-10.90625-6.613281-17.242188-5.835937-6.335938.777343-11.976562 4.398437-15.320312 9.835937l-3.476563 5.714844-6.5625-6.578125c-12.65625-12.609375-33.097656-12.703125-45.871094-.207032-6.089843 5.957032-9.519531 14.117188-9.519531 22.636719s3.429688 16.675781 9.519531 22.636719l40.902344 38.984375 85.601563 85.734375v92.664062c.019531 2.363282 1.089843 4.597657 2.921874 6.09375v.058594c10.691407 8.84375 23.445313 14.847656 37.078126 17.457032v80.390624h16v-108.855468h1.425781c1.382812 0 2.757812.144531 4.140625.253906 1.640625.128906 3.277344.304688 4.921875.527344 1.34375.1875 2.6875.394531 4 .648437 1.800781.335938 3.59375.800781 5.367187 1.234375 1.113282.277344 2.234375.535156 3.328125.863282 2.890625.863281 5.734375 1.886718 8.511719 3.0625l26.257812 11.25c3.023438 1.296874 6.117188 2.398437 9.261719 3.421874 1.824219.570313 3.671875.976563 5.519531 1.441407 1.328126.335937 2.640626.742187 4 1.023437 2.082032.433594 4.167969.695313 6.257813.992188 1.167969.167968 2.320313.398437 3.488281.527344 1.992188.210937 4 .265624 5.976563.359374 1.183593.058594 2.351562.203126 3.535156.210938v83.039062h16v-84.265624c12.765625-1.898438 25.035156-6.273438 36.121094-12.878907 2.410156-1.445312 3.882812-4.046875 3.886719-6.855469v-92.664062l85.601562-85.734375 40.992188-39.097656c6.035156-5.972657 9.421874-14.117188 9.398437-22.605469s-3.453125-16.617188-9.519531-22.554688c-12.765625-12.492187-33.195313-12.414062-45.863282.175782zm-56.5625 81.679687 20.664063 20.671875-12.671875 12.695313-20.664062-20.648438zm-135.398437-54.113281 7.199219-16.796875 7.199218 16.796875c1.058594 2.417969.8125 5.207031-.65625 7.402344-1.511718 2.101562-3.941406 3.347656-6.53125 3.347656-2.589843 0-5.019531-1.246094-6.53125-3.347656-1.480468-2.1875-1.738281-4.980469-.679687-7.402344zm79.351563 26.914062c-44.554688 25.722657-99.445313 25.722657-144 0zm-160 44 84.921874 35.382813c1.96875.824219 4.1875.824219 6.160157 0l84.917969-35.382813v36h-176zm88-8.3125c31.425781.203126 62.152343-9.277343 88-27.152343v18.128906l-88 36.671875-88-36.671875v-18.128906c25.847656 17.875 56.574218 27.355469 88 27.152343zm-88 100.3125h176v24h-176zm0-16v-24h176v24zm192-168c8.835937 0 16 7.164063 16 16 0 8.835938-7.164063 16-16 16v-16c-.042969-5.359374-.496094-10.710937-1.359376-16zm-192 16c0-48.601562 39.398437-88 88-88 48.601562 0 88 39.398438 88 88v16h-65.65625c1.960937-5.609374 1.746093-11.75-.609376-17.207031l-14.535156-33.945312c-1.261718-2.933594-4.152344-4.835938-7.347656-4.835938s-6.082031 1.902344-7.347656 4.835938l-14.550782 33.945312c-2.351562 5.457031-2.574218 11.597657-.617187 17.207031h-65.335937zm-27.304688 11.304688c-4.566406-4.578125-5.933594-11.453125-3.457031-17.425781 2.472656-5.972657 8.296875-9.871094 14.761719-9.878907h1.359374c-.863281 5.289063-1.316406 10.640626-1.359374 16v16c-4.246094.007813-8.316407-1.683593-11.304688-4.695312zm-.070312 60.613281-20.625 20.664063-12.671876-12.695313 20.625-20.6875zm-108.625-72.007812c.007812-4.21875 1.71875-8.257813 4.746093-11.199219 6.492188-6.34375 16.878907-6.300781 23.316407.105469l13.753906 13.773437c1.726562 1.753906 4.167968 2.601563 6.609375 2.296875 2.4375-.289062 4.605469-1.679687 5.886719-3.773437l8.800781-14.402344c.804687-1.261719 2.136719-2.09375 3.621093-2.269531 1.488282-.171875 2.976563.332031 4.050782 1.375 1.363281 1.429687 1.730468 3.535156.933594 5.34375l-6.949219 28.625-24.90625 24.894531-35.199219-33.550781c-2.996094-2.960938-4.675781-7.003907-4.664062-11.21875zm72 35.289062 12.671874 12.710938-20.671874 20.65625-12.671876-12.703125zm27.273437 68.738281 20.65625-20.65625.078125.078126v41.351562zm60.726563 143.453126c-5.582032-1.398438-10.960938-3.519532-16-6.304688 5.164062-2.09375 10.523437-3.667969 16-4.695312zm118.183593-2.65625c-2.023437.128906-4.046875.128906-6.0625.105468-1.234375 0-2.464843 0-3.6875-.046875-2.082031-.113281-4.144531-.378906-6.210937-.648437-1.125-.144532-2.253906-.226563-3.382813-.417969-2.28125-.398437-4.527343-.957031-6.769531-1.542969-.878906-.230468-1.78125-.375-2.652344-.640625-3.109375-.90625-6.160156-2-9.136718-3.269531l-26.257813-11.25c-3.417969-1.449219-6.914063-2.703125-10.472656-3.761719-1.0625-.316406-2.144531-.542969-3.199219-.796875-2.535156-.671875-5.070312-1.273437-7.640625-1.738281-1.277344-.230469-2.558594-.398437-3.847656-.582031-2.398438-.34375-4.855469-.601563-7.296875-.761719-1.328125-.085937-2.644532-.167969-4-.199219-.863282 0-1.726563-.128906-2.589844-.128906-1.710938 0-3.417969.167969-5.121094.257812-.800781 0-1.648437 0-2.472656 0-.132812 0-.238281.085938-.375.101563-10.675781.832031-21.144531 3.382813-31.007812 7.554687v-18.96875h176v27.328126c-10.472657 5.503906-22.003907 8.710937-33.816407 9.40625zm49.816407-161.398438.082031-.082031 20.652343 20.65625-20.734374 20.777343zm56-14.769531-20.679688-20.679688 12.679688-12.6875 20.679687 20.6875zm59.425781-57.558594-35.304688 33.671875-24.898437-24.886719-7.132813-29.3125c-.566406-1.640625-.121093-3.460937 1.132813-4.65625 1.074218-1.042969 2.558594-1.550781 4.042968-1.378906 1.488282.175781 2.816407 1.003906 3.621094 2.265625l8.800782 14.402344c1.28125 2.09375 3.449218 3.484375 5.890624 3.773437 2.4375.300781 4.878907-.546875 6.605469-2.296875l13.746094-13.789062c6.4375-6.40625 16.828125-6.453125 23.328125-.105469 3 2.917969 4.707031 6.917969 4.742188 11.105469.035156 4.1875-1.605469 8.214844-4.558594 11.183594zm0 0"
     id="path1019"
     style="fill:#212121;fill-opacity:1" />
</svg>
